{
.appVersion = "1141";
DisplayStrings = (
"Space Mono\012ABCDEFGHIJKLMNOPQRSTUVWXYZ\012abcdefghijklmnopqrstuvwxyz\0120123456789 &",
"Space Mono "
);
classes = (
{
code = "uni2080 uni2081 uni2082 uni2083 uni2084 uni2085 uni2086 uni2087 uni2088 uni2089";
disabled = 1;
name = dnom1;
},
{
code = "zero.tosn one.tosn two.tosn three.tosn four.tosn five.tosn six.tosn seven.tosn eight.tosn nine.tosn";
disabled = 1;
name = lnum1;
},
{
code = "asterisk.cap sterling.cap Euro.cap yen.cap dollar.cap numbersign.cap uni20A1.cap uni20A4.cap uni20A6.cap uni20A7.cap uni20AB.cap uni20B1.cap uni20B2.cap uni20B5.cap uni20B9.cap section.cap paragraph.cap dagger.cap daggerdbl.cap";
disabled = 1;
name = case2;
},
{
code = "zero one two three four five six seven eight nine";
disabled = 1;
name = frac1;
},
{
code = "uni2070 onesuperior twosuperior threesuperior uni2074 uni2075 uni2076 uni2077 uni2078 uni2079";
disabled = 1;
name = numr1;
},
{
code = "asterisk sterling Euro yen dollar numbersign uni20A1 uni20A4 uni20A6 uni20A7 uni20AB uni20B1 uni20B2 uni20B5 uni20B9 section paragraph dagger daggerdbl";
disabled = 1;
name = case1;
},
{
code = "uni2080 uni2081 uni2082 uni2083 uni2084 uni2085 uni2086 uni2087 uni2088 uni2089";
disabled = 1;
name = subs1;
},
{
code = "uni2070 onesuperior twosuperior threesuperior uni2074 uni2075 uni2076 uni2077 uni2078 uni2079";
disabled = 1;
name = sups1;
},
{
code = "uni2080 uni2081 uni2082 uni2083 uni2084 uni2085 uni2086 uni2087 uni2088 uni2089 fraction";
disabled = 1;
name = frac2;
}
);
copyright = "Copyright 2016 Google Inc. All rights reserved.";
customParameters = (
{
name = glyphOrder;
value = (
.notdef,
NULL,
CR,
space,
A,
B,
C,
D,
E,
F,
G,
H,
I,
J,
K,
L,
M,
N,
O,
P,
Q,
R,
S,
T,
U,
V,
W,
X,
Y,
Z,
a,
b,
c,
d,
e,
f,
g,
h,
i,
j,
k,
l,
m,
n,
o,
p,
q,
r,
s,
t,
u,
v,
w,
x,
y,
z,
zero,
one,
two,
three,
four,
five,
six,
seven,
eight,
nine,
bracketleft,
bracketright,
braceleft,
braceright,
parenleft,
parenright,
slash,
bar,
brokenbar,
backslash,
quotesingle,

glyphs = (
{
glyphname = A;
lastChange = "2018-09-21 18:16:15 +0000";
layers = (
{
layerId = "FBAFFF81-1F8B-4B58-9158-C4AF3F48F88C";
paths = (
{
closed = 1;
nodes = (
"597 0 LINE",
"385 700 LINE",
"227 700 LINE",
"15 0 LINE",
"105 0 LINE",
"156 174 LINE",
"456 174 LINE",
"507 0 LINE"
);
},
{
closed = 1;
nodes = (
"433 252 LINE",
"179 252 LINE",
"300 664 LINE",
"312 664 LINE"
);
}
);
width = 612;
},
{
layerId = "50C9B437-FF28-4DF4-B0E6-290519DD406F";
paths = (
{
closed = 1;
nodes = (
"597 0 LINE",
"430 700 LINE",
"182 700 LINE",
"15 0 LINE",
"153 0 LINE",
"187 150 LINE",
"425 150 LINE",
"459 0 LINE"
);
},
{
closed = 1;
nodes = (
"396 276 LINE",
"215 276 LINE",
"297 634 LINE",
"315 634 LINE"
);
}
);
width = 612;
},
{
layerId = "6008D70E-46A9-43E5-86AA-D196D19196A4";
paths = (
{
closed = 1;
nodes = (
"515 0 LINE",
"465 700 LINE",
"305 700 LINE",
"-42 0 LINE",
"53 0 LINE",
"138 174 LINE",
"419 174 LINE",
"430 0 LINE"
);
},
{
closed = 1;
nodes = (
"414 252 LINE",
"176 252 LINE",
"376 663 LINE",
"388 663 LINE"
);
}
);
width = 612;
},
{
layerId = "612FA678-EA3C-4672-88DD-29ED08259473";
paths = (
{
closed = 1;
nodes = (
"521 0 LINE",
"504 700 LINE",
"260 700 LINE",
"-48 0 LINE",
"93 0 LINE",
"157 150 LINE",
"388 150 LINE",
"390 0 LINE"
);
},
{
closed = 1;
nodes = (
"386 276 LINE",
"210 276 LINE",
"363 634 LINE",
"381 634 LINE"
);
}
);
width = 612;
},
{
associatedMasterId = "FBAFFF81-1F8B-4B58-9158-C4AF3F48F88C";
layerId = "B1F584AF-557B-49FE-89BC-822BB8C63117";
name = A;
paths = (
{
closed = 1;
nodes = (
"597 0 LINE",
"385 700 LINE",
"227 700 LINE",
"15 0 LINE",
"105 0 LINE",
"156 174 LINE",
"456 174 LINE",
"507 0 LINE"
);
},
{
closed = 1;
nodes = (
"433 252 LINE",
"179 252 LINE",
"300 664 LINE",
"312 664 LINE"
);
}
);
width = 612;
},
{
associatedMasterId = "6008D70E-46A9-43E5-86AA-D196D19196A4";
layerId = "DE090EEE-3921-4E02-9B74-645BB457E093";
name = B;
paths = (
{
closed = 1;
nodes = (
"515 0 LINE",
"465 700 LINE",
"305 700 LINE",
"-42 0 LINE",
"53 0 LINE",
"138 174 LINE",
"419 174 LINE",
"430 0 LINE"
);
},
{
closed = 1;
nodes = (
"414 252 LINE",
"176 252 LINE",
"376 663 LINE",
"388 663 LINE"
);
}
);
width = 612;
},
{
associatedMasterId = "6008D70E-46A9-43E5-86AA-D196D19196A4";
layerId = "21F03F42-0743-4CF8-B7FA-6CCD9EE776E2";
name = HOI;
paths = (
{
closed = 1;
nodes = (
"515 0 LINE",
"465 700 LINE",
"305 700 LINE",
"-42 0 LINE",
"53 0 LINE",
"138 174 LINE",
"419 174 LINE",
"430 0 LINE"
);
},
{
closed = 1;
nodes = (
"414 252 LINE",
"176 252 LINE",
"376 663 LINE",
"388 663 LINE"
);
}
);
width = 612;
}
);
unicode = 0041;
},
{
glyphname = B;
lastChange = "2018-09-16 21:49:09 +0000";
layers = (
{
layerId = "FBAFFF81-1F8B-4B58-9158-C4AF3F48F88C";
paths = (
{
closed = 1;
nodes = (
"340 0 LINE SMOOTH",
"474 0 OFFCURVE",
"547 78 OFFCURVE",
"547 183 CURVE SMOOTH",
"547 195 LINE SMOOTH",
"547 270 OFFCURVE",
"495 327 OFFCURVE",
"429 345 CURVE",
"429 357 LINE",
"495 375 OFFCURVE",
"547 430 OFFCURVE",
"547 506 CURVE SMOOTH",
"547 518 LINE SMOOTH",
"547 622 OFFCURVE",
"474 700 OFFCURVE",
"340 700 CURVE SMOOTH",
"57 700 LINE",
"57 622 LINE",
"117 622 LINE",
"117 78 LINE",
"57 78 LINE",
"57 0 LINE"
);
},
{
closed = 1;
nodes = (
"337 312 LINE SMOOTH",
"417 312 OFFCURVE",
"467 266 OFFCURVE",
"467 195 CURVE SMOOTH",
"467 189 LINE SMOOTH",
"467 120 OFFCURVE",
"412 78 OFFCURVE",
"334 78 CURVE SMOOTH",
"201 78 LINE",
"201 312 LINE"
);
},
{
closed = 1;
nodes = (
"334 622 LINE SMOOTH",
"412 622 OFFCURVE",
"467 580 OFFCURVE",
"467 512 CURVE SMOOTH",
"467 506 LINE SMOOTH",
"467 434 OFFCURVE",
"417 390 OFFCURVE",
"337 390 CURVE SMOOTH",
"201 390 LINE",
"201 622 LINE"
);
}
);
width = 612;
},
{
layerId = "50C9B437-FF28-4DF4-B0E6-290519DD406F";
paths = (
{
closed = 1;
nodes = (
"353 0 LINE SMOOTH",
"487 0 OFFCURVE",
"560 78 OFFCURVE",
"560 183 CURVE SMOOTH",
"560 195 LINE SMOOTH",
"560 274 OFFCURVE",
"510 324 OFFCURVE",
"442 342 CURVE",
"442 360 LINE",
"510 378 OFFCURVE",
"560 426 OFFCURVE",
"560 506 CURVE SMOOTH",
"560 518 LINE SMOOTH",
"560 622 OFFCURVE",
"487 700 OFFCURVE",
"353 700 CURVE SMOOTH",
"46 700 LINE",
"46 574 LINE",
"112 574 LINE",
"112 126 LINE",
"46 126 LINE",
"46 0 LINE"
);
},
{
closed = 1;
nodes = (
"340 288 LINE SMOOTH",
"396 288 OFFCURVE",
"434 265 OFFCURVE",
"434 210 CURVE SMOOTH",
"434 204 LINE SMOOTH",
"434 149 OFFCURVE",
"396 126 OFFCURVE",
"340 126 CURVE SMOOTH",
"244 126 LINE",
"244 288 LINE"
);
},
{
closed = 1;
nodes = (
"340 574 LINE SMOOTH",
"396 574 OFFCURVE",
"434 552 OFFCURVE",
"434 497 CURVE SMOOTH",
"434 491 LINE SMOOTH",
"434 436 OFFCURVE",
"396 414 OFFCURVE",
"340 414 CURVE SMOOTH",
"244 414 LINE",
"244 574 LINE"
);
}
);
width = 612;
},
{
layerId = "6008D70E-46A9-43E5-86AA-D196D19196A4";
paths = (
{
closed = 1;
nodes = (
"256 0 LINE SMOOTH",
"399 0 OFFCURVE",
"505 89 OFFCURVE",
"506 217 CURVE SMOOTH",
"506 219 LINE SMOOTH",
"506 278 OFFCURVE",
"473 329 OFFCURVE",
"418 345 CURVE",
"418 357 LINE",
"514 378 OFFCURVE",
"574 453 OFFCURVE",
"575 533 CURVE SMOOTH",
"575 535 LINE SMOOTH",
"575 631 OFFCURVE",
"514 700 OFFCURVE",
"393 700 CURVE SMOOTH",
"117 700 LINE",
"117 622 LINE",
"183 622 LINE",
"68 78 LINE",
"2 78 LINE",
"2 0 LINE"
);
},
{
closed = 1;
nodes = (
"319 312 LINE SMOOTH",
"386 312 OFFCURVE",
"428 277 OFFCURVE",
"428 216 CURVE SMOOTH",
"428 214 LINE SMOOTH",
"427 134 OFFCURVE",
"355 78 OFFCURVE",
"267 78 CURVE SMOOTH",
"152 78 LINE",
"201 312 LINE"
);
},
{
closed = 1;
nodes = (
"382 622 LINE SMOOTH",
"452 622 OFFCURVE",
"493 587 OFFCURVE",
"493 532 CURVE SMOOTH",
"493 530 LINE SMOOTH",
"492 441 OFFCURVE",
"416 390 OFFCURVE",
"336 390 CURVE SMOOTH",
"218 390 LINE",
"267 622 LINE"
);
}
);
width = 612;
},
{
layerId = "612FA678-EA3C-4672-88DD-29ED08259473";
paths = (
{
closed = 1;
nodes = (
"274 0 LINE SMOOTH",
"418 0 OFFCURVE",
"522 93 OFFCURVE",
"522 210 CURVE SMOOTH",
"522 212 LINE SMOOTH",
"521 285 OFFCURVE",
"485 324 OFFCURVE",
"432 340 CURVE",
"432 358 LINE",
"518 379 OFFCURVE",
"590 436 OFFCURVE",
"591 535 CURVE SMOOTH",
"591 537 LINE SMOOTH",
"591 628 OFFCURVE",
"530 700 OFFCURVE",
"396 700 CURVE SMOOTH",
"97 700 LINE",
"97 574 LINE",
"163 574 LINE",
"68 126 LINE",
"2 126 LINE",
"2 0 LINE"
);
},
{
closed = 1;
nodes = (
"318 288 LINE SMOOTH",
"367 288 OFFCURVE",
"398 268 OFFCURVE",
"398 219 CURVE SMOOTH",
"398 217 LINE SMOOTH",
"397 158 OFFCURVE",
"348 126 OFFCURVE",
"284 126 CURVE SMOOTH",
"198 126 LINE",
"232 288 LINE"
);
},
{
closed = 1;
nodes = (
"379 574 LINE SMOOTH",
"428 574 OFFCURVE",
"458 551 OFFCURVE",
"458 507 CURVE SMOOTH",
"458 505 LINE SMOOTH",
"457 445 OFFCURVE",
"413 414 OFFCURVE",
"345 414 CURVE SMOOTH",
"259 414 LINE",
"293 574 LINE"
);
}
);
width = 612;
}
);
unicode = 0042;
userData = {
com.typemytype.robofont.guides = (
{
angle = 0;
isGlobal = 0;
magnetic = 5;
x = 0;
y = 350;
},
{
angle = 0;
isGlobal = 0;
magnetic = 5;
x = 0;
y = 506;
},
{
angle = 0;
isGlobal = 0;
magnetic = 5;
x = 0;
y = 195;
}
);
};
},
{
glyphname = C;
lastChange = "2018-09-16 21:49:09 +0000";
layers = (
{
layerId = "FBAFFF81-1F8B-4B58-9158-C4AF3F48F88C";
paths = (
{
closed = 1;
nodes = (
"202 64 OFFCURVE",
"148 142 OFFCURVE",
"148 278 CURVE SMOOTH",
"148 297 OFFCURVE",
"148 315 OFFCURVE",
"148 334 CURVE SMOOTH",
"148 422 LINE SMOOTH",
"148 550 OFFCURVE",
"202 636 OFFCURVE",
"310 636 CURVE SMOOTH",
"424 636 OFFCURVE",
"472 552 OFFCURVE",
"472 460 CURVE SMOOTH",
"472 459 OFFCURVE",
"472 458 OFFCURVE",
"472 449 CURVE SMOOTH",
"472 448 LINE",
"556 448 LINE",
"556 449 LINE SMOOTH",
"556 458 OFFCURVE",
"556 459 OFFCURVE",
"556 460 CURVE SMOOTH",
"556 602 OFFCURVE",
"470 714 OFFCURVE",
"310 714 CURVE SMOOTH",
"156 714 OFFCURVE",
"64 608 OFFCURVE",
"64 428 CURVE SMOOTH",
"64 330 LINE SMOOTH",
"64 312 OFFCURVE",
"64 290 OFFCURVE",
"64 272 CURVE SMOOTH",
"64 86 OFFCURVE",
"156 -14 OFFCURVE",
"310 -14 CURVE SMOOTH",
"470 -14 OFFCURVE",
"556 98 OFFCURVE",
"556 240 CURVE SMOOTH",
"556 252 LINE",
"472 252 LINE",
"472 240 LINE SMOOTH",
"472 148 OFFCURVE",
"424 64 OFFCURVE",
"310 64 CURVE SMOOTH"
);
}
);
width = 612;
},
{
layerId = "50C9B437-FF28-4DF4-B0E6-290519DD406F";
paths = (
{
closed = 1;
nodes = (
"214 106 OFFCURVE",
"180 171 OFFCURVE",
"180 262 CURVE SMOOTH",
"180 282 OFFCURVE",
"180 301 OFFCURVE",
"180 321 CURVE SMOOTH",
"180 438 LINE SMOOTH",
"180 522 OFFCURVE",
"220 594 OFFCURVE",
"308 594 CURVE SMOOTH",
"404 594 OFFCURVE",
"432 520 OFFCURVE",
"432 454 CURVE SMOOTH",
"432 450 OFFCURVE",
"432 448 OFFCURVE",
"432 437 CURVE SMOOTH",
"432 436 LINE",
"564 436 LINE",
"564 437 LINE SMOOTH",
"564 448 OFFCURVE",
"564 450 OFFCURVE",
"564 454 CURVE SMOOTH",
"564 614 OFFCURVE",
"474 714 OFFCURVE",
"308 714 CURVE SMOOTH",
"148 714 OFFCURVE",
"48 608 OFFCURVE",
"48 428 CURVE SMOOTH",
"48 330 LINE SMOOTH",
"48 311 OFFCURVE",
"48 291 OFFCURVE",
"48 272 CURVE SMOOTH",
"48 86 OFFCURVE",
"148 -14 OFFCURVE",
"308 -14 CURVE SMOOTH",
"474 -14 OFFCURVE",
"564 80 OFFCURVE",
"564 246 CURVE SMOOTH",
"564 264 LINE",
"432 264 LINE",
"432 246 LINE SMOOTH",
"432 174 OFFCURVE",
"410 106 OFFCURVE",
"308 106 CURVE SMOOTH"
);
}
);
width = 612;
},
{
layerId = "6008D70E-46A9-43E5-86AA-D196D19196A4";
paths = (
{
closed = 1;
nodes = (
"162 64 OFFCURVE",
"123 108 OFFCURVE",
"123 197 CURVE SMOOTH",
"123 221 OFFCURVE",
"127 248 OFFCURVE",
"133 278 CURVE SMOOTH",
"164 422 LINE SMOOTH",
"191 550 OFFCURVE",
"263 638 OFFCURVE",
"369 638 CURVE SMOOTH",
"459 638 OFFCURVE",
"498 592 OFFCURVE",
"498 522 CURVE SMOOTH",
"498 503 OFFCURVE",
"496 485 OFFCURVE",
"490 460 CURVE SMOOTH",
"487 448 LINE",
"571 448 LINE",
"574 460 LINE SMOOTH",
"580 484 OFFCURVE",
"583 506 OFFCURVE",
"583 528 CURVE SMOOTH",
"583 636 OFFCURVE",
"510 714 OFFCURVE",
"382 714 CURVE SMOOTH",
"220 714 OFFCURVE",
"121 616 OFFCURVE",
"81 428 CURVE SMOOTH",
"48 272 LINE SMOOTH",
"41 238 OFFCURVE",
"38 206 OFFCURVE",
"38 178 CURVE SMOOTH",
"38 64 OFFCURVE",
"108 -14 OFFCURVE",
"238 -14 CURVE SMOOTH",
"414 -14 OFFCURVE",
"487 79 OFFCURVE",
"527 240 CURVE SMOOTH",
"530 252 LINE",
"446 252 LINE",
"443 240 LINE SMOOTH",
"417 136 OFFCURVE",
"364 64 OFFCURVE",
"248 64 CURVE SMOOTH"
);
}
);
width = 612;
},
{
layerId = "612FA678-EA3C-4672-88DD-29ED08259473";
paths = (
{
closed = 1;
nodes = (
"182 106 OFFCURVE",
"153 145 OFFCURVE",
"153 205 CURVE SMOOTH",
"153 222 OFFCURVE",
"156 242 OFFCURVE",
"160 262 CURVE SMOOTH",
"197 438 LINE SMOOTH",
"215 522 OFFCURVE",
"270 594 OFFCURVE",
"358 594 CURVE SMOOTH",
"433 594 OFFCURVE",
"459 552 OFFCURVE",
"459 500 CURVE SMOOTH",
"459 485 OFFCURVE",
"457 470 OFFCURVE",
"453 454 CURVE SMOOTH",
"449 436 LINE",
"581 436 LINE",
"585 454 LINE SMOOTH",
"589 474 OFFCURVE",
"592 492 OFFCURVE",
"592 511 CURVE SMOOTH",
"592 624 OFFCURVE",
"513 714 OFFCURVE",
"379 714 CURVE SMOOTH",
"211 714 OFFCURVE",
"104 620 OFFCURVE",
"63 428 CURVE SMOOTH",
"30 272 LINE SMOOTH",
"24 242 OFFCURVE",
"21 219 OFFCURVE",
"21 195 CURVE SMOOTH",
"21 63 OFFCURVE",
"107 -14 OFFCURVE",
"233 -14 CURVE SMOOTH",
"417 -14 OFFCURVE",
"502 73 OFFCURVE",
"540 246 CURVE SMOOTH",
"544 264 LINE",
"412 264 LINE",
"408 246 LINE SMOOTH",
"392 176 OFFCURVE",
"355 106 OFFCURVE",
"255 106 CURVE SMOOTH"
);
}
);
width = 612;
}
);
unicode = 0043;
},
{
glyphname = D;
lastChange = "2018-09-16 21:49:09 +0000";
layers = (
{
layerId = "FBAFFF81-1F8B-4B58-9158-C4AF3F48F88C";
paths = (
{
closed = 1;
nodes = (
"133 622 LINE",
"133 79 LINE",
"73 79 LINE",
"73 0 LINE",
"303 0 LINE SMOOTH",
"475 0 OFFCURVE",
"553 80 OFFCURVE",
"553 260 CURVE SMOOTH",
"553 394 LINE SMOOTH",
"553 411 OFFCURVE",
"553 426 OFFCURVE",
"553 440 CURVE SMOOTH",
"553 620 OFFCURVE",
"475 700 OFFCURVE",
"303 700 CURVE SMOOTH",
"73 700 LINE",
"73 622 LINE"
);
},
{
closed = 1;
nodes = (
"217 78 LINE",
"217 622 LINE",
"291 622 LINE SMOOTH",
"413 622 OFFCURVE",
"469 580 OFFCURVE",
"469 434 CURVE SMOOTH",
"469 420 OFFCURVE",
"469 406 OFFCURVE",
"469 388 CURVE SMOOTH",
"469 266 LINE SMOOTH",
"469 120 OFFCURVE",
"413 78 OFFCURVE",
"291 78 CURVE"
);
}
);
width = 612;
},
{
layerId = "50C9B437-FF28-4DF4-B0E6-290519DD406F";
paths = (
{
closed = 1;
nodes = (
"112 574 LINE",
"112 127 LINE",
"46 127 LINE",
"46 0 LINE",
"300 0 LINE SMOOTH",
"472 0 OFFCURVE",
"556 80 OFFCURVE",
"556 248 CURVE SMOOTH",
"556 386 LINE SMOOTH",
"556 408 OFFCURVE",
"556 430 OFFCURVE",
"556 452 CURVE SMOOTH",
"556 620 OFFCURVE",
"472 700 OFFCURVE",
"300 700 CURVE SMOOTH",
"46 700 LINE",
"46 574 LINE"
);
},
{
closed = 1;
nodes = (
"244 126 LINE",
"244 574 LINE",
"300 574 LINE SMOOTH",
"392 574 OFFCURVE",
"424 532 OFFCURVE",
"424 452 CURVE SMOOTH",
"424 430 OFFCURVE",
"424 408 OFFCURVE",
"424 386 CURVE SMOOTH",
"424 260 LINE SMOOTH",
"424 168 OFFCURVE",
"392 126 OFFCURVE",
"300 126 CURVE"
);
}
);
width = 612;
},
{
layerId = "6008D70E-46A9-43E5-86AA-D196D19196A4";
paths = (
{
closed = 1;
nodes = (
"181 622 LINE",
"66 78 LINE",
"0 78 LINE",
"0 0 LINE",
"227 0 LINE SMOOTH",
"417 0 OFFCURVE",
"483 70 OFFCURVE",
"524 260 CURVE SMOOTH",
"562 434 LINE SMOOTH",
"568 463 OFFCURVE",
"572 490 OFFCURVE",
"572 515 CURVE SMOOTH",
"572 634 OFFCURVE",
"499 700 OFFCURVE",
"358 700 CURVE SMOOTH",
"115 700 LINE",
"115 622 LINE"
);
},
{
closed = 1;
nodes = (
"150 78 LINE",
"265 622 LINE",
"341 622 LINE SMOOTH",
"438 622 OFFCURVE",
"486 595 OFFCURVE",
"486 510 CURVE SMOOTH",
"486 489 OFFCURVE",
"484 468 OFFCURVE",
"477 434 CURVE SMOOTH",
"442 266 LINE SMOOTH",
"412 120 OFFCURVE",
"350 78 OFFCURVE",
"226 78 CURVE"
);
}
);
width = 612;
},
{
layerId = "612FA678-EA3C-4672-88DD-29ED08259473";
paths = (
{
closed = 1;
nodes = (
"169 574 LINE",
"74 126 LINE",
"2 126 LINE",
"2 0 LINE",
"223 0 LINE SMOOTH",
"404 0 OFFCURVE",
"495 72 OFFCURVE",
"531 242 CURVE SMOOTH",
"575 452 LINE SMOOTH",
"579 473 OFFCURVE",
"582 493 OFFCURVE",
"582 512 CURVE SMOOTH",
"582 625 OFFCURVE",
"503 700 OFFCURVE",
"368 700 CURVE SMOOTH",
"103 700 LINE",
"103 574 LINE"
);
},
{
closed = 1;
nodes = (
"206 126 LINE",
"301 574 LINE",
"345 574 LINE SMOOTH",
"415 574 OFFCURVE",
"448 544 OFFCURVE",
"448 490 CURVE SMOOTH",
"448 478 OFFCURVE",
"445 462 OFFCURVE",
"443 452 CURVE SMOOTH",
"402 260 LINE SMOOTH",
"383 168 OFFCURVE",
"342 126 OFFCURVE",
"250 126 CURVE"
);
}
);
width = 612;
}
);
unicode = 0044;
},
{
glyphname = E;
lastChange = "2018-09-16 21:49:09 +0000";
layers = (
{
layerId = "FBAFFF81-1F8B-4B58-9158-C4AF3F48F88C";
paths = (
{
closed = 1;
nodes = (
"524 0 LINE",
"524 78 LINE",
"178 78 LINE",
"178 312 LINE",
"512 312 LINE",
"512 390 LINE",
"178 390 LINE",
"178 622 LINE",
"518 622 LINE",
"518 700 LINE",
"94 700 LINE",
"94 2 LINE",
"94 0 LINE"
);
}
);
width = 612;
},
{
layerId = "50C9B437-FF28-4DF4-B0E6-290519DD406F";
paths = (
{
closed = 1;
nodes = (
"536 0 LINE",
"536 126 LINE",
"214 126 LINE",
"214 288 LINE",
"512 288 LINE",
"512 414 LINE",
"214 414 LINE",
"214 574 LINE",
"524 574 LINE",
"524 700 LINE",
"82 700 LINE",
"82 12 LINE",
"82 0 LINE"
);
}
);
width = 612;
},
{
layerId = "6008D70E-46A9-43E5-86AA-D196D19196A4";
paths = (
{
closed = 1;
nodes = (
"446 0 LINE",
"446 78 LINE",
"129 78 LINE",
"178 312 LINE",
"500 312 LINE",
"500 390 LINE",
"195 390 LINE",
"244 622 LINE",
"572 622 LINE",
"572 700 LINE",
"177 700 LINE",
"28 2 LINE",
"28 0 LINE"
);
}
);
width = 612;
},
{
layerId = "612FA678-EA3C-4672-88DD-29ED08259473";
paths = (
{
closed = 1;
nodes = (
"469 0 LINE",
"469 126 LINE",
"174 126 LINE",
"208 288 LINE",
"506 288 LINE",
"506 414 LINE",
"235 414 LINE",
"269 574 LINE",
"579 574 LINE",
"579 700 LINE",
"164 700 LINE",
"18 12 LINE",
"18 0 LINE"
);
}
);
width = 612;
}
);
unicode = 0045;
},
{
glyphname = F;
lastChange = "2018-09-16 21:49:09 +0000";
layers = (
{
layerId = "FBAFFF81-1F8B-4B58-9158-C4AF3F48F88C";
paths = (
{
closed = 1;
nodes = (
"179 0 LINE",
"179 312 LINE",
"519 312 LINE",
"519 390 LINE",
"179 390 LINE",
"179 622 LINE",
"525 622 LINE",
"525 700 LINE",
"95 700 LINE",
"95 0 LINE"
);
}
);
width = 612;
},
{
layerId = "50C9B437-FF28-4DF4-B0E6-290519DD406F";
paths = (
{
closed = 1;
nodes = (
"220 0 LINE",
"220 288 LINE",
"530 288 LINE",
"530 414 LINE",
"220 414 LINE",
"220 574 LINE",
"536 574 LINE",
"536 700 LINE",
"88 700 LINE",
"88 0 LINE"
);
}
);
width = 612;
},
{
layerId = "6008D70E-46A9-43E5-86AA-D196D19196A4";
paths = (
{
closed = 1;
nodes = (
"109 0 LINE",
"175 312 LINE",
"503 312 LINE",
"503 390 LINE",
"192 390 LINE",
"241 622 LINE",
"575 622 LINE",
"575 700 LINE",
"174 700 LINE",
"25 0 LINE"
);
}
);
width = 612;
},
{
layerId = "612FA678-EA3C-4672-88DD-29ED08259473";
paths = (
{
closed = 1;
nodes = (
"148 0 LINE",
"209 288 LINE",
"519 288 LINE",
"519 414 LINE",
"236 414 LINE",
"270 574 LINE",
"586 574 LINE",
"586 700 LINE",
"165 700 LINE",
"16 0 LINE"
);
}
);
width = 612;
}
);
unicode = 0046;
},
{
glyphname = G;
lastChange = "2018-09-16 21:49:09 +0000";
layers = (
{
layerId = "FBAFFF81-1F8B-4B58-9158-C4AF3F48F88C";
paths = (
{
closed = 1;
nodes = (
"377 -14 OFFCURVE",
"439 26 OFFCURVE",
"461 84 CURVE",
"473 84 LINE",
"473 0 LINE",
"551 0 LINE",
"551 334 LINE",
"551 336 LINE",
"239 336 LINE",
"239 258 LINE",
"467 258 LINE",
"467 246 LINE SMOOTH",
"467 132 OFFCURVE",
"406 64 OFFCURVE",
"307 64 CURVE SMOOTH",
"197 64 OFFCURVE",
"143 142 OFFCURVE",
"143 278 CURVE SMOOTH",
"143 294 OFFCURVE",
"143 310 OFFCURVE",
"143 326 CURVE SMOOTH",
"143 422 LINE SMOOTH",
"143 550 OFFCURVE",
"197 636 OFFCURVE",
"305 636 CURVE SMOOTH",
"419 636 OFFCURVE",
"467 552 OFFCURVE",
"467 460 CURVE SMOOTH",
"467 458 OFFCURVE",
"467 457 OFFCURVE",
"467 449 CURVE SMOOTH",
"467 448 LINE",
"551 448 LINE",
"551 449 LINE SMOOTH",
"551 457 OFFCURVE",
"551 458 OFFCURVE",
"551 460 CURVE SMOOTH",
"551 602 OFFCURVE",
"465 714 OFFCURVE",
"305 714 CURVE SMOOTH",
"151 714 OFFCURVE",
"59 608 OFFCURVE",
"59 428 CURVE SMOOTH",
"59 319 LINE SMOOTH",
"59 303 OFFCURVE",
"59 288 OFFCURVE",
"59 272 CURVE SMOOTH",
"59 86 OFFCURVE",
"151 -14 OFFCURVE",
"301 -14 CURVE SMOOTH"
);
}
);
width = 612;
},
{
layerId = "50C9B437-FF28-4DF4-B0E6-290519DD406F";
paths = (
{
closed = 1;
nodes = (
"364 -14 OFFCURVE",
"406 26 OFFCURVE",
"422 78 CURVE",
"440 78 LINE",
"440 0 LINE",
"560 0 LINE",
"560 342 LINE",
"560 354 LINE",
"260 354 LINE",
"260 228 LINE",
"428 228 LINE",
"428 218 LINE SMOOTH",
"427 157 OFFCURVE",
"385 112 OFFCURVE",
"308 112 CURVE SMOOTH",
"220 112 OFFCURVE",
"176 166 OFFCURVE",
"176 274 CURVE SMOOTH",
"176 293 OFFCURVE",
"176 312 OFFCURVE",
"176 331 CURVE SMOOTH",
"176 422 LINE SMOOTH",
"176 544 OFFCURVE",
"230 588 OFFCURVE",
"304 588 CURVE SMOOTH",
"382 588 OFFCURVE",
"428 544 OFFCURVE",
"428 460 CURVE SMOOTH",
"428 456 OFFCURVE",
"428 453 OFFCURVE",
"428 449 CURVE SMOOTH",
"428 448 LINE",
"560 448 LINE",
"560 449 LINE SMOOTH",
"560 453 OFFCURVE",
"560 456 OFFCURVE",
"560 460 CURVE SMOOTH",
"560 602 OFFCURVE",
"466 714 OFFCURVE",
"306 714 CURVE SMOOTH",
"152 714 OFFCURVE",
"44 614 OFFCURVE",
"44 432 CURVE SMOOTH",
"44 320 LINE SMOOTH",
"44 303 OFFCURVE",
"44 285 OFFCURVE",
"44 268 CURVE SMOOTH",
"44 82 OFFCURVE",
"146 -14 OFFCURVE",
"274 -14 CURVE SMOOTH"
);
}
);
width = 612;
},
{
layerId = "6008D70E-46A9-43E5-86AA-D196D19196A4";
paths = (
{
closed = 1;
nodes = (
"304 -14 OFFCURVE",
"370 26 OFFCURVE",
"404 84 CURVE",
"416 84 LINE",
"396 0 LINE",
"476 0 LINE",
"548 334 LINE",
"548 336 LINE",
"242 336 LINE",
"242 258 LINE",
"449 258 LINE",
"443 234 LINE SMOOTH",
"417 131 OFFCURVE",
"346 62 OFFCURVE",
"245 62 CURVE SMOOTH",
"159 62 OFFCURVE",
"118 111 OFFCURVE",
"118 198 CURVE SMOOTH",
"118 222 OFFCURVE",
"121 248 OFFCURVE",
"127 278 CURVE SMOOTH",
"158 422 LINE SMOOTH",
"185 550 OFFCURVE",
"258 638 OFFCURVE",
"366 638 CURVE SMOOTH",
"457 638 OFFCURVE",
"497 587 OFFCURVE",
"497 516 CURVE SMOOTH",
"497 498 OFFCURVE",
"495 480 OFFCURVE",
"490 460 CURVE SMOOTH",
"487 448 LINE",
"571 448 LINE",
"574 460 LINE SMOOTH",
"579 480 OFFCURVE",
"581 497 OFFCURVE",
"581 520 CURVE SMOOTH",
"581 632 OFFCURVE",
"508 714 OFFCURVE",
"380 714 CURVE SMOOTH",
"218 714 OFFCURVE",
"114 614 OFFCURVE",
"75 428 CURVE SMOOTH",
"42 272 LINE SMOOTH",
"34 236 OFFCURVE",
"32 210 OFFCURVE",
"32 183 CURVE SMOOTH",
"32 54 OFFCURVE",
"111 -14 OFFCURVE",
"223 -14 CURVE SMOOTH"
);
}
);
width = 612;
},
{
layerId = "612FA678-EA3C-4672-88DD-29ED08259473";
paths = (
{
closed = 1;
nodes = (
"290 -14 OFFCURVE",
"342 26 OFFCURVE",
"368 78 CURVE",
"386 78 LINE",
"369 0 LINE",
"489 0 LINE",
"561 342 LINE",
"561 354 LINE",
"252 354 LINE",
"252 228 LINE",
"406 228 LINE",
"402 213 LINE SMOOTH",
"385 150 OFFCURVE",
"333 112 OFFCURVE",
"261 112 CURVE SMOOTH",
"197 112 OFFCURVE",
"157 148 OFFCURVE",
"157 220 CURVE SMOOTH",
"157 236 OFFCURVE",
"158 250 OFFCURVE",
"163 274 CURVE SMOOTH",
"195 422 LINE SMOOTH",
"221 544 OFFCURVE",
"284 588 OFFCURVE",
"358 588 CURVE SMOOTH",
"424 588 OFFCURVE",
"460 554 OFFCURVE",
"460 499 CURVE SMOOTH",
"460 487 OFFCURVE",
"459 476 OFFCURVE",
"455 460 CURVE SMOOTH",
"452 448 LINE",
"584 448 LINE",
"587 460 LINE SMOOTH",
"591 477 OFFCURVE",
"594 499 OFFCURVE",
"594 518 CURVE SMOOTH",
"594 625 OFFCURVE",
"516 714 OFFCURVE",
"382 714 CURVE SMOOTH",
"214 714 OFFCURVE",
"106 624 OFFCURVE",
"65 432 CURVE SMOOTH",
"30 268 LINE SMOOTH",
"23 235 OFFCURVE",
"20 208 OFFCURVE",
"20 182 CURVE SMOOTH",
"20 54 OFFCURVE",
"95 -14 OFFCURVE",
"200 -14 CURVE SMOOTH"
);
}
);
width = 612;
}
);
unicode = 0047;
},
{
glyphname = H;
lastChange = "2018-09-16 21:49:09 +0000";
layers = (
{
layerId = "FBAFFF81-1F8B-4B58-9158-C4AF3F48F88C";
paths = (
{
closed = 1;
nodes = (
"157 0 LINE",
"157 312 LINE",
"455 312 LINE",
"455 0 LINE",
"539 0 LINE",
"539 700 LINE",
"455 700 LINE",
"455 390 LINE",
"157 390 LINE",
"157 700 LINE",
"73 700 LINE",
"73 0 LINE"
);
}
);
width = 612;
},
{
layerId = "50C9B437-FF28-4DF4-B0E6-290519DD406F";
paths = (
{
closed = 1;
nodes = (
"193 0 LINE",
"193 288 LINE",
"419 288 LINE",
"419 0 LINE",
"551 0 LINE",
"551 700 LINE",
"419 700 LINE",
"419 414 LINE",
"193 414 LINE",
"193 700 LINE",
"61 700 LINE",
"61 0 LINE"
);
}
);
width = 612;
},
{
layerId = "6008D70E-46A9-43E5-86AA-D196D19196A4";
paths = (
{
closed = 1;
nodes = (
"93 0 LINE",
"159 312 LINE",
"435 312 LINE",
"369 0 LINE",
"455 0 LINE",
"604 700 LINE",
"518 700 LINE",
"452 390 LINE",
"176 390 LINE",
"242 700 LINE",
"156 700 LINE",
"8 0 LINE"
);
}
);
width = 612;
},
{
layerId = "612FA678-EA3C-4672-88DD-29ED08259473";
paths = (
{
closed = 1;
nodes = (
"131 0 LINE",
"192 288 LINE",
"392 288 LINE",
"331 0 LINE",
"463 0 LINE",
"612 700 LINE",
"480 700 LINE",
"419 414 LINE",
"219 414 LINE",
"280 700 LINE",
"148 700 LINE",
"0 0 LINE"
);
}
);
width = 612;
}
);
unicode = 0048;
userData = {
com.typemytype.robofont.guides = (
{
angle = 0;
isGlobal = 0;
magnetic = 5;
x = 0;
y = 350;
}
);
};
},
{
glyphname = I;
lastChange = "2018-09-16 21:49:09 +0000";
layers = (
{
layerId = "FBAFFF81-1F8B-4B58-9158-C4AF3F48F88C";
paths = (
{
closed = 1;
nodes = (
"264 622 LINE",
"264 78 LINE",
"84 78 LINE",
"84 0 LINE",
"528 0 LINE",
"528 78 LINE",
"348 78 LINE",
"348 622 LINE",
"528 622 LINE",
"528 700 LINE",
"84 700 LINE",
"84 622 LINE"
);
}
);
width = 612;
},
{
layerId = "50C9B437-FF28-4DF4-B0E6-290519DD406F";
paths = (
{
closed = 1;
nodes = (
"240 574 LINE",
"240 126 LINE",
"72 126 LINE",
"72 0 LINE",
"540 0 LINE",
"540 126 LINE",
"372 126 LINE",
"372 574 LINE",
"540 574 LINE",
"540 700 LINE",
"72 700 LINE",
"72 574 LINE"
);
}
);
width = 612;
},
{
layerId = "6008D70E-46A9-43E5-86AA-D196D19196A4";
paths = (
{
closed = 1;
nodes = (
"321 622 LINE",
"206 78 LINE",
"32 78 LINE",
"32 0 LINE",
"464 0 LINE",
"464 78 LINE",
"290 78 LINE",
"405 622 LINE",
"579 622 LINE",
"579 700 LINE",
"147 700 LINE",
"147 622 LINE"
);
}
);
width = 612;
},
{
layerId = "612FA678-EA3C-4672-88DD-29ED08259473";
paths = (
{
closed = 1;
nodes = (
"287 574 LINE",
"192 126 LINE",
"30 126 LINE",
"30 0 LINE",
"486 0 LINE",
"486 126 LINE",
"324 126 LINE",
"419 574 LINE",
"581 574 LINE",
"581 700 LINE",
"125 700 LINE",
"125 574 LINE"
);
}
);
width = 612;
}
);
unicode = 0049;
},
{
glyphname = J;
lastChange = "2018-09-16 21:49:09 +0000";
layers = (
{
layerId = "FBAFFF81-1F8B-4B58-9158-C4AF3F48F88C";
paths = (
{
closed = 1;
nodes = (
"431 -14 OFFCURVE",
"505 66 OFFCURVE",
"505 210 CURVE",
"505 622 LINE",
"565 622 LINE",
"565 700 LINE",
"349 700 LINE",
"349 622 LINE",
"421 622 LINE",
"421 210 LINE SMOOTH",
"421 122 OFFCURVE",
"388 64 OFFCURVE",
"295 64 CURVE SMOOTH",
"202 64 OFFCURVE",
"157 122 OFFCURVE",
"157 210 CURVE SMOOTH",
"157 221 OFFCURVE",
"157 230 OFFCURVE",
"157 241 CURVE SMOOTH",
"157 264 LINE",
"73 264 LINE",
"73 244 LINE SMOOTH",
"73 232 OFFCURVE",
"73 222 OFFCURVE",
"73 210 CURVE SMOOTH",
"73 66 OFFCURVE",
"159 -14 OFFCURVE",
"295 -14 CURVE SMOOTH"
);
}
);
width = 612;
},
{
layerId = "50C9B437-FF28-4DF4-B0E6-290519DD406F";
paths = (
{
closed = 1;
nodes = (
"432 -14 OFFCURVE",
"517 66 OFFCURVE",
"517 210 CURVE SMOOTH",
"517 576 LINE",
"577 576 LINE",
"577 700 LINE",
"313 700 LINE",
"313 576 LINE",
"385 576 LINE",
"385 210 LINE SMOOTH",
"385 146 OFFCURVE",
"350 110 OFFCURVE",
"292 110 CURVE SMOOTH",
"230 110 OFFCURVE",
"193 148 OFFCURVE",
"193 210 CURVE SMOOTH",
"193 229 OFFCURVE",
"193 237 OFFCURVE",
"193 258 CURVE SMOOTH",
"193 276 LINE",
"61 276 LINE",
"61 259 LINE SMOOTH",
"61 240 OFFCURVE",
"61 225 OFFCURVE",
"61 210 CURVE SMOOTH",
"61 64 OFFCURVE",
"156 -14 OFFCURVE",
"296 -14 CURVE SMOOTH"
);
}
);
width = 612;
},
{
layerId = "6008D70E-46A9-43E5-86AA-D196D19196A4";
paths = (
{
closed = 1;
nodes = (
"366 -14 OFFCURVE",
"437 68 OFFCURVE",
"467 206 CURVE SMOOTH",
"556 622 LINE",
"622 622 LINE",
"622 700 LINE",
"394 700 LINE",
"394 622 LINE",
"472 622 LINE",
"384 210 LINE SMOOTH",
"366 124 OFFCURVE",
"320 64 OFFCURVE",
"227 64 CURVE SMOOTH",
"150 64 OFFCURVE",
"114 97 OFFCURVE",
"114 160 CURVE SMOOTH",
"114 175 OFFCURVE",
"116 192 OFFCURVE",
"120 210 CURVE SMOOTH",
"132 264 LINE",
"48 264 LINE",
"36 210 LINE SMOOTH",
"32 191 OFFCURVE",
"30 172 OFFCURVE",
"30 155 CURVE SMOOTH",
"30 53 OFFCURVE",
"100 -14 OFFCURVE",
"216 -14 CURVE SMOOTH"
);
}
);
width = 612;
},
{
layerId = "612FA678-EA3C-4672-88DD-29ED08259473";
paths = (
{
closed = 1;
nodes = (
"363 -14 OFFCURVE",
"442 52 OFFCURVE",
"476 210 CURVE SMOOTH",
"554 576 LINE",
"621 576 LINE",
"621 700 LINE",
"347 700 LINE",
"347 576 LINE",
"422 576 LINE",
"344 210 LINE SMOOTH",
"331 146 OFFCURVE",
"290 110 OFFCURVE",
"233 110 CURVE SMOOTH",
"182 110 OFFCURVE",
"155 136 OFFCURVE",
"155 181 CURVE SMOOTH",
"155 190 OFFCURVE",
"156 201 OFFCURVE",
"158 210 CURVE SMOOTH",
"172 276 LINE",
"40 276 LINE",
"30 229 LINE SMOOTH",
"25 207 OFFCURVE",
"23 186 OFFCURVE",
"23 167 CURVE SMOOTH",
"23 51 OFFCURVE",
"104 -14 OFFCURVE",
"215 -14 CURVE SMOOTH"
);
}
);
width = 612;
}
);
unicode = 004A;
},
{
glyphname = K;
lastChange = "2018-09-16 21:49:09 +0000";
layers = (
{
layerId = "FBAFFF81-1F8B-4B58-9158-C4AF3F48F88C";
paths = (
{
closed = 1;
nodes = (
"196 312 LINE",
"475 0 LINE",
"581 0 LINE",
"581 6 LINE",
"279 344 LINE",
"279 356 LINE",
"569 694 LINE",
"569 700 LINE",
"465 700 LINE",
"196 390 LINE",
"173 390 LINE",
"173 700 LINE",
"89 700 LINE",
"89 0 LINE",
"173 0 LINE",
"173 312 LINE"
);
}
);
width = 612;
},
{
layerId = "50C9B437-FF28-4DF4-B0E6-290519DD406F";
paths = (
{
closed = 1;
nodes = (
"238 287 LINE",
"429 0 LINE",
"584 0 LINE",
"584 6 LINE",
"356 341 LINE",
"356 359 LINE",
"572 694 LINE",
"572 700 LINE",
"423 700 LINE",
"238 413 LINE",
"209 413 LINE",
"209 700 LINE",
"77 700 LINE",
"77 0 LINE",
"209 0 LINE",
"209 287 LINE"
);
}
);
width = 612;
},
{
layerId = "6008D70E-46A9-43E5-86AA-D196D19196A4";
paths = (
{
closed = 1;
nodes = (
"197 312 LINE",
"398 0 LINE",
"493 0 LINE",
"493 6 LINE",
"275 344 LINE",
"275 356 LINE",
"612 688 LINE",
"612 700 LINE",
"515 700 LINE",
"200 390 LINE",
"174 390 LINE",
"240 700 LINE",
"154 700 LINE",
"5 0 LINE",
"91 0 LINE",
"157 312 LINE"
);
}
);
width = 612;
},
{
layerId = "612FA678-EA3C-4672-88DD-29ED08259473";
paths = (
{
closed = 1;
nodes = (
"230 287 LINE",
"376 0 LINE",
"522 0 LINE",
"522 6 LINE",
"354 338 LINE",
"354 356 LINE",
"620 688 LINE",
"620 700 LINE",
"466 700 LINE",
"240 413 LINE",
"216 413 LINE",
"277 700 LINE",
"145 700 LINE",
"-4 0 LINE",
"128 0 LINE",
"188 287 LINE"
);
}
);
width = 612;
}
);
unicode = 004B;
userData = {
com.typemytype.robofont.guides = (
{
angle = 0;
isGlobal = 0;
magnetic = 5;
x = 0;
y = 356;
},
{
angle = 0;
isGlobal = 0;
magnetic = 5;
x = 0;
y = 344;
},
{
angle = 0;
isGlobal = 0;
magnetic = 5;
x = 0;
y = 359;
},
{
angle = 0;
isGlobal = 0;
magnetic = 5;
x = 0;
y = 341;
},
{
angle = 90;
isGlobal = 0;
magnetic = 5;
x = 185;
y = 0;
}
);
};
},
{
glyphname = L;
lastChange = "2018-09-16 21:49:09 +0000";
layers = (
{
layerId = "FBAFFF81-1F8B-4B58-9158-C4AF3F48F88C";
paths = (
{
closed = 1;
nodes = (
"537 0 LINE",
"537 78 LINE",
"171 78 LINE",
"171 700 LINE",
"87 700 LINE",
"87 2 LINE",
"87 0 LINE"
);
}
);
width = 612;
},
{
layerId = "50C9B437-FF28-4DF4-B0E6-290519DD406F";
paths = (
{
closed = 1;
nodes = (
"532 0 LINE",
"532 126 LINE",
"214 126 LINE",
"214 700 LINE",
"82 700 LINE",
"82 12 LINE",
"82 0 LINE"
);
}
);
width = 612;
},
{
layerId = "6008D70E-46A9-43E5-86AA-D196D19196A4";
paths = (
{
closed = 1;
nodes = (
"485 0 LINE",
"485 78 LINE",
"125 78 LINE",
"257 700 LINE",
"173 700 LINE",
"24 2 LINE",
"24 0 LINE"
);
}
);
width = 612;
},
{
layerId = "612FA678-EA3C-4672-88DD-29ED08259473";
paths = (
{
closed = 1;
nodes = (
"475 0 LINE",
"475 126 LINE",
"171 126 LINE",
"293 700 LINE",
"161 700 LINE",
"15 12 LINE",
"15 0 LINE"
);
}
);
width = 612;
}
);
unicode = 004C;
},
{
glyphname = M;
lastChange = "2018-09-21 14:48:49 +0000";
layers = (
{
layerId = "FBAFFF81-1F8B-4B58-9158-C4AF3F48F88C";
paths = (
{
closed = 1;
nodes = (
"124 0 LINE",
"124 466 LINE",
"124 664 LINE",
"136 664 LINE",
"230 0 LINE",
"382 0 LINE",
"476 664 LINE",
"488 664 LINE",
"488 466 LINE",
"488 0 LINE",
"566 0 LINE",
"566 700 LINE",
"406 700 LINE",
"324 121 LINE",
"312 36 LINE",
"300 36 LINE",
"288 121 LINE",
"206 700 LINE",
"46 700 LINE",
"46 0 LINE"
);
}
);
width = 612;
},
{
layerId = "50C9B437-FF28-4DF4-B0E6-290519DD406F";
paths = (
{
closed = 1;
nodes = (
"142 0 LINE",
"142 468 LINE",
"130 628 LINE",
"154 628 LINE",
"208 0 LINE",
"406 0 LINE",
"458 628 LINE",
"482 628 LINE",
"470 468 LINE",
"470 0 LINE",
"590 0 LINE",
"590 700 LINE",
"358 700 LINE",
"318 174 LINE",
"318 72 LINE",
"294 72 LINE",
"294 174 LINE",
"254 700 LINE",
"22 700 LINE",
"22 0 LINE"
);
}
);
width = 612;
},
{
layerId = "6008D70E-46A9-43E5-86AA-D196D19196A4";
paths = (
{
closed = 1;
nodes = (
"61 0 LINE",
"164 485 LINE",
"202 664 LINE",
"214 664 LINE",
"157 0 LINE",
"311 0 LINE",
"530 664 LINE",
"542 664 LINE",
"504 485 LINE",
"401 0 LINE",
"479 0 LINE",
"628 700 LINE",
"464 700 LINE",
"273 121 LINE",
"245 36 LINE",
"233 36 LINE",
"240 116 LINE",
"291 700 LINE",
"132 700 LINE",
"-16 0 LINE"
);
}
);
width = 612;
},
{
layerId = "612FA678-EA3C-4672-88DD-29ED08259473";
paths = (
{
closed = 1;
nodes = (
"79 0 LINE",
"179 466 LINE",
"199 616 LINE",
"223 616 LINE",
"144 0 LINE",
"323 0 LINE",
"502 616 LINE",
"526 616 LINE",
"481 460 LINE",
"383 0 LINE",
"497 0 LINE",
"646 700 LINE",
"426 700 LINE",
"286 204 LINE",
"260 84 LINE",
"236 84 LINE",
"260 198 LINE",
"328 700 LINE",
"114 700 LINE",
"-34 0 LINE"
);
}
);
width = 612;
},
{
associatedMasterId = "FBAFFF81-1F8B-4B58-9158-C4AF3F48F88C";
layerId = "733D2258-7347-4CA7-9F95-11E675B5D9B5";
name = "{84, 0, 0, 0, 0, 0}";
paths = (
{
closed = 1;
nodes = (
"177 0 LINE",
"177 466 LINE",
"177 664 LINE",
"189 664 LINE",
"383 0 LINE",
"535 0 LINE",
"729 664 LINE",
"741 664 LINE",
"741 466 LINE",
"741 0 LINE",
"819 0 LINE",
"819 700 LINE",
"659 700 LINE",
"477 77 LINE",
"465 36 LINE",
"453 36 LINE",
"441 77 LINE",
"259 700 LINE",
"99 700 LINE",
"99 0 LINE"
);
}
);
width = 918;
},
{
associatedMasterId = "6008D70E-46A9-43E5-86AA-D196D19196A4";
layerId = "318FF081-3E9C-4C69-A76E-29DC2ED67E07";
name = "{84, 1000, 0, 0, 0, 0}";
paths = (
{
closed = 1;
nodes = (
"111 0 LINE",
"214 485 LINE",
"252 664 LINE",
"264 664 LINE",
"307 0 LINE",
"461 0 LINE",
"780 664 LINE",
"792 664 LINE",
"754 485 LINE",
"651 0 LINE",
"729 0 LINE",
"878 700 LINE",
"714 700 LINE",
"423 106 LINE",
"395 36 LINE",
"383 36 LINE",
"379 103 LINE",
"341 700 LINE",
"182 700 LINE",
"34 0 LINE"
);
}
);
width = 918;
},
{
associatedMasterId = "50C9B437-FF28-4DF4-B0E6-290519DD406F";
layerId = "0C74BAB3-7DAA-4167-9A10-6663BE8A7B84";
name = "{132, 0, 0, 0, 0, 0}";
paths = (
{
closed = 1;
nodes = (
"195 0 LINE",
"195 477 LINE",
"183 628 LINE",
"207 628 LINE",
"361 0 LINE",
"559 0 LINE",
"711 628 LINE",
"735 628 LINE",
"723 477 LINE",
"723 0 LINE",
"843 0 LINE",
"843 700 LINE",
"601 700 LINE",
"481 174 LINE",
"471 72 LINE",
"447 72 LINE",
"437 174 LINE",
"317 700 LINE",
"75 700 LINE",
"75 0 LINE"
);
}
);
width = 918;
},
{
associatedMasterId = "612FA678-EA3C-4672-88DD-29ED08259473";
layerId = "FA57A6BE-E5BF-4BE2-8D50-D8A6416D6200";
name = "{132, 1000, 0, 0, 0, 0}";
paths = (
{
closed = 1;
nodes = (
"128 0 LINE",
"228 466 LINE",
"248 616 LINE",
"272 616 LINE",
"293 0 LINE",
"472 0 LINE",
"751 616 LINE",
"775 616 LINE",
"730 460 LINE",
"632 0 LINE",
"746 0 LINE",
"895 700 LINE",
"675 700 LINE",
"447 204 LINE",
"409 84 LINE",
"385 84 LINE",
"389 208 LINE",
"377 700 LINE",
"163 700 LINE",
"15 0 LINE"
);
}
);
width = 918;
}
);
unicode = 004D;
},
{
glyphname = N;
lastChange = "2018-09-16 21:49:09 +0000";
layers = (
{
layerId = "FBAFFF81-1F8B-4B58-9158-C4AF3F48F88C";
paths = (
{
closed = 1;
nodes = (
"73 700 LINE",
"73 0 LINE",
"157 0 LINE",
"157 664 LINE",
"169 664 LINE",
"371 0 LINE",
"539 0 LINE",
"539 700 LINE",
"455 700 LINE",
"455 36 LINE",
"443 36 LINE",
"241 700 LINE"
);
}
);
width = 612;
},
{
layerId = "50C9B437-FF28-4DF4-B0E6-290519DD406F";
paths = (
{
closed = 1;
nodes = (
"61 700 LINE",
"61 0 LINE",
"193 0 LINE",
"193 634 LINE",
"211 634 LINE",
"293 0 LINE",
"551 0 LINE",
"551 700 LINE",
"419 700 LINE",
"419 66 LINE",
"401 66 LINE",
"319 700 LINE"
);
}
);
width = 612;
},
{
layerId = "6008D70E-46A9-43E5-86AA-D196D19196A4";
paths = (
{
closed = 1;
nodes = (
"159 700 LINE",
"10 0 LINE",
"94 0 LINE",
"235 664 LINE",
"247 664 LINE",
"287 0 LINE",
"452 0 LINE",
"601 700 LINE",
"517 700 LINE",
"376 36 LINE",
"364 36 LINE",
"324 700 LINE"
);
}
);
width = 612;
},
{
layerId = "612FA678-EA3C-4672-88DD-29ED08259473";
paths = (
{
closed = 1;
nodes = (
"141 700 LINE",
"-7 0 LINE",
"118 0 LINE",
"253 634 LINE",
"271 634 LINE",
"224 0 LINE",
"470 0 LINE",
"619 700 LINE",
"493 700 LINE",
"358 66 LINE",
"340 66 LINE",
"387 700 LINE"
);
}
);
width = 612;
}
);
unicode = 004E;
},
{
glyphname = O;
lastChange = "2018-09-16 21:49:09 +0000";
layers = (
{
anchors = (
{
name = qtail;
position = "{306, 0}";
}
);
layerId = "FBAFFF81-1F8B-4B58-9158-C4AF3F48F88C";
paths = (
{
closed = 1;
nodes = (
"460 -14 OFFCURVE",
"552 86 OFFCURVE",
"552 272 CURVE SMOOTH",
"552 384 LINE SMOOTH",
"552 399 OFFCURVE",
"552 413 OFFCURVE",
"552 428 CURVE SMOOTH",
"552 608 OFFCURVE",
"460 714 OFFCURVE",
"306 714 CURVE SMOOTH",
"152 714 OFFCURVE",
"60 608 OFFCURVE",
"60 428 CURVE SMOOTH",
"60 316 LINE SMOOTH",
"60 301 OFFCURVE",
"60 287 OFFCURVE",
"60 272 CURVE SMOOTH",
"60 86 OFFCURVE",
"152 -14 OFFCURVE",
"306 -14 CURVE SMOOTH"
);
},
{
closed = 1;
nodes = (
"198 64 OFFCURVE",
"144 142 OFFCURVE",
"144 278 CURVE SMOOTH",
"144 293 OFFCURVE",
"144 309 OFFCURVE",
"144 324 CURVE SMOOTH",
"144 422 LINE SMOOTH",
"144 550 OFFCURVE",
"198 636 OFFCURVE",
"306 636 CURVE SMOOTH",
"414 636 OFFCURVE",
"468 550 OFFCURVE",
"468 422 CURVE SMOOTH",
"468 407 OFFCURVE",
"468 392 OFFCURVE",
"468 377 CURVE SMOOTH",
"468 278 LINE SMOOTH",
"468 142 OFFCURVE",
"414 64 OFFCURVE",
"306 64 CURVE"
);
}
);
width = 612;
},
{
anchors = (
{
name = qtail;
position = "{306, 0}";
}
);
layerId = "50C9B437-FF28-4DF4-B0E6-290519DD406F";
paths = (
{
closed = 1;
nodes = (
"466 -14 OFFCURVE",
"564 86 OFFCURVE",
"564 272 CURVE SMOOTH",
"564 371 LINE SMOOTH",
"564 390 OFFCURVE",
"564 409 OFFCURVE",
"564 428 CURVE SMOOTH",
"564 608 OFFCURVE",
"466 714 OFFCURVE",
"306 714 CURVE SMOOTH",
"146 714 OFFCURVE",
"48 608 OFFCURVE",
"48 428 CURVE",
"48 323 LINE SMOOTH",
"48 306 OFFCURVE",
"48 289 OFFCURVE",
"48 272 CURVE SMOOTH",
"48 86 OFFCURVE",
"146 -14 OFFCURVE",
"306 -14 CURVE SMOOTH"
);
},
{
closed = 1;
nodes = (
"210 106 OFFCURVE",
"180 170 OFFCURVE",
"180 264 CURVE SMOOTH",
"180 281 OFFCURVE",
"180 296 OFFCURVE",
"180 313 CURVE SMOOTH",
"180 436 LINE SMOOTH",
"180 524 OFFCURVE",
"216 594 OFFCURVE",
"306 594 CURVE SMOOTH",
"396 594 OFFCURVE",
"432 524 OFFCURVE",
"432 436 CURVE SMOOTH",
"432 417 OFFCURVE",
"432 400 OFFCURVE",
"432 381 CURVE SMOOTH",
"432 264 LINE SMOOTH",
"432 170 OFFCURVE",
"402 106 OFFCURVE",
"306 106 CURVE"
);
}
);
width = 612;
},
{
anchors = (
{
name = qtail;
position = "{239, 0}";
}
);
layerId = "6008D70E-46A9-43E5-86AA-D196D19196A4";
paths = (
{
closed = 1;
nodes = (
"400 -14 OFFCURVE",
"497 86 OFFCURVE",
"536 272 CURVE SMOOTH",
"567 417 LINE SMOOTH",
"574 448 OFFCURVE",
"577 478 OFFCURVE",
"577 505 CURVE SMOOTH",
"577 635 OFFCURVE",
"506 714 OFFCURVE",
"377 714 CURVE SMOOTH",
"213 714 OFFCURVE",
"116 614 OFFCURVE",
"77 428 CURVE SMOOTH",
"46 283 LINE SMOOTH",
"39 252 OFFCURVE",
"36 222 OFFCURVE",
"36 195 CURVE SMOOTH",
"36 65 OFFCURVE",
"107 -14 OFFCURVE",
"236 -14 CURVE SMOOTH"
);
},
{
closed = 1;
nodes = (
"163 62 OFFCURVE",
"120 116 OFFCURVE",
"120 202 CURVE SMOOTH",
"120 223 OFFCURVE",
"123 247 OFFCURVE",
"128 272 CURVE SMOOTH",
"160 422 LINE SMOOTH",
"188 553 OFFCURVE",
"255 638 OFFCURVE",
"365 638 CURVE SMOOTH",
"450 638 OFFCURVE",
"493 584 OFFCURVE",
"493 498 CURVE SMOOTH",
"493 477 OFFCURVE",
"490 453 OFFCURVE",
"485 428 CURVE SMOOTH",
"453 278 LINE SMOOTH",
"425 148 OFFCURVE",
"358 62 OFFCURVE",
"248 62 CURVE SMOOTH"
);
}
);
width = 612;
},
{
anchors = (
{
name = qtail;
position = "{248, 0}";
}
);
layerId = "612FA678-EA3C-4672-88DD-29ED08259473";
paths = (
{
closed = 1;
nodes = (
"413 -14 OFFCURVE",
"507 76 OFFCURVE",
"548 272 CURVE SMOOTH",
"581 428 LINE SMOOTH",
"586 451 OFFCURVE",
"588 474 OFFCURVE",
"588 496 CURVE SMOOTH",
"588 620 OFFCURVE",
"509 714 OFFCURVE",
"368 714 CURVE SMOOTH",
"200 714 OFFCURVE",
"106 624 OFFCURVE",
"65 428 CURVE SMOOTH",
"32 272 LINE SMOOTH",
"27 249 OFFCURVE",
"25 226 OFFCURVE",
"25 204 CURVE SMOOTH",
"25 80 OFFCURVE",
"104 -14 OFFCURVE",
"245 -14 CURVE SMOOTH"
);
},
{
closed = 1;
nodes = (
"193 106 OFFCURVE",
"156 147 OFFCURVE",
"156 214 CURVE SMOOTH",
"156 229 OFFCURVE",
"158 246 OFFCURVE",
"162 264 CURVE SMOOTH",
"199 436 LINE SMOOTH",
"218 524 OFFCURVE",
"265 594 OFFCURVE",
"356 594 CURVE SMOOTH",
"420 594 OFFCURVE",
"457 553 OFFCURVE",
"457 486 CURVE SMOOTH",
"457 471 OFFCURVE",
"455 457 OFFCURVE",
"451 436 CURVE SMOOTH",
"414 264 LINE SMOOTH",
"395 176 OFFCURVE",
"348 106 OFFCURVE",
"257 106 CURVE SMOOTH"
);
}
);
width = 612;
}
);
unicode = 004F;
},
{
glyphname = P;
lastChange = "2018-09-16 21:49:09 +0000";
layers = (
{
layerId = "FBAFFF81-1F8B-4B58-9158-C4AF3F48F88C";
paths = (
{
closed = 1;
nodes = (
"477 288 OFFCURVE",
"549 378 OFFCURVE",
"549 480 CURVE SMOOTH",
"549 510 LINE SMOOTH",
"549 611 OFFCURVE",
"478 700 OFFCURVE",
"335 700 CURVE SMOOTH",
"85 700 LINE",
"85 0 LINE",
"169 0 LINE",
"169 288 LINE",
"335 288 LINE SMOOTH"
);
},
{
closed = 1;
nodes = (
"325 622 LINE SMOOTH",
"419 622 OFFCURVE",
"465 574 OFFCURVE",
"465 504 CURVE SMOOTH",
"465 486 LINE SMOOTH",
"465 406 OFFCURVE",
"419 366 OFFCURVE",
"325 366 CURVE SMOOTH",
"169 366 LINE",
"169 622 LINE"
);
}
);
width = 612;
},
{
layerId = "50C9B437-FF28-4DF4-B0E6-290519DD406F";
paths = (
{
closed = 1;
nodes = (
"489 264 OFFCURVE",
"560 369 OFFCURVE",
"560 473 CURVE SMOOTH",
"560 497 LINE SMOOTH",
"560 598 OFFCURVE",
"489 700 OFFCURVE",
"346 700 CURVE SMOOTH",
"72 700 LINE",
"72 0 LINE",
"204 0 LINE",
"204 264 LINE",
"346 264 LINE SMOOTH"
);
},
{
closed = 1;
nodes = (
"333 574 LINE SMOOTH",
"391 574 OFFCURVE",
"428 539 OFFCURVE",
"428 488 CURVE SMOOTH",
"428 476 LINE SMOOTH",
"428 425 OFFCURVE",
"391 390 OFFCURVE",
"333 390 CURVE SMOOTH",
"204 390 LINE",
"204 574 LINE"
);
}
);
width = 612;
},
{
layerId = "6008D70E-46A9-43E5-86AA-D196D19196A4";
paths = (
{
closed = 1;
nodes = (
"480 288 OFFCURVE",
"580 393 OFFCURVE",
"581 531 CURVE SMOOTH",
"581 533 LINE SMOOTH",
"581 630 OFFCURVE",
"508 700 OFFCURVE",
"389 700 CURVE SMOOTH",
"161 700 LINE",
"12 0 LINE",
"96 0 LINE",
"157 288 LINE",
"317 288 LINE SMOOTH"
);
},
{
closed = 1;
nodes = (
"377 622 LINE SMOOTH",
"453 622 OFFCURVE",
"495 588 OFFCURVE",
"495 518 CURVE SMOOTH",
"495 516 LINE SMOOTH",
"494 423 OFFCURVE",
"422 366 OFFCURVE",
"324 366 CURVE SMOOTH",
"174 366 LINE",
"228 622 LINE"
);
}
);
width = 612;
},
{
layerId = "612FA678-EA3C-4672-88DD-29ED08259473";
paths = (
{
closed = 1;
nodes = (
"483 264 OFFCURVE",
"589 363 OFFCURVE",
"590 512 CURVE SMOOTH",
"590 514 LINE SMOOTH",
"590 620 OFFCURVE",
"516 700 OFFCURVE",
"398 700 CURVE SMOOTH",
"148 700 LINE",
"0 0 LINE",
"131 0 LINE",
"187 264 LINE",
"324 264 LINE SMOOTH"
);
},
{
closed = 1;
nodes = (
"370 574 LINE SMOOTH",
"420 574 OFFCURVE",
"455 547 OFFCURVE",
"455 498 CURVE SMOOTH",
"455 496 LINE SMOOTH",
"454 434 OFFCURVE",
"402 390 OFFCURVE",
"336 390 CURVE SMOOTH",
"214 390 LINE",
"253 574 LINE"
);
}
);
width = 612;
}
);
unicode = 0050;
},
{
glyphname = Q;
lastChange = "2018-09-16 21:49:09 +0000";
layers = (
{
components = (
{
name = O;
},
{
name = _tail.Q;
}
);
layerId = "50C9B437-FF28-4DF4-B0E6-290519DD406F";
width = 612;
},
{
components = (
{
name = O;
},
{
name = _tail.Q;
}
);
layerId = "6008D70E-46A9-43E5-86AA-D196D19196A4";
width = 612;
},
{
components = (
{
name = O;
},
{
name = _tail.Q;
}
);
layerId = "612FA678-EA3C-4672-88DD-29ED08259473";
width = 612;
},
{
associatedMasterId = "FBAFFF81-1F8B-4B58-9158-C4AF3F48F88C";
layerId = "587BB6D3-CFF2-45C1-BACF-1D2E48042002";
name = "Sep 16 18, 09:07";
paths = (
{
closed = 1;
nodes = (
"60 102 OFFCURVE",
"136 4 OFFCURVE",
"267 -12 CURVE",
"267 -78 LINE SMOOTH",
"267 -123 OFFCURVE",
"299 -156 OFFCURVE",
"344 -156 CURVE SMOOTH",
"456 -156 LINE",
"456 -84 LINE",
"372 -84 LINE SMOOTH",
"353 -84 OFFCURVE",
"345 -73 OFFCURVE",
"345 -54 CURVE SMOOTH",
"345 -12 LINE",
"475 3 OFFCURVE",
"552 102 OFFCURVE",
"552 272 CURVE SMOOTH",
"552 428 LINE SMOOTH",
"552 608 OFFCURVE",
"460 714 OFFCURVE",
"306 714 CURVE SMOOTH",
"152 714 OFFCURVE",
"60 608 OFFCURVE",
"60 428 CURVE SMOOTH",
"60 272 LINE SMOOTH"
);
},
{
closed = 1;
nodes = (
"198 64 OFFCURVE",
"144 142 OFFCURVE",
"144 278 CURVE SMOOTH",
"144 422 LINE SMOOTH",
"144 550 OFFCURVE",
"198 636 OFFCURVE",
"306 636 CURVE SMOOTH",
"414 636 OFFCURVE",
"468 550 OFFCURVE",
"468 422 CURVE SMOOTH",
"468 278 LINE SMOOTH",
"468 142 OFFCURVE",
"414 64 OFFCURVE",
"306 64 CURVE SMOOTH"
);
}
);
width = 612;
},
{
components = (
{
name = O;
},
{
name = _tail.Q;
}
);
layerId = "FBAFFF81-1F8B-4B58-9158-C4AF3F48F88C";
width = 612;
},
{
associatedMasterId = "6008D70E-46A9-43E5-86AA-D196D19196A4";
layerId = "F3F960E5-F7DA-4D10-999A-C68F40EF91CC";
name = "Sep 16 18, 09:08";
paths = (
{
closed = 1;
nodes = (
"39 252 OFFCURVE",
"36 222 OFFCURVE",
"36 195 CURVE SMOOTH",
"36 83 OFFCURVE",
"88 9 OFFCURVE",
"184 -9 CURVE",
"172 -66 LINE SMOOTH",
"170 -76 OFFCURVE",
"170 -79 OFFCURVE",
"170 -85 CURVE SMOOTH",
"170 -126 OFFCURVE",
"201 -156 OFFCURVE",
"244 -156 CURVE SMOOTH",
"358 -156 LINE",
"358 -84 LINE",
"274 -84 LINE SMOOTH",
"259 -84 OFFCURVE",
"252 -77 OFFCURVE",
"252 -64 CURVE SMOOTH",
"252 -62 OFFCURVE",
"252 -60 OFFCURVE",
"253 -54 CURVE SMOOTH",
"262 -13 LINE",
"410 -3 OFFCURVE",
"499 96 OFFCURVE",
"536 272 CURVE SMOOTH",
"567 417 LINE SMOOTH",
"574 448 OFFCURVE",
"577 478 OFFCURVE",
"577 505 CURVE SMOOTH",
"577 635 OFFCURVE",
"506 714 OFFCURVE",
"377 714 CURVE SMOOTH",
"213 714 OFFCURVE",
"116 614 OFFCURVE",
"77 428 CURVE SMOOTH",
"46 283 LINE SMOOTH"
);
},
{
closed = 1;
nodes = (
"163 62 OFFCURVE",
"120 116 OFFCURVE",
"120 202 CURVE SMOOTH",
"120 223 OFFCURVE",
"123 247 OFFCURVE",
"128 272 CURVE SMOOTH",
"160 422 LINE SMOOTH",
"188 553 OFFCURVE",
"255 638 OFFCURVE",
"365 638 CURVE SMOOTH",
"450 638 OFFCURVE",
"493 584 OFFCURVE",
"493 498 CURVE SMOOTH",
"493 477 OFFCURVE",
"490 453 OFFCURVE",
"485 428 CURVE SMOOTH",
"453 278 LINE SMOOTH",
"425 148 OFFCURVE",
"358 62 OFFCURVE",
"248 62 CURVE SMOOTH"
);
}
);
width = 612;
},
{
associatedMasterId = "612FA678-EA3C-4672-88DD-29ED08259473";
layerId = "61624741-A30D-4629-BD93-ABE96194AA10";
name = "Sep 16 18, 09:10";
paths = (
{
closed = 1;
nodes = (
"27 249 OFFCURVE",
"25 226 OFFCURVE",
"25 204 CURVE SMOOTH",
"25 109 OFFCURVE",
"70 32 OFFCURVE",
"154 1 CURVE",
"140 -60 LINE SMOOTH",
"138 -70 OFFCURVE",
"136 -80 OFFCURVE",
"136 -90 CURVE SMOOTH",
"136 -139 OFFCURVE",
"174 -174 OFFCURVE",
"230 -174 CURVE SMOOTH",
"349 -174 LINE",
"349 -54 LINE",
"293 -54 LINE SMOOTH",
"279 -54 OFFCURVE",
"271 -47 OFFCURVE",
"271 -35 CURVE SMOOTH",
"271 -32 OFFCURVE",
"271 -31 OFFCURVE",
"272 -26 CURVE SMOOTH",
"275 -13 LINE",
"424 -2 OFFCURVE",
"509 88 OFFCURVE",
"548 272 CURVE SMOOTH",
"581 428 LINE SMOOTH",
"586 451 OFFCURVE",
"588 474 OFFCURVE",
"588 496 CURVE SMOOTH",
"588 620 OFFCURVE",
"509 714 OFFCURVE",
"368 714 CURVE SMOOTH",
"200 714 OFFCURVE",
"106 624 OFFCURVE",
"65 428 CURVE SMOOTH",
"32 272 LINE SMOOTH"
);
},
{
closed = 1;
nodes = (
"193 106 OFFCURVE",
"156 147 OFFCURVE",
"156 214 CURVE SMOOTH",
"156 229 OFFCURVE",
"158 246 OFFCURVE",
"162 264 CURVE SMOOTH",
"199 436 LINE SMOOTH",
"218 524 OFFCURVE",
"265 594 OFFCURVE",
"356 594 CURVE SMOOTH",
"420 594 OFFCURVE",
"457 553 OFFCURVE",
"457 486 CURVE SMOOTH",
"457 471 OFFCURVE",
"455 457 OFFCURVE",
"451 436 CURVE SMOOTH",
"414 264 LINE SMOOTH",
"395 176 OFFCURVE",
"348 106 OFFCURVE",
"257 106 CURVE SMOOTH"
);
}
);
visible = 1;
width = 612;
},
{
associatedMasterId = "50C9B437-FF28-4DF4-B0E6-290519DD406F";
layerId = "42E14310-08EF-4656-8E7F-E582C14BD3BB";
name = "Sep 16 18, 09:10";
paths = (
{
closed = 1;
nodes = (
"243 -132 OFFCURVE",
"284 -174 OFFCURVE",
"338 -174 CURVE SMOOTH",
"456 -174 LINE",
"456 -54 LINE",
"394 -54 LINE SMOOTH",
"376 -54 OFFCURVE",
"369 -44 OFFCURVE",
"369 -26 CURVE SMOOTH",
"369 -8 LINE",
"491 15 OFFCURVE",
"564 112 OFFCURVE",
"564 272 CURVE SMOOTH",
"564 428 LINE SMOOTH",
"564 608 OFFCURVE",
"466 714 OFFCURVE",
"306 714 CURVE SMOOTH",
"146 714 OFFCURVE",
"48 608 OFFCURVE",
"48 428 CURVE SMOOTH",
"48 272 LINE SMOOTH",
"48 112 OFFCURVE",
"120 15 OFFCURVE",
"243 -8 CURVE",
"243 -78 LINE SMOOTH"
);
},
{
closed = 1;
nodes = (
"210 106 OFFCURVE",
"180 172 OFFCURVE",
"180 266 CURVE SMOOTH",
"180 434 LINE SMOOTH",
"180 522 OFFCURVE",
"216 594 OFFCURVE",
"306 594 CURVE SMOOTH",
"396 594 OFFCURVE",
"432 522 OFFCURVE",
"432 434 CURVE SMOOTH",
"432 266 LINE SMOOTH",
"432 172 OFFCURVE",
"402 106 OFFCURVE",
"306 106 CURVE SMOOTH"
);
}
);
width = 612;
}
);
unicode = 0051;
},
{
glyphname = R;
lastChange = "2018-09-21 13:43:20 +0000";
layers = (
{
layerId = "FBAFFF81-1F8B-4B58-9158-C4AF3F48F88C";
paths = (
{
closed = 1;
nodes = (
"169 0 LINE",
"169 288 LINE",
"387 288 LINE SMOOTH",
"427 288 OFFCURVE",
"441 268 OFFCURVE",
"441 234 CURVE SMOOTH",
"441 230 OFFCURVE",
"441 226 OFFCURVE",
"441 222 CURVE SMOOTH",
"441 0 LINE",
"525 0 LINE",
"525 242 LINE SMOOTH",
"525 245 OFFCURVE",
"525 249 OFFCURVE",
"525 252 CURVE SMOOTH",
"525 298 OFFCURVE",
"501 324 OFFCURVE",
"461 330 CURVE",
"461 342 LINE",
"521 370 OFFCURVE",
"549 428 OFFCURVE",
"549 480 CURVE SMOOTH",
"549 510 LINE SMOOTH",
"549 611 OFFCURVE",
"478 700 OFFCURVE",
"335 700 CURVE SMOOTH",
"85 700 LINE",
"85 0 LINE"
);
},
{
closed = 1;
nodes = (
"169 622 LINE",
"325 622 LINE SMOOTH",
"419 622 OFFCURVE",
"465 574 OFFCURVE",
"465 504 CURVE SMOOTH",
"465 486 LINE SMOOTH",
"465 408 OFFCURVE",
"419 366 OFFCURVE",
"325 366 CURVE SMOOTH",
"169 366 LINE"
);
}
);
width = 612;
},
{
layerId = "50C9B437-FF28-4DF4-B0E6-290519DD406F";
paths = (
{
closed = 1;
nodes = (
"205 0 LINE",
"205 264 LINE",
"357 264 LINE SMOOTH",
"395 264 OFFCURVE",
"411 242 OFFCURVE",
"411 210 CURVE SMOOTH",
"411 205 OFFCURVE",
"411 201 OFFCURVE",
"411 196 CURVE SMOOTH",
"411 0 LINE",
"543 0 LINE",
"543 230 LINE SMOOTH",
"543 234 OFFCURVE",
"543 238 OFFCURVE",
"543 242 CURVE SMOOTH",
"543 288 OFFCURVE",
"514 322 OFFCURVE",
"467 327 CURVE",
"467 345 LINE",
"530 372 OFFCURVE",
"561 426 OFFCURVE",
"561 483 CURVE SMOOTH",
"561 507 LINE SMOOTH",
"561 614 OFFCURVE",
"484 700 OFFCURVE",
"341 700 CURVE SMOOTH",
"73 700 LINE",
"73 0 LINE"
);
},
{
closed = 1;
nodes = (
"205 574 LINE",
"331 574 LINE SMOOTH",
"395 574 OFFCURVE",
"429 534 OFFCURVE",
"429 488 CURVE SMOOTH",
"429 476 LINE SMOOTH",
"429 422 OFFCURVE",
"395 390 OFFCURVE",
"331 390 CURVE SMOOTH",
"205 390 LINE"
);
}
);
width = 612;
},
{
layerId = "6008D70E-46A9-43E5-86AA-D196D19196A4";
paths = (
{
closed = 1;
nodes = (
"92 0 LINE",
"153 288 LINE",
"374 288 LINE SMOOTH",
"404 288 OFFCURVE",
"416 275 OFFCURVE",
"416 253 CURVE SMOOTH",
"416 245 OFFCURVE",
"415 238 OFFCURVE",
"414 234 CURVE SMOOTH",
"364 0 LINE",
"448 0 LINE",
"502 252 LINE SMOOTH",
"504 261 OFFCURVE",
"505 267 OFFCURVE",
"505 274 CURVE SMOOTH",
"505 307 OFFCURVE",
"485 327 OFFCURVE",
"452 330 CURVE",
"452 342 LINE",
"531 375 OFFCURVE",
"581 440 OFFCURVE",
"582 527 CURVE SMOOTH",
"582 529 LINE SMOOTH",
"582 636 OFFCURVE",
"512 700 OFFCURVE",
"394 700 CURVE SMOOTH",
"157 700 LINE",
"8 0 LINE"
);
},
{
closed = 1;
nodes = (
"224 622 LINE",
"378 622 LINE SMOOTH",
"456 622 OFFCURVE",
"497 586 OFFCURVE",
"497 520 CURVE SMOOTH",
"497 518 LINE SMOOTH",
"496 431 OFFCURVE",
"423 366 OFFCURVE",
"324 366 CURVE SMOOTH",
"170 366 LINE"
);
}
);
width = 612;
},
{
layerId = "612FA678-EA3C-4672-88DD-29ED08259473";
paths = (
{
closed = 1;
nodes = (
"131 0 LINE",
"187 264 LINE",
"332 264 LINE SMOOTH",
"363 264 OFFCURVE",
"377 249 OFFCURVE",
"377 226 CURVE SMOOTH",
"377 221 OFFCURVE",
"376 215 OFFCURVE",
"375 210 CURVE SMOOTH",
"330 0 LINE",
"464 0 LINE",
"516 242 LINE SMOOTH",
"517 247 OFFCURVE",
"518 254 OFFCURVE",
"518 262 CURVE SMOOTH",
"518 298 OFFCURVE",
"497 323 OFFCURVE",
"458 327 CURVE",
"458 345 LINE",
"548 375 OFFCURVE",
"593 434 OFFCURVE",
"594 530 CURVE SMOOTH",
"594 532 LINE SMOOTH",
"594 624 OFFCURVE",
"526 700 OFFCURVE",
"394 700 CURVE SMOOTH",
"148 700 LINE",
"0 0 LINE"
);
},
{
closed = 1;
nodes = (
"253 574 LINE",
"372 574 LINE SMOOTH",
"428 574 OFFCURVE",
"455 544 OFFCURVE",
"455 494 CURVE SMOOTH",
"455 492 LINE SMOOTH",
"454 430 OFFCURVE",
"403 390 OFFCURVE",
"334 390 CURVE SMOOTH",
"214 390 LINE"
);
}
);
width = 612;
}
);
unicode = 0052;
},
{
color = 2;
glyphname = S;
lastChange = "2018-09-21 13:43:20 +0000";
layers = (
{
layerId = "FBAFFF81-1F8B-4B58-9158-C4AF3F48F88C";
paths = (
{
closed = 1;
nodes = (
"555 462 LINE",
"555 467 LINE SMOOTH",
"555 479 OFFCURVE",
"555 492 OFFCURVE",
"555 504 CURVE SMOOTH",
"555 617 OFFCURVE",
"464 714 OFFCURVE",
"306 714 CURVE SMOOTH",
"170 714 OFFCURVE",
"75 637 OFFCURVE",
"75 528 CURVE SMOOTH",
"75 516 LINE SMOOTH",
"75 396 OFFCURVE",
"165 342 OFFCURVE",
"305 322 CURVE SMOOTH",
"426 305 OFFCURVE",
"477 269 OFFCURVE",
"477 196 CURVE SMOOTH",
"477 190 LINE SMOOTH",
"477 115 OFFCURVE",
"424 64 OFFCURVE",
"320 64 CURVE SMOOTH",
"201 64 OFFCURVE",
"129 126 OFFCURVE",
"129 248 CURVE SMOOTH",
"129 254 OFFCURVE",
"129 260 OFFCURVE",
"129 266 CURVE SMOOTH",
"129 272 LINE",
"45 272 LINE",
"45 266 LINE SMOOTH",
"45 258 OFFCURVE",
"45 250 OFFCURVE",
"45 242 CURVE SMOOTH",
"45 96 OFFCURVE",
"141 -14 OFFCURVE",
"320 -14 CURVE SMOOTH",
"477 -14 OFFCURVE",
"561 69 OFFCURVE",
"561 190 CURVE SMOOTH",
"561 202 LINE SMOOTH",
"561 308 OFFCURVE",
"493 372 OFFCURVE",
"347 394 CURVE SMOOTH",
"222 413 OFFCURVE",
"159 442 OFFCURVE",
"159 519 CURVE SMOOTH",
"159 525 LINE SMOOTH",
"159 596 OFFCURVE",
"229 636 OFFCURVE",
"305 636 CURVE SMOOTH",
"393 636 OFFCURVE",
"471 589 OFFCURVE",
"471 498 CURVE SMOOTH",
"471 488 OFFCURVE",
"471 477 OFFCURVE",
"471 467 CURVE SMOOTH",
"471 462 LINE"
);
}
);
width = 612;
},
{
layerId = "50C9B437-FF28-4DF4-B0E6-290519DD406F";
paths = (
{
closed = 1;
nodes = (
"558 462 LINE",
"558 468 LINE SMOOTH",
"558 478 OFFCURVE",
"558 488 OFFCURVE",
"558 498 CURVE SMOOTH",
"558 612 OFFCURVE",
"468 714 OFFCURVE",
"302 714 CURVE SMOOTH",
"156 714 OFFCURVE",
"60 628 OFFCURVE",
"60 514 CURVE SMOOTH",
"60 508 LINE SMOOTH",
"60 370 OFFCURVE",
"162 322 OFFCURVE",
"302 298 CURVE SMOOTH",
"408 280 OFFCURVE",
"435 245 OFFCURVE",
"436 200 CURVE SMOOTH",
"436 198 LINE SMOOTH",
"436 150 OFFCURVE",
"398 110 OFFCURVE",
"318 110 CURVE SMOOTH",
"216 110 OFFCURVE",
"168 164 OFFCURVE",
"168 248 CURVE SMOOTH",
"168 254 OFFCURVE",
"168 259 OFFCURVE",
"168 265 CURVE SMOOTH",
"168 272 LINE",
"36 272 LINE",
"36 263 LINE SMOOTH",
"36 256 OFFCURVE",
"36 249 OFFCURVE",
"36 242 CURVE SMOOTH",
"36 96 OFFCURVE",
"132 -14 OFFCURVE",
"316 -14 CURVE SMOOTH",
"473 -14 OFFCURVE",
"570 70 OFFCURVE",
"570 200 CURVE SMOOTH",
"570 212 LINE SMOOTH",
"570 334 OFFCURVE",
"490 392 OFFCURVE",
"344 418 CURVE SMOOTH",
"230 439 OFFCURVE",
"195 465 OFFCURVE",
"194 512 CURVE SMOOTH",
"194 514 LINE SMOOTH",
"194 560 OFFCURVE",
"236 590 OFFCURVE",
"302 590 CURVE SMOOTH",
"380 590 OFFCURVE",
"426 542 OFFCURVE",
"426 486 CURVE SMOOTH",
"426 480 OFFCURVE",
"426 473 OFFCURVE",
"426 467 CURVE SMOOTH",
"426 462 LINE"
);
}
);
width = 612;
},
{
layerId = "6008D70E-46A9-43E5-86AA-D196D19196A4";
paths = (
{
closed = 1;
nodes = (
"575 462 LINE",
"583 498 LINE SMOOTH",
"586 511 OFFCURVE",
"587 525 OFFCURVE",
"587 538 CURVE SMOOTH",
"587 635 OFFCURVE",
"506 714 OFFCURVE",
"367 714 CURVE SMOOTH",
"216 714 OFFCURVE",
"97 637 OFFCURVE",
"96 502 CURVE SMOOTH",
"96 500 LINE SMOOTH",
"96 394 OFFCURVE",
"174 344 OFFCURVE",
"285 326 CURVE SMOOTH",
"400 308 OFFCURVE",
"443 282 OFFCURVE",
"444 209 CURVE SMOOTH",
"444 207 LINE SMOOTH",
"444 118 OFFCURVE",
"355 64 OFFCURVE",
"259 64 CURVE SMOOTH",
"160 64 OFFCURVE",
"104 105 OFFCURVE",
"104 193 CURVE SMOOTH",
"104 210 OFFCURVE",
"106 228 OFFCURVE",
"110 248 CURVE SMOOTH",
"115 272 LINE",
"31 272 LINE",
"25 242 LINE SMOOTH",
"21 221 OFFCURVE",
"19 200 OFFCURVE",
"19 181 CURVE SMOOTH",
"19 67 OFFCURVE",
"96 -14 OFFCURVE",
"249 -14 CURVE SMOOTH",
"408 -14 OFFCURVE",
"530 67 OFFCURVE",
"531 215 CURVE SMOOTH",
"531 217 LINE SMOOTH",
"531 314 OFFCURVE",
"475 374 OFFCURVE",
"353 394 CURVE SMOOTH",
"246 412 OFFCURVE",
"183 436 OFFCURVE",
"182 511 CURVE SMOOTH",
"182 513 LINE SMOOTH",
"182 592 OFFCURVE",
"271 636 OFFCURVE",
"360 636 CURVE SMOOTH",
"437 636 OFFCURVE",
"501 599 OFFCURVE",
"501 522 CURVE SMOOTH",
"501 511 OFFCURVE",
"500 503 OFFCURVE",
"497 488 CURVE SMOOTH",
"491 462 LINE"
);
}
);
width = 612;
},
{
layerId = "612FA678-EA3C-4672-88DD-29ED08259473";
paths = (
{
closed = 1;
nodes = (
"586 462 LINE",
"590 480 LINE SMOOTH",
"594 499 OFFCURVE",
"595 512 OFFCURVE",
"595 527 CURVE SMOOTH",
"595 634 OFFCURVE",
"507 714 OFFCURVE",
"358 714 CURVE SMOOTH",
"184 714 OFFCURVE",
"88 621 OFFCURVE",
"87 496 CURVE SMOOTH",
"87 494 LINE SMOOTH",
"87 371 OFFCURVE",
"180 318 OFFCURVE",
"273 304 CURVE SMOOTH",
"370 289 OFFCURVE",
"409 264 OFFCURVE",
"410 215 CURVE SMOOTH",
"410 213 LINE SMOOTH",
"410 149 OFFCURVE",
"357 110 OFFCURVE",
"270 110 CURVE SMOOTH",
"189 110 OFFCURVE",
"148 149 OFFCURVE",
"148 212 CURVE SMOOTH",
"148 228 OFFCURVE",
"149 241 OFFCURVE",
"152 255 CURVE SMOOTH",
"156 272 LINE",
"24 272 LINE",
"19 249 LINE SMOOTH",
"15 231 OFFCURVE",
"14 213 OFFCURVE",
"14 196 CURVE SMOOTH",
"14 80 OFFCURVE",
"93 -14 OFFCURVE",
"262 -14 CURVE SMOOTH",
"438 -14 OFFCURVE",
"550 80 OFFCURVE",
"550 231 CURVE SMOOTH",
"550 233 LINE SMOOTH",
"549 346 OFFCURVE",
"473 400 OFFCURVE",
"350 420 CURVE SMOOTH",
"263 434 OFFCURVE",
"226 458 OFFCURVE",
"225 504 CURVE SMOOTH",
"225 506 LINE SMOOTH",
"225 563 OFFCURVE",
"284 590 OFFCURVE",
"346 590 CURVE SMOOTH",
"423 590 OFFCURVE",
"460 554 OFFCURVE",
"460 502 CURVE SMOOTH",
"460 493 OFFCURVE",
"459 485 OFFCURVE",
"457 475 CURVE SMOOTH",
"454 462 LINE"
);
}
);
width = 612;
}
);
unicode = 0053;
},
{
glyphname = T;
lastChange = "2018-09-21 13:43:20 +0000";
layers = (
{
layerId = "FBAFFF81-1F8B-4B58-9158-C4AF3F48F88C";
paths = (
{
closed = 1;
nodes = (
"264 622 LINE",
"264 0 LINE",
"348 0 LINE",
"348 622 LINE",
"552 622 LINE",
"552 700 LINE",
"60 700 LINE",
"60 622 LINE"
);
}
);
width = 612;
},
{
layerId = "50C9B437-FF28-4DF4-B0E6-290519DD406F";
paths = (
{
closed = 1;
nodes = (
"240 574 LINE",
"240 0 LINE",
"372 0 LINE",
"372 574 LINE",
"558 574 LINE",
"558 700 LINE",
"54 700 LINE",
"54 574 LINE"
);
}
);
width = 612;
},
{
layerId = "6008D70E-46A9-43E5-86AA-D196D19196A4";
paths = (
{
closed = 1;
nodes = (
"319 622 LINE",
"187 0 LINE",
"271 0 LINE",
"403 622 LINE",
"606 622 LINE",
"606 700 LINE",
"103 700 LINE",
"103 622 LINE"
);
}
);
width = 612;
},
{
layerId = "612FA678-EA3C-4672-88DD-29ED08259473";
paths = (
{
closed = 1;
nodes = (
"286 574 LINE",
"164 0 LINE",
"296 0 LINE",
"418 574 LINE",
"604 574 LINE",
"604 700 LINE",
"100 700 LINE",
"100 574 LINE"
);
}
);
width = 612;
}
);
unicode = 0054;
},
{
glyphname = U;
lastChange = "2018-09-21 13:46:33 +0000";
layers = (
{
layerId = "FBAFFF81-1F8B-4B58-9158-C4AF3F48F88C";
paths = (
{
closed = 1;
nodes = (
"454 -14 OFFCURVE",
"546 74 OFFCURVE",
"546 236 CURVE SMOOTH",
"546 700 LINE",
"462 700 LINE",
"462 236 LINE SMOOTH",
"462 124 OFFCURVE",
"408 64 OFFCURVE",
"306 64 CURVE SMOOTH",
"204 64 OFFCURVE",
"150 124 OFFCURVE",
"150 236 CURVE SMOOTH",
"150 250 OFFCURVE",
"150 263 OFFCURVE",
"150 277 CURVE SMOOTH",
"150 700 LINE",
"66 700 LINE",
"66 277 LINE SMOOTH",
"66 263 OFFCURVE",
"66 250 OFFCURVE",
"66 236 CURVE SMOOTH",
"66 74 OFFCURVE",
"158 -14 OFFCURVE",
"306 -14 CURVE SMOOTH"
);
}
);
width = 612;
},
{
layerId = "50C9B437-FF28-4DF4-B0E6-290519DD406F";
paths = (
{
closed = 1;
nodes = (
"472 -14 OFFCURVE",
"558 83 OFFCURVE",
"558 242 CURVE SMOOTH",
"558 700 LINE",
"426 700 LINE",
"426 242 LINE SMOOTH",
"426 160 OFFCURVE",
"388 110 OFFCURVE",
"306 110 CURVE SMOOTH",
"224 110 OFFCURVE",
"186 160 OFFCURVE",
"186 242 CURVE SMOOTH",
"186 257 OFFCURVE",
"186 271 OFFCURVE",
"186 286 CURVE SMOOTH",
"186 700 LINE",
"54 700 LINE",
"54 285 LINE SMOOTH",
"54 270 OFFCURVE",
"54 257 OFFCURVE",
"54 242 CURVE SMOOTH",
"54 83 OFFCURVE",
"140 -14 OFFCURVE",
"306 -14 CURVE SMOOTH"
);
}
);
width = 612;
},
{
layerId = "6008D70E-46A9-43E5-86AA-D196D19196A4";
paths = (
{
closed = 1;
nodes = (
"395 -14 OFFCURVE",
"483 70 OFFCURVE",
"518 236 CURVE SMOOTH",
"616 700 LINE",
"532 700 LINE",
"434 236 LINE SMOOTH",
"410 122 OFFCURVE",
"343 62 OFFCURVE",
"244 62 CURVE SMOOTH",
"163 62 OFFCURVE",
"121 102 OFFCURVE",
"121 178 CURVE SMOOTH",
"121 195 OFFCURVE",
"124 215 OFFCURVE",
"128 236 CURVE SMOOTH",
"226 700 LINE",
"142 700 LINE",
"45 242 LINE SMOOTH",
"39 216 OFFCURVE",
"37 192 OFFCURVE",
"37 170 CURVE SMOOTH",
"37 51 OFFCURVE",
"117 -14 OFFCURVE",
"232 -14 CURVE SMOOTH"
);
}
);
width = 612;
},
{
layerId = "612FA678-EA3C-4672-88DD-29ED08259473";
paths = (
{
closed = 1;
nodes = (
"406 -14 OFFCURVE",
"491 62 OFFCURVE",
"529 242 CURVE SMOOTH",
"626 700 LINE",
"494 700 LINE",
"397 242 LINE SMOOTH",
"378 152 OFFCURVE",
"338 110 OFFCURVE",
"258 110 CURVE SMOOTH",
"196 110 OFFCURVE",
"164 144 OFFCURVE",
"164 201 CURVE SMOOTH",
"164 214 OFFCURVE",
"166 227 OFFCURVE",
"169 242 CURVE SMOOTH",
"266 700 LINE",
"134 700 LINE",
"40 254 LINE SMOOTH",
"34 227 OFFCURVE",
"33 208 OFFCURVE",
"33 187 CURVE SMOOTH",
"33 59 OFFCURVE",
"123 -14 OFFCURVE",
"244 -14 CURVE SMOOTH"
);
}
);
width = 612;
}
);
unicode = 0055;
},
{
glyphname = V;
lastChange = "2018-09-21 13:46:33 +0000";
layers = (
{
layerId = "FBAFFF81-1F8B-4B58-9158-C4AF3F48F88C";
paths = (
{
closed = 1;
nodes = (
"387 0 LINE",
"585 700 LINE",
"495 700 LINE",
"312 36 LINE",
"300 36 LINE",
"117 700 LINE",
"27 700 LINE",
"225 0 LINE"
);
}
);
width = 612;
},
{
layerId = "50C9B437-FF28-4DF4-B0E6-290519DD406F";
paths = (
{
closed = 1;
nodes = (
"430 0 LINE",
"588 700 LINE",
"452 700 LINE",
"315 66 LINE",
"297 66 LINE",
"160 700 LINE",
"24 700 LINE",
"182 0 LINE"
);
}
);
width = 612;
},
{
layerId = "6008D70E-46A9-43E5-86AA-D196D19196A4";
paths = (
{
closed = 1;
nodes = (
"300 0 LINE",
"635 700 LINE",
"540 700 LINE",
"228 36 LINE",
"216 36 LINE",
"186 700 LINE",
"102 700 LINE",
"139 0 LINE"
);
}
);
width = 612;
},
{
layerId = "612FA678-EA3C-4672-88DD-29ED08259473";
paths = (
{
closed = 1;
nodes = (
"340 0 LINE",
"647 700 LINE",
"504 700 LINE",
"235 66 LINE",
"217 66 LINE",
"194 700 LINE",
"60 700 LINE",
"94 0 LINE"
);
}
);
width = 612;
}
);
unicode = 0056;
},
{
glyphname = W;
lastChange = "2018-09-21 13:47:10 +0000";
layers = (
{
layerId = "FBAFFF81-1F8B-4B58-9158-C4AF3F48F88C";
paths = (
{
closed = 1;
nodes = (
"235 0 LINE",
"290 562 LINE",
"300 664 LINE",
"312 664 LINE",
"322 562 LINE",
"377 0 LINE",
"530 0 LINE",
"601 700 LINE",
"525 700 LINE",
"469 145 LINE",
"458 36 LINE",
"446 36 LINE",
"436 141 LINE",
"383 700 LINE",
"229 700 LINE",
"176 141 LINE",
"166 36 LINE",
"154 36 LINE",
"143 145 LINE",
"87 700 LINE",
"11 700 LINE",
"82 0 LINE"
);
}
);
width = 612;
},
{
layerId = "50C9B437-FF28-4DF4-B0E6-290519DD406F";
paths = (
{
closed = 1;
nodes = (
"262 0 LINE",
"294 532 LINE",
"294 628 LINE",
"318 628 LINE",
"318 532 LINE",
"350 0 LINE",
"580 0 LINE",
"604 700 LINE",
"484 700 LINE",
"468 168 LINE",
"468 78 LINE",
"444 78 LINE",
"444 168 LINE",
"412 700 LINE",
"200 700 LINE",
"168 168 LINE",
"168 78 LINE",
"144 78 LINE",
"144 168 LINE",
"128 700 LINE",
"8 700 LINE",
"32 0 LINE"
);
}
);
width = 612;
},
{
layerId = "6008D70E-46A9-43E5-86AA-D196D19196A4";
paths = (
{
closed = 1;
nodes = (
"166 0 LINE",
"335 564 LINE",
"365 664 LINE",
"377 664 LINE",
"365 565 LINE",
"296 0 LINE",
"450 0 LINE",
"664 700 LINE",
"586 700 LINE",
"415 138 LINE",
"384 36 LINE",
"372 36 LINE",
"385 139 LINE",
"456 700 LINE",
"300 700 LINE",
"135 141 LINE",
"104 36 LINE",
"92 36 LINE",
"105 145 LINE",
"171 700 LINE",
"95 700 LINE",
"12 0 LINE"
);
}
);
width = 612;
},
{
layerId = "612FA678-EA3C-4672-88DD-29ED08259473";
paths = (
{
closed = 1;
nodes = (
"196 0 LINE",
"331 520 LINE",
"351 628 LINE",
"375 628 LINE",
"353 508 LINE",
"286 0 LINE",
"505 0 LINE",
"678 700 LINE",
"558 700 LINE",
"440 192 LINE",
"417 78 LINE",
"393 78 LINE",
"414 180 LINE",
"482 700 LINE",
"272 700 LINE",
"136 180 LINE",
"115 78 LINE",
"91 78 LINE",
"114 192 LINE",
"195 700 LINE",
"75 700 LINE",
"-20 0 LINE"
);
}
);
width = 612;
}
);
unicode = 0057;
},
{
glyphname = X;
lastChange = "2018-09-21 13:47:19 +0000";
layers = (
{
layerId = "FBAFFF81-1F8B-4B58-9158-C4AF3F48F88C";
paths = (
{
closed = 1;
nodes = (
"140 0 LINE",
"297 312 LINE",
"315 312 LINE",
"472 0 LINE",
"564 0 LINE",
"389 345 LINE",
"389 357 LINE",
"564 700 LINE",
"472 700 LINE",
"315 390 LINE",
"297 390 LINE",
"140 700 LINE",
"48 700 LINE",
"223 357 LINE",
"223 345 LINE",
"48 0 LINE"
);
}
);
width = 612;
},
{
layerId = "50C9B437-FF28-4DF4-B0E6-290519DD406F";
paths = (
{
closed = 1;
nodes = (
"176 0 LINE",
"294 288 LINE",
"318 288 LINE",
"436 0 LINE",
"579 0 LINE",
"435 342 LINE",
"435 360 LINE",
"579 700 LINE",
"436 700 LINE",
"318 414 LINE",
"294 414 LINE",
"176 700 LINE",
"33 700 LINE",
"177 360 LINE",
"177 342 LINE",
"33 0 LINE"
);
}
);
width = 612;
},
{
layerId = "6008D70E-46A9-43E5-86AA-D196D19196A4";
paths = (
{
closed = 1;
nodes = (
"75 0 LINE",
"294 312 LINE",
"312 312 LINE",
"403 0 LINE",
"489 0 LINE",
"387 338 LINE",
"387 350 LINE",
"638 700 LINE",
"539 700 LINE",
"320 390 LINE",
"302 390 LINE",
"211 700 LINE",
"125 700 LINE",
"227 362 LINE",
"227 350 LINE",
"-23 0 LINE"
);
}
);
width = 612;
},
{
layerId = "612FA678-EA3C-4672-88DD-29ED08259473";
paths = (
{
closed = 1;
nodes = (
"122 0 LINE",
"296 288 LINE",
"314 288 LINE",
"386 0 LINE",
"526 0 LINE",
"436 336 LINE",
"436 354 LINE",
"661 700 LINE",
"504 700 LINE",
"330 414 LINE",
"312 414 LINE",
"236 700 LINE",
"98 700 LINE",
"190 366 LINE",
"190 348 LINE",
"-33 0 LINE"
);
}
);
width = 612;
}
);
unicode = 0058;
userData = {
com.typemytype.robofont.guides = (
{
angle = 0;
isGlobal = 0;
magnetic = 5;
x = 0;
y = 390;
},
{
angle = 0;
isGlobal = 0;
magnetic = 5;
x = 0;
y = 312;
},
{
angle = 0;
isGlobal = 0;
magnetic = 5;
x = 0;
y = 351;
}
);
};
},
{
glyphname = Y;
lastChange = "2018-09-21 13:47:40 +0000";
layers = (
{
layerId = "FBAFFF81-1F8B-4B58-9158-C4AF3F48F88C";
paths = (
{
closed = 1;
nodes = (
"348 0 LINE",
"348 246 LINE",
"366 246 LINE",
"585 700 LINE",
"491 700 LINE",
"312 318 LINE",
"300 318 LINE",
"121 700 LINE",
"27 700 LINE",
"246 246 LINE",
"264 246 LINE",
"264 0 LINE"
);
}
);
width = 612;
},
{
layerId = "50C9B437-FF28-4DF4-B0E6-290519DD406F";
paths = (
{
closed = 1;
nodes = (
"372 0 LINE",
"372 246 LINE",
"402 246 LINE",
"603 700 LINE",
"459 700 LINE",
"315 366 LINE",
"297 366 LINE",
"153 700 LINE",
"9 700 LINE",
"210 246 LINE",
"240 246 LINE",
"240 0 LINE"
);
}
);
width = 612;
},
{
layerId = "6008D70E-46A9-43E5-86AA-D196D19196A4";
paths = (
{
closed = 1;
nodes = (
"268 0 LINE",
"320 246 LINE",
"338 246 LINE",
"654 700 LINE",
"553 700 LINE",
"293 318 LINE",
"281 318 LINE",
"183 700 LINE",
"96 700 LINE",
"218 246 LINE",
"236 246 LINE",
"184 0 LINE"
);
}
);
width = 612;
},
{
layerId = "612FA678-EA3C-4672-88DD-29ED08259473";
paths = (
{
closed = 1;
nodes = (
"292 0 LINE",
"344 246 LINE",
"374 246 LINE",
"672 700 LINE",
"520 700 LINE",
"306 366 LINE",
"288 366 LINE",
"212 700 LINE",
"72 700 LINE",
"182 246 LINE",
"212 246 LINE",
"160 0 LINE"
);
}
);
width = 612;
}
);
unicode = 0059;
userData = {
com.typemytype.robofont.guides = (
{
angle = 0;
isGlobal = 0;
magnetic = 5;
x = 0;
y = 246;
}
);
};
},
{
glyphname = Z;
lastChange = "2018-09-16 21:49:09 +0000";
layers = (
{
layerId = "FBAFFF81-1F8B-4B58-9158-C4AF3F48F88C";
paths = (
{
closed = 1;
nodes = (
"557 0 LINE",
"557 78 LINE",
"125 78 LINE",
"125 90 LINE",
"545 574 LINE",
"545 700 LINE",
"77 700 LINE",
"77 622 LINE",
"473 622 LINE",
"473 610 LINE",
"53 126 LINE",
"53 0 LINE"
);
}
);
width = 612;
},
{
layerId = "50C9B437-FF28-4DF4-B0E6-290519DD406F";
paths = (
{
closed = 1;
nodes = (
"563 0 LINE",
"563 126 LINE",
"155 126 LINE",
"155 144 LINE",
"551 484 LINE",
"551 700 LINE",
"53 700 LINE",
"53 574 LINE",
"443 574 LINE",
"443 556 LINE",
"47 216 LINE",
"47 0 LINE"
);
}
);
width = 612;
},
{
layerId = "6008D70E-46A9-43E5-86AA-D196D19196A4";
paths = (
{
closed = 1;
nodes = (
"499 0 LINE",
"499 78 LINE",
"77 78 LINE",
"77 90 LINE",
"592 574 LINE",
"592 700 LINE",
"134 700 LINE",
"134 622 LINE",
"520 622 LINE",
"520 610 LINE",
"5 126 LINE",
"5 0 LINE"
);
}
);
width = 612;
},
{
layerId = "612FA678-EA3C-4672-88DD-29ED08259473";
paths = (
{
closed = 1;
nodes = (
"505 0 LINE",
"505 126 LINE",
"121 126 LINE",
"121 144 LINE",
"600 484 LINE",
"600 700 LINE",
"126 700 LINE",
"126 574 LINE",
"492 574 LINE",
"492 556 LINE",
"12 216 LINE",
"12 0 LINE"
);
}
);
width = 612;
}
);
unicode = 005A;
},
{
color = 0;
glyphname = a;
lastChange = "2018-09-21 14:23:49 +0000";
layers = (
{
layerId = "FBAFFF81-1F8B-4B58-9158-C4AF3F48F88C";
paths = (
{
closed = 1;
nodes = (
"341 -14 OFFCURVE",
"403 18 OFFCURVE",
"435 84 CURVE",
"447 84 LINE",
"447 82 OFFCURVE",
"447 80 OFFCURVE",
"447 78 CURVE SMOOTH",
"447 33 OFFCURVE",
"479 0 OFFCURVE",
"524 0 CURVE SMOOTH",
"533 0 OFFCURVE",
"538 0 OFFCURVE",
"548 0 CURVE SMOOTH",
"577 0 LINE",
"577 72 LINE",
"565 72 LINE SMOOTH",
"559 72 OFFCURVE",
"557 72 OFFCURVE",
"552 72 CURVE SMOOTH",
"533 72 OFFCURVE",
"525 83 OFFCURVE",
"525 102 CURVE SMOOTH",
"525 496 LINE",
"447 496 LINE",
"447 418 LINE",
"435 418 LINE",
"403 480 OFFCURVE",
"345 510 OFFCURVE",
"277 510 CURVE SMOOTH",
"151 510 OFFCURVE",
"47 418 OFFCURVE",
"47 256 CURVE SMOOTH",
"47 240 LINE SMOOTH",
"47 76 OFFCURVE",
"149 -14 OFFCURVE",
"279 -14 CURVE SMOOTH"
);
},
{
closed = 1;
nodes = (
"193 60 OFFCURVE",
"127 128 OFFCURVE",
"127 240 CURVE SMOOTH",
"127 256 LINE SMOOTH",
"127 364 OFFCURVE",
"195 436 OFFCURVE",
"287 436 CURVE SMOOTH",
"379 436 OFFCURVE",
"447 360 OFFCURVE",
"447 254 CURVE SMOOTH",
"447 242 LINE SMOOTH",
"447 132 OFFCURVE",
"380 60 OFFCURVE",
"287 60 CURVE SMOOTH"
);
}
);
width = 612;
},
{
layerId = "50C9B437-FF28-4DF4-B0E6-290519DD406F";
paths = (
{
closed = 1;
nodes = (
"323 -14 OFFCURVE",
"373 10 OFFCURVE",
"399 72 CURVE",
"417 72 LINE",
"417 71 OFFCURVE",
"417 70 OFFCURVE",
"417 69 CURVE SMOOTH",
"417 29 OFFCURVE",
"450 0 OFFCURVE",
"494 0 CURVE SMOOTH",
"516 0 OFFCURVE",
"538 0 OFFCURVE",
"560 0 CURVE SMOOTH",
"580 0 LINE",
"580 120 LINE",
"573 120 LINE SMOOTH",
"569 120 OFFCURVE",
"565 120 OFFCURVE",
"561 120 CURVE SMOOTH",
"542 120 OFFCURVE",
"534 131 OFFCURVE",
"534 150 CURVE SMOOTH",
"534 496 LINE",
"408 496 LINE",
"408 436 LINE",
"390 436 LINE",
"365 486 OFFCURVE",
"323 510 OFFCURVE",
"253 510 CURVE SMOOTH",
"136 510 OFFCURVE",
"40 414 OFFCURVE",
"40 256 CURVE SMOOTH",
"40 240 LINE SMOOTH",
"40 80 OFFCURVE",
"140 -14 OFFCURVE",
"259 -14 CURVE SMOOTH"
);
},
{
closed = 1;
nodes = (
"214 106 OFFCURVE",
"166 158 OFFCURVE",
"166 242 CURVE SMOOTH",
"166 254 LINE SMOOTH",
"166 338 OFFCURVE",
"214 390 OFFCURVE",
"287 390 CURVE SMOOTH",
"360 390 OFFCURVE",
"408 338 OFFCURVE",
"408 254 CURVE SMOOTH",
"408 242 LINE SMOOTH",
"408 158 OFFCURVE",
"360 106 OFFCURVE",
"287 106 CURVE"
);
}
);
width = 612;
},
{
layerId = "6008D70E-46A9-43E5-86AA-D196D19196A4";
paths = (
{
closed = 1;
nodes = (
"246 -14 OFFCURVE",
"306 8 OFFCURVE",
"347 78 CURVE",
"359 78 LINE",
"358 71 OFFCURVE",
"357 64 OFFCURVE",
"357 58 CURVE SMOOTH",
"357 16 OFFCURVE",
"389 0 OFFCURVE",
"437 0 CURVE SMOOTH",
"456 0 OFFCURVE",
"466 0 OFFCURVE",
"478 0 CURVE SMOOTH",
"499 0 LINE",
"499 72 LINE",
"473 72 LINE SMOOTH",
"468 72 OFFCURVE",
"457 72 OFFCURVE",
"452 72 CURVE SMOOTH",
"442 72 OFFCURVE",
"437 78 OFFCURVE",
"440 94 CURVE SMOOTH",
"526 496 LINE",
"448 496 LINE",
"432 418 LINE",
"420 418 LINE",
"406 478 OFFCURVE",
"354 510 OFFCURVE",
"286 510 CURVE SMOOTH",
"109 510 OFFCURVE",
"13 354 OFFCURVE",
"12 187 CURVE SMOOTH",
"12 184 LINE SMOOTH",
"12 66 OFFCURVE",
"77 -14 OFFCURVE",
"184 -14 CURVE SMOOTH"
);
},
{
closed = 1;
nodes = (
"134 60 OFFCURVE",
"94 106 OFFCURVE",
"94 194 CURVE SMOOTH",
"94 197 LINE SMOOTH",
"95 322 OFFCURVE",
"164 436 OFFCURVE",
"287 436 CURVE SMOOTH",
"365 436 OFFCURVE",
"402 381 OFFCURVE",
"402 299 CURVE SMOOTH",
"402 297 LINE SMOOTH",
"401 163 OFFCURVE",
"316 60 OFFCURVE",
"208 60 CURVE SMOOTH"
);
}
);
width = 612;
},
{
layerId = "612FA678-EA3C-4672-88DD-29ED08259473";
paths = (
{
closed = 1;
nodes = (
"274 -14 OFFCURVE",
"311 22 OFFCURVE",
"335 66 CURVE",
"353 66 LINE",
"354 61 OFFCURVE",
"355 57 OFFCURVE",
"357 52 CURVE SMOOTH",
"374 20 OFFCURVE",
"403 0 OFFCURVE",
"440 0 CURVE SMOOTH",
"462 0 OFFCURVE",
"481 0 OFFCURVE",
"501 0 CURVE SMOOTH",
"544 0 LINE",
"544 120 LINE",
"522 120 LINE",
"516 120 OFFCURVE",
"504 120 OFFCURVE",
"501 120 CURVE",
"489 120 OFFCURVE",
"479 122 OFFCURVE",
"483 139 CURVE SMOOTH",
"559 496 LINE",
"433 496 LINE",
"419 430 LINE",
"401 430 LINE",
"386 478 OFFCURVE",
"344 510 OFFCURVE",
"271 510 CURVE SMOOTH",
"106 510 OFFCURVE",
"7 369 OFFCURVE",
"6 192 CURVE SMOOTH",
"6 190 LINE SMOOTH",
"6 74 OFFCURVE",
"85 -14 OFFCURVE",
"188 -14 CURVE SMOOTH"
);
},
{
closed = 1;
nodes = (
"169 106 OFFCURVE",
"137 156 OFFCURVE",
"137 212 CURVE SMOOTH",
"137 214 LINE SMOOTH",
"138 309 OFFCURVE",
"192 390 OFFCURVE",
"287 390 CURVE SMOOTH",
"347 390 OFFCURVE",
"386 346 OFFCURVE",
"386 284 CURVE SMOOTH",
"386 282 LINE SMOOTH",
"385 187 OFFCURVE",
"332 106 OFFCURVE",
"237 106 CURVE SMOOTH"
);
}
);
width = 612;
},
{
associatedMasterId = "612FA678-EA3C-4672-88DD-29ED08259473";
layerId = "E6241031-4F06-4496-B4C5-E47D5330F031";
name = "Sep 21 18, 10:07";
paths = (
{
closed = 1;
nodes = (
"274 -14 OFFCURVE",
"311 22 OFFCURVE",
"335 66 CURVE",
"353 66 LINE",
"354 61 OFFCURVE",
"355 57 OFFCURVE",
"357 52 CURVE SMOOTH",
"373 10 OFFCURVE",
"413 -14 OFFCURVE",
"459 -14 CURVE SMOOTH",
"489 -14 OFFCURVE",
"514 -6 OFFCURVE",
"541 12 CURVE SMOOTH",
"600 52 LINE",
"537 146 LINE",
"489 112 LINE",
"484 116 OFFCURVE",
"484 116 OFFCURVE",
"484 116 CURVE",
"484 116 OFFCURVE",
"484 116 OFFCURVE",
"479 120 CURVE",
"559 496 LINE",
"433 496 LINE",
"419 430 LINE",
"401 430 LINE",
"386 478 OFFCURVE",
"344 510 OFFCURVE",
"271 510 CURVE SMOOTH",
"106 510 OFFCURVE",
"7 369 OFFCURVE",
"6 192 CURVE SMOOTH",
"6 190 LINE SMOOTH",
"6 74 OFFCURVE",
"85 -14 OFFCURVE",
"188 -14 CURVE SMOOTH"
);
},
{
closed = 1;
nodes = (
"169 106 OFFCURVE",
"137 156 OFFCURVE",
"137 212 CURVE SMOOTH",
"137 214 LINE SMOOTH",
"138 309 OFFCURVE",
"192 390 OFFCURVE",
"287 390 CURVE SMOOTH",
"347 390 OFFCURVE",
"386 346 OFFCURVE",
"386 284 CURVE SMOOTH",
"386 282 LINE SMOOTH",
"385 187 OFFCURVE",
"332 106 OFFCURVE",
"237 106 CURVE SMOOTH"
);
}
);
width = 612;
},
{
associatedMasterId = "6008D70E-46A9-43E5-86AA-D196D19196A4";
layerId = "1D1FCC5E-3877-43BD-A0C3-5353204A3E18";
name = "Sep 21 18, 10:07";
paths = (
{
closed = 1;
nodes = (
"246 -14 OFFCURVE",
"306 8 OFFCURVE",
"347 78 CURVE",
"359 78 LINE",
"358 71 OFFCURVE",
"357 64 OFFCURVE",
"357 58 CURVE SMOOTH",
"357 6 OFFCURVE",
"398 -14 OFFCURVE",
"437 -14 CURVE SMOOTH",
"460 -14 OFFCURVE",
"483 -7 OFFCURVE",
"498 4 CURVE SMOOTH",
"543 38 LINE",
"501 97 LINE",
"465 71 LINE SMOOTH",
"461 68 OFFCURVE",
"455 66 OFFCURVE",
"451 66 CURVE SMOOTH",
"442 66 OFFCURVE",
"435 72 OFFCURVE",
"438 84 CURVE SMOOTH",
"526 496 LINE",
"448 496 LINE",
"432 418 LINE",
"420 418 LINE",
"406 478 OFFCURVE",
"354 510 OFFCURVE",
"286 510 CURVE SMOOTH",
"109 510 OFFCURVE",
"13 354 OFFCURVE",
"12 187 CURVE SMOOTH",
"12 184 LINE SMOOTH",
"12 66 OFFCURVE",
"77 -14 OFFCURVE",
"184 -14 CURVE SMOOTH"
);
},
{
closed = 1;
nodes = (
"134 60 OFFCURVE",
"94 106 OFFCURVE",
"94 194 CURVE SMOOTH",
"94 197 LINE SMOOTH",
"95 322 OFFCURVE",
"164 436 OFFCURVE",
"287 436 CURVE SMOOTH",
"365 436 OFFCURVE",
"402 381 OFFCURVE",
"402 299 CURVE SMOOTH",
"402 297 LINE SMOOTH",
"401 163 OFFCURVE",
"316 60 OFFCURVE",
"208 60 CURVE SMOOTH"
);
}
);
width = 612;
}
);
unicode = 0061;
},
{
glyphname = b;
lastChange = "2018-09-21 13:59:17 +0000";
layers = (
{
layerId = "FBAFFF81-1F8B-4B58-9158-C4AF3F48F88C";
paths = (
{
closed = 1;
nodes = (
"455 -14 OFFCURVE",
"559 76 OFFCURVE",
"559 238 CURVE SMOOTH",
"559 258 LINE SMOOTH",
"559 418 OFFCURVE",
"453 510 OFFCURVE",
"331 510 CURVE SMOOTH",
"259 510 OFFCURVE",
"193 478 OFFCURVE",
"159 418 CURVE",
"147 418 LINE",
"147 700 LINE",
"69 700 LINE",
"69 0 LINE",
"147 0 LINE",
"147 76 LINE",
"159 76 LINE",
"193 16 OFFCURVE",
"265 -14 OFFCURVE",
"329 -14 CURVE SMOOTH"
);
},
{
closed = 1;
nodes = (
"220 60 OFFCURVE",
"147 132 OFFCURVE",
"147 242 CURVE SMOOTH",
"147 254 LINE SMOOTH",
"147 360 OFFCURVE",
"221 436 OFFCURVE",
"313 436 CURVE SMOOTH",
"407 436 OFFCURVE",
"479 364 OFFCURVE",
"479 258 CURVE SMOOTH",
"479 238 LINE SMOOTH",
"479 128 OFFCURVE",
"408 60 OFFCURVE",
"313 60 CURVE SMOOTH"
);
}
);
width = 612;
},
{
layerId = "50C9B437-FF28-4DF4-B0E6-290519DD406F";
paths = (
{
closed = 1;
nodes = (
"478 -14 OFFCURVE",
"573 76 OFFCURVE",
"573 239 CURVE SMOOTH",
"573 257 LINE SMOOTH",
"573 416 OFFCURVE",
"473 510 OFFCURVE",
"356 510 CURVE SMOOTH",
"278 510 OFFCURVE",
"228 478 OFFCURVE",
"201 424 CURVE",
"183 424 LINE",
"183 700 LINE",
"57 700 LINE",
"57 0 LINE",
"183 0 LINE",
"183 72 LINE",
"201 72 LINE",
"224 28 OFFCURVE",
"266 -14 OFFCURVE",
"356 -14 CURVE SMOOTH"
);
},
{
closed = 1;
nodes = (
"237 106 OFFCURVE",
"183 161 OFFCURVE",
"183 242 CURVE SMOOTH",
"183 254 LINE SMOOTH",
"183 335 OFFCURVE",
"237 390 OFFCURVE",
"315 390 CURVE SMOOTH",
"393 390 OFFCURVE",
"447 337 OFFCURVE",
"447 254 CURVE SMOOTH",
"447 242 LINE SMOOTH",
"447 159 OFFCURVE",
"393 106 OFFCURVE",
"315 106 CURVE"
);
}
);
width = 612;
},
{
layerId = "6008D70E-46A9-43E5-86AA-D196D19196A4";
paths = (
{
closed = 1;
nodes = (
"445 -14 OFFCURVE",
"569 113 OFFCURVE",
"570 316 CURVE SMOOTH",
"570 318 LINE SMOOTH",
"570 434 OFFCURVE",
"492 510 OFFCURVE",
"388 510 CURVE SMOOTH",
"310 510 OFFCURVE",
"250 472 OFFCURVE",
"213 418 CURVE",
"201 418 LINE",
"264 714 LINE",
"187 714 LINE",
"36 0 LINE",
"113 0 LINE",
"129 76 LINE",
"141 76 LINE",
"162 16 OFFCURVE",
"226 -14 OFFCURVE",
"288 -14 CURVE SMOOTH"
);
},
{
closed = 1;
nodes = (
"208 60 OFFCURVE",
"161 110 OFFCURVE",
"161 198 CURVE SMOOTH",
"161 200 LINE SMOOTH",
"162 327 OFFCURVE",
"248 436 OFFCURVE",
"363 436 CURVE SMOOTH",
"443 436 OFFCURVE",
"488 384 OFFCURVE",
"488 303 CURVE SMOOTH",
"488 301 LINE SMOOTH",
"487 157 OFFCURVE",
"396 60 OFFCURVE",
"286 60 CURVE SMOOTH"
);
}
);
width = 612;
},
{
layerId = "612FA678-EA3C-4672-88DD-29ED08259473";
paths = (
{
closed = 1;
nodes = (
"453 -14 OFFCURVE",
"576 113 OFFCURVE",
"577 318 CURVE SMOOTH",
"577 320 LINE SMOOTH",
"577 434 OFFCURVE",
"512 510 OFFCURVE",
"410 510 CURVE SMOOTH",
"340 510 OFFCURVE",
"287 480 OFFCURVE",
"253 424 CURVE",
"235 424 LINE",
"297 714 LINE",
"170 714 LINE",
"20 0 LINE",
"145 0 LINE",
"160 72 LINE",
"178 72 LINE",
"187 26 OFFCURVE",
"216 -14 OFFCURVE",
"304 -14 CURVE SMOOTH"
);
},
{
closed = 1;
nodes = (
"228 106 OFFCURVE",
"193 144 OFFCURVE",
"193 208 CURVE SMOOTH",
"193 210 LINE SMOOTH",
"194 311 OFFCURVE",
"253 390 OFFCURVE",
"344 390 CURVE SMOOTH",
"406 390 OFFCURVE",
"446 350 OFFCURVE",
"446 288 CURVE SMOOTH",
"446 286 LINE SMOOTH",
"445 189 OFFCURVE",
"383 108 OFFCURVE",
"288 106 CURVE"
);
}
);
width = 612;
}
);
unicode = 0062;
},
{
glyphname = c;
lastChange = "2018-09-21 14:23:49 +0000";
layers = (
{
layerId = "FBAFFF81-1F8B-4B58-9158-C4AF3F48F88C";
paths = (
{
closed = 1;
nodes = (
"445 -14 OFFCURVE",
"531 66 OFFCURVE",
"551 176 CURVE",
"473 194 LINE",
"463 126 OFFCURVE",
"413 60 OFFCURVE",
"315 60 CURVE SMOOTH",
"217 60 OFFCURVE",
"139 128 OFFCURVE",
"139 240 CURVE SMOOTH",
"139 252 LINE SMOOTH",
"139 360 OFFCURVE",
"217 436 OFFCURVE",
"313 436 CURVE SMOOTH",
"405 436 OFFCURVE",
"456 380 OFFCURVE",
"469 315 CURVE SMOOTH",
"470 311 OFFCURVE",
"471 302 OFFCURVE",
"471 302 CURVE",
"549 320 LINE",
"549 320 OFFCURVE",
"548 326 OFFCURVE",
"546 335 CURVE SMOOTH",
"523 437 OFFCURVE",
"435 510 OFFCURVE",
"315 510 CURVE SMOOTH",
"177 510 OFFCURVE",
"59 412 OFFCURVE",
"59 252 CURVE SMOOTH",
"59 240 LINE SMOOTH",
"59 78 OFFCURVE",
"177 -14 OFFCURVE",
"315 -14 CURVE SMOOTH"
);
}
);
width = 612;
},
{
layerId = "50C9B437-FF28-4DF4-B0E6-290519DD406F";
paths = (
{
closed = 1;
nodes = (
"453 -14 OFFCURVE",
"540 65 OFFCURVE",
"562 182 CURVE",
"438 213 LINE",
"426 148 OFFCURVE",
"387 106 OFFCURVE",
"310 106 CURVE SMOOTH",
"238 106 OFFCURVE",
"178 152 OFFCURVE",
"178 241 CURVE SMOOTH",
"178 247 LINE SMOOTH",
"178 336 OFFCURVE",
"238 390 OFFCURVE",
"310 390 CURVE SMOOTH",
"380 390 OFFCURVE",
"422 349 OFFCURVE",
"435 297 CURVE SMOOTH",
"437 289 OFFCURVE",
"438 282 OFFCURVE",
"438 282 CURVE",
"562 314 LINE",
"562 314 OFFCURVE",
"559 328 OFFCURVE",
"557 336 CURVE SMOOTH",
"528 441 OFFCURVE",
"441 510 OFFCURVE",
"312 510 CURVE SMOOTH",
"167 510 OFFCURVE",
"52 410 OFFCURVE",
"52 250 CURVE SMOOTH",
"52 238 LINE SMOOTH",
"52 78 OFFCURVE",
"166 -14 OFFCURVE",
"312 -14 CURVE SMOOTH"
);
}
);
width = 612;
},
{
layerId = "6008D70E-46A9-43E5-86AA-D196D19196A4";
paths = (
{
closed = 1;
nodes = (
"386 -14 OFFCURVE",
"476 68 OFFCURVE",
"510 170 CURVE",
"436 194 LINE",
"416 126 OFFCURVE",
"356 60 OFFCURVE",
"250 60 CURVE SMOOTH",
"163 60 OFFCURVE",
"108 106 OFFCURVE",
"108 200 CURVE SMOOTH",
"108 202 LINE SMOOTH",
"109 327 OFFCURVE",
"203 436 OFFCURVE",
"326 436 CURVE SMOOTH",
"420 436 OFFCURVE",
"460 385 OFFCURVE",
"460 322 CURVE SMOOTH",
"460 317 OFFCURVE",
"460 314 OFFCURVE",
"459 306 CURVE",
"539 318 LINE",
"540 328 OFFCURVE",
"540 331 OFFCURVE",
"540 333 CURVE SMOOTH",
"540 437 OFFCURVE",
"462 510 OFFCURVE",
"340 510 CURVE SMOOTH",
"151 510 OFFCURVE",
"27 367 OFFCURVE",
"26.005 194.005 CURVE SMOOTH",
"26 192 LINE SMOOTH",
"26 66 OFFCURVE",
"108 -14 OFFCURVE",
"234 -14 CURVE SMOOTH"
);
}
);
width = 612;
},
{
layerId = "612FA678-EA3C-4672-88DD-29ED08259473";
paths = (
{
closed = 1;
nodes = (
"403 -14 OFFCURVE",
"497 64 OFFCURVE",
"534 182 CURVE",
"417 213 LINE",
"393 146 OFFCURVE",
"349 106 OFFCURVE",
"266 106 CURVE SMOOTH",
"205 106 OFFCURVE",
"160 141 OFFCURVE",
"160 217 CURVE SMOOTH",
"160 219 LINE SMOOTH",
"161 313 OFFCURVE",
"232 390 OFFCURVE",
"327 390 CURVE SMOOTH",
"402 390 OFFCURVE",
"434 351 OFFCURVE",
"435 286 CURVE SMOOTH",
"435 285 OFFCURVE",
"435 283.998 OFFCURVE",
"435 283 CURVE",
"563 308 LINE",
"563 309 OFFCURVE",
"563 310 OFFCURVE",
"563 311 CURVE SMOOTH",
"562 420 OFFCURVE",
"488 510 OFFCURVE",
"345 510 CURVE SMOOTH",
"150 510 OFFCURVE",
"31 375 OFFCURVE",
"30 210 CURVE SMOOTH",
"30 208 LINE SMOOTH",
"30 62 OFFCURVE",
"125 -14 OFFCURVE",
"243 -14 CURVE SMOOTH"
);
}
);
width = 612;
},
{
associatedMasterId = "FBAFFF81-1F8B-4B58-9158-C4AF3F48F88C";
layerId = "15880993-72B6-4D51-95AD-A90CC74BF7B1";
name = "Sep 21 18, 10:15";
paths = (
{
closed = 1;
nodes = (
"463 126 OFFCURVE",
"413 60 OFFCURVE",
"315 60 CURVE SMOOTH",
"217 60 OFFCURVE",
"139 128 OFFCURVE",
"139 240 CURVE SMOOTH",
"139 252 LINE SMOOTH",
"139 360 OFFCURVE",
"217 436 OFFCURVE",
"313 436 CURVE SMOOTH",
"411 436 OFFCURVE",
"463 372 OFFCURVE",
"471 302 CURVE",
"549 320 LINE",
"531 430 OFFCURVE",
"441 510 OFFCURVE",
"315 510 CURVE SMOOTH",
"177 510 OFFCURVE",
"59 412 OFFCURVE",
"59 252 CURVE SMOOTH",
"59 240 LINE SMOOTH",
"59 78 OFFCURVE",
"177 -14 OFFCURVE",
"315 -14 CURVE SMOOTH",
"445 -14 OFFCURVE",
"531 66 OFFCURVE",
"551 176 CURVE",
"473 194 LINE"
);
}
);
width = 612;
},
{
associatedMasterId = "50C9B437-FF28-4DF4-B0E6-290519DD406F";
layerId = "EDFB5724-80BA-43E4-8E83-7E9093E68EA5";
name = "Sep 21 18, 10:15";
paths = (
{
closed = 1;
nodes = (
"426 148 OFFCURVE",
"387 106 OFFCURVE",
"310 106 CURVE SMOOTH",
"238 106 OFFCURVE",
"178 152 OFFCURVE",
"178 241 CURVE SMOOTH",
"178 247 LINE SMOOTH",
"178 336 OFFCURVE",
"238 390 OFFCURVE",
"310 390 CURVE SMOOTH",
"387 390 OFFCURVE",
"430 341 OFFCURVE",
"438 282 CURVE",
"562 314 LINE",
"540 431 OFFCURVE",
"450 510 OFFCURVE",
"312 510 CURVE SMOOTH",
"167 510 OFFCURVE",
"52 410 OFFCURVE",
"52 250 CURVE SMOOTH",
"52 238 LINE SMOOTH",
"52 78 OFFCURVE",
"166 -14 OFFCURVE",
"312 -14 CURVE SMOOTH",
"453 -14 OFFCURVE",
"540 65 OFFCURVE",
"562 182 CURVE",
"438 213 LINE"
);
}
);
width = 612;
},
{
associatedMasterId = "612FA678-EA3C-4672-88DD-29ED08259473";
layerId = "3C29B499-C40E-48A4-9ABD-129FB37C7427";
name = "Sep 21 18, 10:15";
paths = (
{
closed = 1;
nodes = (
"393 146 OFFCURVE",
"349 106 OFFCURVE",
"266 106 CURVE SMOOTH",
"205 106 OFFCURVE",
"160 141 OFFCURVE",
"160 217 CURVE SMOOTH",
"160 312 OFFCURVE",
"231 390 OFFCURVE",
"327 390 CURVE SMOOTH",
"403 390 OFFCURVE",
"435 350 OFFCURVE",
"435 283 CURVE",
"563 308 LINE",
"563 418 OFFCURVE",
"489 510 OFFCURVE",
"345 510 CURVE SMOOTH",
"149 510 OFFCURVE",
"30 374 OFFCURVE",
"30 208 CURVE SMOOTH",
"30 62 OFFCURVE",
"125 -14 OFFCURVE",
"243 -14 CURVE SMOOTH",
"403 -14 OFFCURVE",
"497 64 OFFCURVE",
"534 182 CURVE",
"417 213 LINE"
);
}
);
width = 612;
}
);
unicode = 0063;
},
{
color = 0;
export = 0;
glyphname = d;
lastChange = "2018-09-16 21:49:09 +0000";
layers = (
{
layerId = "FBAFFF81-1F8B-4B58-9158-C4AF3F48F88C";
paths = (
{
closed = 1;
nodes = (
"549 0 LINE",
"549 700 LINE",
"471 700 LINE",
"471 418 LINE",
"459 418 LINE",
"427 480 OFFCURVE",
"363 510 OFFCURVE",
"295 510 CURVE SMOOTH",
"167 510 OFFCURVE",
"59 417 OFFCURVE",
"59 256 CURVE SMOOTH",
"59 240 LINE SMOOTH",
"59 77 OFFCURVE",
"165 -14 OFFCURVE",
"297 -14 CURVE SMOOTH",
"357 -14 OFFCURVE",
"427 14 OFFCURVE",
"459 76 CURVE",
"471 76 LINE",
"471 0 LINE"
);
},
{
closed = 1;
nodes = (
"210 60 OFFCURVE",
"139 129 OFFCURVE",
"139 240 CURVE SMOOTH",
"139 256 LINE SMOOTH",
"139 363 OFFCURVE",
"211 436 OFFCURVE",
"305 436 CURVE SMOOTH",
"397 436 OFFCURVE",
"471 360 OFFCURVE",
"471 254 CURVE SMOOTH",
"471 242 LINE SMOOTH",
"471 132 OFFCURVE",
"398 60 OFFCURVE",
"305 60 CURVE SMOOTH"
);
}
);
width = 612;
},
{
layerId = "50C9B437-FF28-4DF4-B0E6-290519DD406F";
paths = (
{
closed = 1;
nodes = (
"560 0 LINE",
"560 700 LINE",
"434 700 LINE",
"434 424 LINE",
"416 424 LINE",
"390 478 OFFCURVE",
"346 510 OFFCURVE",
"266 510 CURVE SMOOTH",
"145 510 OFFCURVE",
"44 416 OFFCURVE",
"44 257 CURVE SMOOTH",
"44 239 LINE SMOOTH",
"44 76 OFFCURVE",
"139 -14 OFFCURVE",
"261 -14 CURVE SMOOTH",
"356 -14 OFFCURVE",
"396 28 OFFCURVE",
"416 72 CURVE",
"434 72 LINE",
"434 0 LINE"
);
},
{
closed = 1;
nodes = (
"224 106 OFFCURVE",
"170 159 OFFCURVE",
"170 242 CURVE SMOOTH",
"170 254 LINE SMOOTH",
"170 337 OFFCURVE",
"224 390 OFFCURVE",
"302 390 CURVE SMOOTH",
"380 390 OFFCURVE",
"434 335 OFFCURVE",
"434 254 CURVE SMOOTH",
"434 242 LINE SMOOTH",
"434 161 OFFCURVE",
"380 106 OFFCURVE",
"302 106 CURVE SMOOTH"
);
}
);
width = 612;
},
{
layerId = "6008D70E-46A9-43E5-86AA-D196D19196A4";
paths = (
{
closed = 1;
nodes = (
"362 72 OFFCURVE",
"361 64 OFFCURVE",
"361 58 CURVE SMOOTH",
"361 6 OFFCURVE",
"402 -14 OFFCURVE",
"441 -14 CURVE SMOOTH",
"466 -14 OFFCURVE",
"487 -7 OFFCURVE",
"502 4 CURVE SMOOTH",
"547 38 LINE",
"504 97 LINE",
"468 71 LINE SMOOTH",
"464 68 OFFCURVE",
"460 66 OFFCURVE",
"455 66 CURVE SMOOTH",
"446 66 OFFCURVE",
"440 73 OFFCURVE",
"442 84 CURVE SMOOTH",
"576 714 LINE",
"498 714 LINE",
"436 418 LINE",
"424 418 LINE",
"407 482 OFFCURVE",
"357 510 OFFCURVE",
"287 510 CURVE SMOOTH",
"107 510 OFFCURVE",
"4 348 OFFCURVE",
"4 182 CURVE SMOOTH",
"4 64 OFFCURVE",
"75 -14 OFFCURVE",
"182 -14 CURVE SMOOTH",
"247 -14 OFFCURVE",
"309 8 OFFCURVE",
"351 78 CURVE",
"363 78 LINE"
);
},
{
closed = 1;
nodes = (
"127 60 OFFCURVE",
"86 104 OFFCURVE",
"86 193 CURVE SMOOTH",
"86 319 OFFCURVE",
"161 436 OFFCURVE",
"285 436 CURVE SMOOTH",
"363 436 OFFCURVE",
"406 381 OFFCURVE",
"406 299 CURVE SMOOTH",
"406 164 OFFCURVE",
"314 60 OFFCURVE",
"206 60 CURVE SMOOTH"
);
}
);
width = 612;
},
{
layerId = "612FA678-EA3C-4672-88DD-29ED08259473";
paths = (
{
closed = 1;
nodes = (
"606 714 LINE",
"479 714 LINE",
"418 424 LINE",
"400 424 LINE",
"387 474 OFFCURVE",
"341 510 OFFCURVE",
"271 510 CURVE SMOOTH",
"105 510 OFFCURVE",
"6 368 OFFCURVE",
"6 190 CURVE SMOOTH",
"6 74 OFFCURVE",
"85 -14 OFFCURVE",
"188 -14 CURVE SMOOTH",
"274 -14 OFFCURVE",
"311 22 OFFCURVE",
"335 66 CURVE",
"353 66 LINE",
"364 16 OFFCURVE",
"408 -14 OFFCURVE",
"459 -14 CURVE SMOOTH",
"486 -14 OFFCURVE",
"513 -7 OFFCURVE",
"541 12 CURVE SMOOTH",
"606 56 LINE",
"543 150 LINE",
"489 112 LINE",
"479 119 LINE",
"544 424 LINE"
);
},
{
closed = 1;
nodes = (
"169 106 OFFCURVE",
"137 156 OFFCURVE",
"137 212 CURVE SMOOTH",
"137 308 OFFCURVE",
"191 390 OFFCURVE",
"287 390 CURVE SMOOTH",
"347 390 OFFCURVE",
"386 346 OFFCURVE",
"386 284 CURVE SMOOTH",
"386 188 OFFCURVE",
"333 106 OFFCURVE",
"237 106 CURVE SMOOTH"
);
}
);
width = 612;
}
);
unicode = 0064;
},
{
glyphname = e;
lastChange = "2018-09-21 18:05:06 +0000";
layers = (
{
layerId = "FBAFFF81-1F8B-4B58-9158-C4AF3F48F88C";
paths = (
{
closed = 1;
nodes = (
"436 -14 OFFCURVE",
"510 50 OFFCURVE",
"538 142 CURVE",
"464 162 LINE",
"446 106 OFFCURVE",
"404 60 OFFCURVE",
"310 60 CURVE SMOOTH",
"213 60 OFFCURVE",
"154 120 OFFCURVE",
"145 210 CURVE SMOOTH",
"144 219 OFFCURVE",
"144 224 OFFCURVE",
"144 224 CURVE",
"544 224 LINE",
"544 266 LINE",
"544 273 OFFCURVE",
"544 281 OFFCURVE",
"544 288 CURVE SMOOTH",
"544 376 OFFCURVE",
"473 510 OFFCURVE",
"310 510 CURVE SMOOTH",
"171 510 OFFCURVE",
"66 406 OFFCURVE",
"66 266 CURVE SMOOTH",
"66 242 LINE SMOOTH",
"66 90 OFFCURVE",
"166 -14 OFFCURVE",
"308 -14 CURVE SMOOTH"
);
},
{
closed = 1;
nodes = (
"156 376 OFFCURVE",
"222 436 OFFCURVE",
"310 436 CURVE SMOOTH",
"384 436 OFFCURVE",
"455 387 OFFCURVE",
"465 308 CURVE SMOOTH",
"466 300 OFFCURVE",
"466 296 OFFCURVE",
"466 296 CURVE",
"146 296 LINE"
);
}
);
width = 612;
},
{
layerId = "50C9B437-FF28-4DF4-B0E6-290519DD406F";
paths = (
{
closed = 1;
nodes = (
"443 -14 OFFCURVE",
"502 52 OFFCURVE",
"525 102 CURVE",
"417 162 LINE",
"403 132 OFFCURVE",
"371 106 OFFCURVE",
"309 106 CURVE SMOOTH",
"251 106 OFFCURVE",
"202 140 OFFCURVE",
"191 190 CURVE SMOOTH",
"190 195 OFFCURVE",
"189 201 OFFCURVE",
"189 207 CURVE",
"553 207 LINE",
"553 250 LINE",
"553 258 OFFCURVE",
"553 266 OFFCURVE",
"553 274 CURVE SMOOTH",
"553 378 OFFCURVE",
"479 510 OFFCURVE",
"309 510 CURVE SMOOTH",
"171 510 OFFCURVE",
"59 408 OFFCURVE",
"59 256 CURVE SMOOTH",
"59 250 LINE SMOOTH",
"59 84 OFFCURVE",
"163 -14 OFFCURVE",
"311 -14 CURVE SMOOTH"
);
},
{
closed = 1;
nodes = (
"203 358 OFFCURVE",
"245 396 OFFCURVE",
"308 396 CURVE SMOOTH",
"362 396 OFFCURVE",
"403 371 OFFCURVE",
"419 335 CURVE SMOOTH",
"422 329 OFFCURVE",
"424 322 OFFCURVE",
"425 315 CURVE",
"191 315 LINE"
);
}
);
width = 612;
},
{
layerId = "6008D70E-46A9-43E5-86AA-D196D19196A4";
paths = (
{
closed = 1;
nodes = (
"367 -14 OFFCURVE",
"437 48 OFFCURVE",
"475 126 CURVE",
"411 162 LINE",
"385 106 OFFCURVE",
"336 59 OFFCURVE",
"242 59 CURVE SMOOTH",
"149 59 OFFCURVE",
"108 112 OFFCURVE",
"108 185 CURVE SMOOTH",
"108 199 OFFCURVE",
"110 213 OFFCURVE",
"112 224 CURVE",
"510 224 LINE",
"521 271 LINE SMOOTH",
"525 288 OFFCURVE",
"527 306 OFFCURVE",
"527 323 CURVE SMOOTH",
"527 419 OFFCURVE",
"465 510 OFFCURVE",
"331 510 CURVE SMOOTH",
"141 510 OFFCURVE",
"32 352 OFFCURVE",
"32 185 CURVE SMOOTH",
"32 183 LINE SMOOTH",
"33 59 OFFCURVE",
"118 -14 OFFCURVE",
"236 -14 CURVE SMOOTH"
);
},
{
closed = 1;
nodes = (
"156 376 OFFCURVE",
"228 436 OFFCURVE",
"321 436 CURVE SMOOTH",
"394 436 OFFCURVE",
"450 398 OFFCURVE",
"450 326 CURVE SMOOTH",
"450 317 OFFCURVE",
"449 307 OFFCURVE",
"447 296 CURVE",
"129 296 LINE"
);
}
);
width = 612;
},
{
layerId = "612FA678-EA3C-4672-88DD-29ED08259473";
paths = (
{
closed = 1;
nodes = (
"381 -14 OFFCURVE",
"449 48 OFFCURVE",
"481 100 CURVE",
"381 163 LINE",
"361 133 OFFCURVE",
"325 106 OFFCURVE",
"263 106 CURVE SMOOTH",
"204 106 OFFCURVE",
"163 142 OFFCURVE",
"163 190 CURVE SMOOTH",
"163 196 OFFCURVE",
"164 203 OFFCURVE",
"165 207 CURVE",
"529 207 LINE",
"540 258 LINE SMOOTH",
"545 284 OFFCURVE",
"547 299 OFFCURVE",
"547 315 CURVE SMOOTH",
"547 413 OFFCURVE",
"482 510 OFFCURVE",
"343 510 CURVE SMOOTH",
"148 510 OFFCURVE",
"37 363 OFFCURVE",
"36 182 CURVE SMOOTH",
"36 180 LINE SMOOTH",
"36 66 OFFCURVE",
"123 -14 OFFCURVE",
"245 -14 CURVE SMOOTH"
);
},
{
closed = 1;
nodes = (
"212 360 OFFCURVE",
"261 396 OFFCURVE",
"323 396 CURVE SMOOTH",
"386 396 OFFCURVE",
"417 372 OFFCURVE",
"423 331 CURVE SMOOTH",
"424 325 OFFCURVE",
"424 320 OFFCURVE",
"424 315 CURVE",
"190 315 LINE"
);
}
);
width = 612;
}
);
unicode = 0065;
userData = {
com.typemytype.robofont.guides = (
{
angle = 0;
isGlobal = 0;
magnetic = 5;
x = 0;
y = 176;
}
);
};
},
{
color = 0;
export = 0;
glyphname = f;
lastChange = "2018-09-16 21:49:09 +0000";
layers = (
{
layerId = "FBAFFF81-1F8B-4B58-9158-C4AF3F48F88C";
paths = (
{
closed = 1;
nodes = (
"235 424 LINE",
"235 0 LINE",
"313 0 LINE",
"313 424 LINE",
"520 424 LINE",
"520 496 LINE",
"313 496 LINE",
"313 598 LINE SMOOTH",
"313 617 OFFCURVE",
"321 628 OFFCURVE",
"340 628 CURVE SMOOTH",
"508 628 LINE",
"508 700 LINE",
"312 700 LINE SMOOTH",
"267 700 OFFCURVE",
"235 667 OFFCURVE",
"235 622 CURVE SMOOTH",
"235 496 LINE",
"82 496 LINE",
"82 424 LINE"
);
}
);
width = 612;
},
{
layerId = "50C9B437-FF28-4DF4-B0E6-290519DD406F";
paths = (
{
closed = 1;
nodes = (
"215 376 LINE",
"215 0 LINE",
"341 0 LINE",
"341 376 LINE",
"536 376 LINE",
"536 496 LINE",
"341 496 LINE",
"341 550 LINE SMOOTH",
"341 569 OFFCURVE",
"349 580 OFFCURVE",
"368 580 CURVE SMOOTH",
"518 580 LINE",
"518 700 LINE",
"316 700 LINE SMOOTH",
"259 700 OFFCURVE",
"215 655 OFFCURVE",
"215 598 CURVE SMOOTH",
"215 496 LINE",
"74 496 LINE",
"74 376 LINE"
);
}
);
width = 612;
},
{
layerId = "6008D70E-46A9-43E5-86AA-D196D19196A4";
paths = (
{
closed = 1;
nodes = (
"374 598 LINE SMOOTH",
"378 617 OFFCURVE",
"389 628 OFFCURVE",
"408 628 CURVE SMOOTH",
"574 628 LINE",
"574 700 LINE",
"395 700 LINE SMOOTH",
"350 700 OFFCURVE",
"311 667 OFFCURVE",
"301 622 CURVE SMOOTH",
"275 496 LINE",
"106 496 LINE",
"106 424 LINE",
"259 424 LINE",
"143 -118 LINE SMOOTH",
"141 -126 OFFCURVE",
"136 -133 OFFCURVE",
"126 -133 CURVE SMOOTH",
"117 -133 OFFCURVE",
"112 -128 OFFCURVE",
"108 -121 CURVE SMOOTH",
"66 -54 LINE",
"5 -93 LINE",
"49 -164 LINE SMOOTH",
"67 -193 OFFCURVE",
"91 -212 OFFCURVE",
"134 -212 CURVE SMOOTH",
"171 -212 OFFCURVE",
"206 -189 OFFCURVE",
"217 -138 CURVE SMOOTH",
"337 424 LINE",
"526 424 LINE",
"526 496 LINE",
"353 496 LINE"
);
}
);
width = 612;
},
{
layerId = "612FA678-EA3C-4672-88DD-29ED08259473";
paths = (
{
closed = 1;
nodes = (
"127 -76 LINE",
"83 0 LINE",
"-14 -59 LINE",
"49 -160 LINE SMOOTH",
"69 -193 OFFCURVE",
"109 -212 OFFCURVE",
"148 -212 CURVE SMOOTH",
"194 -212 OFFCURVE",
"239 -185 OFFCURVE",
"254 -120 CURVE SMOOTH",
"365 376 LINE",
"560 376 LINE",
"560 496 LINE",
"391 496 LINE",
"403 550 LINE SMOOTH",
"407 569 OFFCURVE",
"417 580 OFFCURVE",
"436 580 CURVE SMOOTH",
"586 580 LINE",
"586 700 LINE",
"410 700 LINE SMOOTH",
"353 700 OFFCURVE",
"299 655 OFFCURVE",
"287 598 CURVE SMOOTH",
"265 496 LINE",
"98 496 LINE",
"98 376 LINE",
"239 376 LINE",
"139 -74 LINE"
);
}
);
width = 612;
}
);
unicode = 0066;
},
{
export = 0;
glyphname = g;
lastChange = "2018-09-16 21:49:09 +0000";
layers = (
{
layerId = "FBAFFF81-1F8B-4B58-9158-C4AF3F48F88C";
paths = (
{
closed = 1;
nodes = (
"464 -117 OFFCURVE",
"456 -128 OFFCURVE",
"437 -128 CURVE SMOOTH",
"142 -128 LINE",
"142 -200 LINE",
"465 -200 LINE SMOOTH",
"510 -200 OFFCURVE",
"542 -167 OFFCURVE",
"542 -122 CURVE SMOOTH",
"542 496 LINE",
"464 496 LINE",
"464 418 LINE",
"452 418 LINE",
"422 478 OFFCURVE",
"366 510 OFFCURVE",
"294 510 CURVE SMOOTH",
"166 510 OFFCURVE",
"52 417 OFFCURVE",
"52 256 CURVE SMOOTH",
"52 240 LINE SMOOTH",
"52 77 OFFCURVE",
"164 -14 OFFCURVE",
"296 -14 CURVE SMOOTH",
"361 -14 OFFCURVE",
"420 16 OFFCURVE",
"452 76 CURVE",
"464 76 LINE",
"464 -98 LINE SMOOTH"
);
},
{
closed = 1;
nodes = (
"203 60 OFFCURVE",
"132 129 OFFCURVE",
"132 240 CURVE SMOOTH",
"132 256 LINE SMOOTH",
"132 363 OFFCURVE",
"204 436 OFFCURVE",
"298 436 CURVE SMOOTH",
"390 436 OFFCURVE",
"464 360 OFFCURVE",
"464 254 CURVE SMOOTH",
"464 242 LINE SMOOTH",
"464 132 OFFCURVE",
"391 60 OFFCURVE",
"298 60 CURVE SMOOTH"
);
}
);
width = 612;
},
{
layerId = "50C9B437-FF28-4DF4-B0E6-290519DD406F";
paths = (
{
closed = 1;
nodes = (
"432 -69 OFFCURVE",
"424 -80 OFFCURVE",
"405 -80 CURVE SMOOTH",
"147 -80 LINE",
"147 -200 LINE",
"481 -200 LINE SMOOTH",
"526 -200 OFFCURVE",
"558 -167 OFFCURVE",
"558 -122 CURVE SMOOTH",
"558 496 LINE",
"432 496 LINE",
"432 424 LINE",
"414 424 LINE",
"388 478 OFFCURVE",
"344 510 OFFCURVE",
"264 510 CURVE SMOOTH",
"143 510 OFFCURVE",
"42 416 OFFCURVE",
"42 257 CURVE SMOOTH",
"42 239 LINE SMOOTH",
"42 76 OFFCURVE",
"137 -14 OFFCURVE",
"259 -14 CURVE SMOOTH",
"354 -14 OFFCURVE",
"394 28 OFFCURVE",
"414 72 CURVE",
"432 72 LINE",
"432 -50 LINE SMOOTH"
);
},
{
closed = 1;
nodes = (
"222 106 OFFCURVE",
"168 159 OFFCURVE",
"168 242 CURVE SMOOTH",
"168 254 LINE SMOOTH",
"168 337 OFFCURVE",
"222 390 OFFCURVE",
"300 390 CURVE SMOOTH",
"378 390 OFFCURVE",
"432 335 OFFCURVE",
"432 254 CURVE SMOOTH",
"432 242 LINE SMOOTH",
"432 161 OFFCURVE",
"378 106 OFFCURVE",
"300 106 CURVE SMOOTH"
);
}
);
width = 612;
},
{
layerId = "6008D70E-46A9-43E5-86AA-D196D19196A4";
paths = (
{
closed = 1;
nodes = (
"355 -117 OFFCURVE",
"344 -128 OFFCURVE",
"325 -128 CURVE SMOOTH",
"36 -128 LINE",
"36 -200 LINE",
"338 -200 LINE SMOOTH",
"383 -200 OFFCURVE",
"422 -167 OFFCURVE",
"432 -122 CURVE SMOOTH",
"563 496 LINE",
"485 496 LINE",
"468 418 LINE",
"456 418 LINE",
"440 472 OFFCURVE",
"386 510 OFFCURVE",
"308 510 CURVE SMOOTH",
"140 510 OFFCURVE",
"24 370 OFFCURVE",
"24 186 CURVE SMOOTH",
"24 66 OFFCURVE",
"100 -14 OFFCURVE",
"215 -14 CURVE SMOOTH",
"284 -14 OFFCURVE",
"344 14 OFFCURVE",
"383 70 CURVE",
"395 70 LINE",
"359 -98 LINE SMOOTH"
);
},
{
closed = 1;
nodes = (
"150 60 OFFCURVE",
"105 112 OFFCURVE",
"105 194 CURVE SMOOTH",
"105 320 OFFCURVE",
"184 436 OFFCURVE",
"310 436 CURVE SMOOTH",
"388 436 OFFCURVE",
"439 380 OFFCURVE",
"439 298 CURVE SMOOTH",
"439 180 OFFCURVE",
"354 60 OFFCURVE",
"232 60 CURVE SMOOTH"
);
}
);
width = 612;
},
{
layerId = "612FA678-EA3C-4672-88DD-29ED08259473";
paths = (
{
closed = 1;
nodes = (
"354 -69 OFFCURVE",
"344 -80 OFFCURVE",
"325 -80 CURVE SMOOTH",
"67 -80 LINE",
"67 -200 LINE",
"375 -200 LINE SMOOTH",
"420 -200 OFFCURVE",
"459 -167 OFFCURVE",
"469 -122 CURVE SMOOTH",
"600 496 LINE",
"474 496 LINE",
"459 424 LINE",
"441 424 LINE",
"430 476 OFFCURVE",
"390 510 OFFCURVE",
"309 510 CURVE SMOOTH",
"120 510 OFFCURVE",
"22 346 OFFCURVE",
"22 180 CURVE SMOOTH",
"22 50 OFFCURVE",
"98 -14 OFFCURVE",
"194 -14 CURVE SMOOTH",
"294 -14 OFFCURVE",
"338 28 OFFCURVE",
"366 72 CURVE",
"384 72 LINE",
"358 -50 LINE SMOOTH"
);
},
{
closed = 1;
nodes = (
"195 106 OFFCURVE",
"152 142 OFFCURVE",
"152 212 CURVE SMOOTH",
"152 304 OFFCURVE",
"218 390 OFFCURVE",
"319 390 CURVE SMOOTH",
"386 390 OFFCURVE",
"426 352 OFFCURVE",
"426 288 CURVE SMOOTH",
"426 192 OFFCURVE",
"355 106 OFFCURVE",
"259 106 CURVE SMOOTH"
);
}
);
width = 612;
}
);
unicode = 0067;
},
{
color = 0;
export = 0;
glyphname = h;
lastChange = "2018-09-16 21:49:09 +0000";
layers = (
{
layerId = "FBAFFF81-1F8B-4B58-9158-C4AF3F48F88C";
paths = (
{
closed = 1;
nodes = (
"165 366 OFFCURVE",
"223 436 OFFCURVE",
"317 436 CURVE SMOOTH",
"397 436 OFFCURVE",
"447 384 OFFCURVE",
"447 280 CURVE SMOOTH",
"447 0 LINE",
"525 0 LINE",
"525 296 LINE SMOOTH",
"525 438 OFFCURVE",
"451 510 OFFCURVE",
"343 510 CURVE SMOOTH",
"263 510 OFFCURVE",
"207 470 OFFCURVE",
"177 406 CURVE",
"165 406 LINE",
"165 700 LINE",
"87 700 LINE",
"87 0 LINE",
"165 0 LINE",
"165 258 LINE SMOOTH"
);
}
);
width = 612;
},
{
layerId = "50C9B437-FF28-4DF4-B0E6-290519DD406F";
paths = (
{
closed = 1;
nodes = (
"206 342 OFFCURVE",
"243 396 OFFCURVE",
"317 396 CURVE SMOOTH",
"381 396 OFFCURVE",
"416 352 OFFCURVE",
"416 282 CURVE SMOOTH",
"416 0 LINE",
"542 0 LINE",
"542 312 LINE SMOOTH",
"542 448 OFFCURVE",
"469 510 OFFCURVE",
"371 510 CURVE SMOOTH",
"299 510 OFFCURVE",
"249 476 OFFCURVE",
"224 416 CURVE",
"206 416 LINE",
"206 700 LINE",
"80 700 LINE",
"80 0 LINE",
"206 0 LINE",
"206 258 LINE SMOOTH"
);
}
);
width = 612;
},
{
layerId = "6008D70E-46A9-43E5-86AA-D196D19196A4";
paths = (
{
closed = 1;
nodes = (
"380 76 OFFCURVE",
"379 68 OFFCURVE",
"379 60 CURVE SMOOTH",
"379 9 OFFCURVE",
"416 -14 OFFCURVE",
"457 -14 CURVE SMOOTH",
"478 -14 OFFCURVE",
"501 -7 OFFCURVE",
"518 5 CURVE SMOOTH",
"564 38 LINE",
"522 97 LINE",
"483 69 LINE SMOOTH",
"478 65 OFFCURVE",
"474 64 OFFCURVE",
"471 64 CURVE SMOOTH",
"461 64 OFFCURVE",
"456 70 OFFCURVE",
"458 79 CURVE SMOOTH",
"502 288 LINE SMOOTH",
"507 311 OFFCURVE",
"509 332 OFFCURVE",
"509 352 CURVE SMOOTH",
"509 452 OFFCURVE",
"444 510 OFFCURVE",
"356 510 CURVE SMOOTH",
"290 510 OFFCURVE",
"234 484 OFFCURVE",
"201 422 CURVE",
"189 422 LINE",
"249 714 LINE",
"174 714 LINE",
"22 0 LINE",
"99 0 LINE",
"154 258 LINE SMOOTH",
"177 366 OFFCURVE",
"238 436 OFFCURVE",
"328 436 CURVE SMOOTH",
"388 436 OFFCURVE",
"434 409 OFFCURVE",
"434 340 CURVE SMOOTH",
"434 326 OFFCURVE",
"432 313 OFFCURVE",
"428 294 CURVE SMOOTH",
"382 86 LINE SMOOTH"
);
}
);
width = 612;
},
{
layerId = "612FA678-EA3C-4672-88DD-29ED08259473";
paths = (
{
closed = 1;
nodes = (
"347 112 OFFCURVE",
"346 104 OFFCURVE",
"346 94 CURVE SMOOTH",
"346 27 OFFCURVE",
"397 -14 OFFCURVE",
"456 -14 CURVE SMOOTH",
"483 -14 OFFCURVE",
"511 -6 OFFCURVE",
"537 12 CURVE SMOOTH",
"612 62 LINE",
"549 156 LINE",
"485 112 LINE",
"475 119 LINE",
"515 306 LINE SMOOTH",
"519 327 OFFCURVE",
"522 347 OFFCURVE",
"522 365 CURVE SMOOTH",
"522 459 OFFCURVE",
"463 510 OFFCURVE",
"381 510 CURVE SMOOTH",
"319 510 OFFCURVE",
"270 484 OFFCURVE",
"235 428 CURVE",
"217 428 LINE",
"278 714 LINE",
"152 714 LINE",
"0 0 LINE",
"126 0 LINE",
"182 264 LINE SMOOTH",
"199 344 OFFCURVE",
"243 396 OFFCURVE",
"311 396 CURVE SMOOTH",
"359 396 OFFCURVE",
"389 368 OFFCURVE",
"389 320 CURVE SMOOTH",
"389 310 OFFCURVE",
"388 303 OFFCURVE",
"385 288 CURVE SMOOTH",
"350 126 LINE SMOOTH"
);
}
);
width = 612;
}
);
unicode = 0068;
},
{
color = 0;
export = 0;
glyphname = i;
lastChange = "2018-09-16 21:49:09 +0000";
layers = (
{
layerId = "FBAFFF81-1F8B-4B58-9158-C4AF3F48F88C";
paths = (
{
closed = 1;
nodes = (
"241 606 OFFCURVE",
"273 574 OFFCURVE",
"311 574 CURVE SMOOTH",
"349 574 OFFCURVE",
"381 606 OFFCURVE",
"381 644 CURVE SMOOTH",
"381 682 OFFCURVE",
"349 714 OFFCURVE",
"311 714 CURVE SMOOTH",
"273 714 OFFCURVE",
"241 682 OFFCURVE",
"241 644 CURVE SMOOTH"
);
},
{
closed = 1;
nodes = (
"513 0 LINE",
"513 72 LINE",
"351 72 LINE",
"351 496 LINE",
"117 496 LINE",
"117 424 LINE",
"273 424 LINE",
"273 72 LINE",
"99 72 LINE",
"99 0 LINE"
);
}
);
width = 612;
},
{
layerId = "50C9B437-FF28-4DF4-B0E6-290519DD406F";
paths = (
{
closed = 1;
nodes = (
"525 0 LINE",
"525 120 LINE",
"381 120 LINE",
"381 496 LINE",
"99 496 LINE",
"99 376 LINE",
"255 376 LINE",
"255 120 LINE",
"87 120 LINE",
"87 0 LINE"
);
},
{
closed = 1;
nodes = (
"412 696 OFFCURVE",
"369 738 OFFCURVE",
"317 738 CURVE SMOOTH",
"265 738 OFFCURVE",
"222 696 OFFCURVE",
"222 643 CURVE SMOOTH",
"222 590 OFFCURVE",
"265 548 OFFCURVE",
"317 548 CURVE SMOOTH",
"369 548 OFFCURVE",
"412 590 OFFCURVE",
"412 643 CURVE SMOOTH"
);
}
);
width = 612;
},
{
layerId = "6008D70E-46A9-43E5-86AA-D196D19196A4";
paths = (
{
closed = 1;
nodes = (
"303 606 OFFCURVE",
"335 574 OFFCURVE",
"373 574 CURVE SMOOTH",
"411 574 OFFCURVE",
"443 606 OFFCURVE",
"443 644 CURVE SMOOTH",
"443 682 OFFCURVE",
"411 714 OFFCURVE",
"373 714 CURVE SMOOTH",
"335 714 OFFCURVE",
"303 682 OFFCURVE",
"303 644 CURVE SMOOTH"
);
},
{
closed = 1;
nodes = (
"210 88 OFFCURVE",
"209 78 OFFCURVE",
"209 68 CURVE SMOOTH",
"209 13 OFFCURVE",
"248 -14 OFFCURVE",
"293 -14 CURVE SMOOTH",
"315 -14 OFFCURVE",
"339 -7 OFFCURVE",
"360 7 CURVE SMOOTH",
"475 85 LINE",
"435 144 LINE",
"320 66 LINE SMOOTH",
"315 63 OFFCURVE",
"310 61 OFFCURVE",
"305 61 CURVE SMOOTH",
"293 61 OFFCURVE",
"284 71 OFFCURVE",
"288 87 CURVE SMOOTH",
"362 396 LINE SMOOTH",
"365 408 OFFCURVE",
"366 418 OFFCURVE",
"366 428 CURVE SMOOTH",
"366 483 OFFCURVE",
"327 510 OFFCURVE",
"282 510 CURVE SMOOTH",
"259 510 OFFCURVE",
"236 503 OFFCURVE",
"215 489 CURVE SMOOTH",
"97 409 LINE",
"137 350 LINE",
"254 430 LINE SMOOTH",
"259 433 OFFCURVE",
"264 434 OFFCURVE",
"269 434 CURVE SMOOTH",
"284 434 OFFCURVE",
"290 422 OFFCURVE",
"287 409 CURVE SMOOTH",
"213 100 LINE SMOOTH"
);
}
);
width = 612;
},
{
layerId = "612FA678-EA3C-4672-88DD-29ED08259473";
paths = (
{
closed = 1;
nodes = (
"525 110 LINE",
"462 204 LINE",
"328 112 LINE",
"318 119 LINE",
"378 370 LINE SMOOTH",
"381 382 OFFCURVE",
"382 394 OFFCURVE",
"382 405 CURVE SMOOTH",
"382 470 OFFCURVE",
"332 510 OFFCURVE",
"273 510 CURVE SMOOTH",
"246 510 OFFCURVE",
"217 502 OFFCURVE",
"191 484 CURVE SMOOTH",
"46 386 LINE",
"109 292 LINE",
"243 384 LINE",
"253 377 LINE",
"193 126 LINE SMOOTH",
"190 114 OFFCURVE",
"189 102 OFFCURVE",
"189 91 CURVE SMOOTH",
"189 26 OFFCURVE",
"239 -14 OFFCURVE",
"298 -14 CURVE SMOOTH",
"325 -14 OFFCURVE",
"354 -6 OFFCURVE",
"380 12 CURVE"
);
},
{
closed = 1;
nodes = (
"467 696 OFFCURVE",
"424 738 OFFCURVE",
"372 738 CURVE SMOOTH",
"320 738 OFFCURVE",
"277 696 OFFCURVE",
"277 643 CURVE SMOOTH",
"277 590 OFFCURVE",
"320 548 OFFCURVE",
"372 548 CURVE SMOOTH",
"424 548 OFFCURVE",
"467 590 OFFCURVE",
"467 643 CURVE SMOOTH"
);
}
);
width = 612;
}
);
unicode = 0069;
},
{
color = 0;
export = 0;
glyphname = j;
lastChange = "2018-09-16 21:49:09 +0000";
layers = (
{
layerId = "FBAFFF81-1F8B-4B58-9158-C4AF3F48F88C";
paths = (
{
closed = 1;
nodes = (
"307 606 OFFCURVE",
"339 574 OFFCURVE",
"377 574 CURVE SMOOTH",
"415 574 OFFCURVE",
"447 606 OFFCURVE",
"447 644 CURVE SMOOTH",
"447 682 OFFCURVE",
"415 714 OFFCURVE",
"377 714 CURVE SMOOTH",
"339 714 OFFCURVE",
"307 682 OFFCURVE",
"307 644 CURVE SMOOTH"
);
},
{
closed = 1;
nodes = (
"339 424 LINE",
"339 -98 LINE SMOOTH",
"339 -117 OFFCURVE",
"331 -128 OFFCURVE",
"312 -128 CURVE SMOOTH",
"117 -128 LINE",
"117 -200 LINE",
"340 -200 LINE SMOOTH",
"385 -200 OFFCURVE",
"417 -167 OFFCURVE",
"417 -122 CURVE SMOOTH",
"417 496 LINE",
"141 496 LINE",
"141 424 LINE"
);
}
);
width = 612;
},
{
layerId = "50C9B437-FF28-4DF4-B0E6-290519DD406F";
paths = (
{
closed = 1;
nodes = (
"318 376 LINE",
"318 -47 LINE SMOOTH",
"318 -68 OFFCURVE",
"309 -80 OFFCURVE",
"288 -80 CURVE SMOOTH",
"108 -80 LINE",
"108 -200 LINE",
"343 -200 LINE SMOOTH",
"403 -200 OFFCURVE",
"444 -167 OFFCURVE",
"444 -98 CURVE SMOOTH",
"444 496 LINE",
"126 496 LINE",
"126 376 LINE"
);
},
{
closed = 1;
nodes = (
"474 696 OFFCURVE",
"431 738 OFFCURVE",
"379 738 CURVE SMOOTH",
"327 738 OFFCURVE",
"284 696 OFFCURVE",
"284 643 CURVE SMOOTH",
"284 590 OFFCURVE",
"327 548 OFFCURVE",
"379 548 CURVE SMOOTH",
"431 548 OFFCURVE",
"474 590 OFFCURVE",
"474 643 CURVE SMOOTH"
);
}
);
width = 612;
},
{
layerId = "6008D70E-46A9-43E5-86AA-D196D19196A4";
paths = (
{
closed = 1;
nodes = (
"361 606 OFFCURVE",
"393 574 OFFCURVE",
"431 574 CURVE SMOOTH",
"469 574 OFFCURVE",
"501 606 OFFCURVE",
"501 644 CURVE SMOOTH",
"501 682 OFFCURVE",
"469 714 OFFCURVE",
"431 714 CURVE SMOOTH",
"393 714 OFFCURVE",
"361 682 OFFCURVE",
"361 644 CURVE SMOOTH"
);
},
{
closed = 1;
nodes = (
"429 411 OFFCURVE",
"430 419 OFFCURVE",
"430 427 CURVE SMOOTH",
"430 478 OFFCURVE",
"393 510 OFFCURVE",
"349 510 CURVE SMOOTH",
"329 510 OFFCURVE",
"307 503 OFFCURVE",
"286 489 CURVE SMOOTH",
"168 409 LINE",
"208 350 LINE",
"325 430 LINE SMOOTH",
"328 432 OFFCURVE",
"332 434 OFFCURVE",
"337 434 CURVE SMOOTH",
"346 434 OFFCURVE",
"355 427 OFFCURVE",
"352 412 CURVE SMOOTH",
"243 -98 LINE SMOOTH",
"239 -117 OFFCURVE",
"229 -128 OFFCURVE",
"210 -128 CURVE SMOOTH",
"0 -128 LINE",
"0 -200 LINE",
"223 -200 LINE SMOOTH",
"268 -200 OFFCURVE",
"307 -167 OFFCURVE",
"316 -122 CURVE SMOOTH",
"427 401 LINE"
);
}
);
width = 612;
},
{
layerId = "612FA678-EA3C-4672-88DD-29ED08259473";
paths = (
{
closed = 1;
nodes = (
"549 696 OFFCURVE",
"506 738 OFFCURVE",
"454 738 CURVE SMOOTH",
"402 738 OFFCURVE",
"359 696 OFFCURVE",
"359 643 CURVE SMOOTH",
"359 590 OFFCURVE",
"402 548 OFFCURVE",
"454 548 CURVE SMOOTH",
"506 548 OFFCURVE",
"549 590 OFFCURVE",
"549 643 CURVE SMOOTH"
);
},
{
closed = 1;
nodes = (
"463 380 OFFCURVE",
"464 392 OFFCURVE",
"464 402 CURVE SMOOTH",
"464 470 OFFCURVE",
"415 510 OFFCURVE",
"356 510 CURVE SMOOTH",
"329 510 OFFCURVE",
"301 502 OFFCURVE",
"274 484 CURVE SMOOTH",
"129 386 LINE",
"192 292 LINE",
"326 384 LINE",
"336 377 LINE",
"242 -47 LINE SMOOTH",
"237 -68 OFFCURVE",
"226 -80 OFFCURVE",
"205 -80 CURVE SMOOTH",
"0 -80 LINE",
"0 -200 LINE",
"235 -200 LINE SMOOTH",
"295 -200 OFFCURVE",
"342 -167 OFFCURVE",
"357 -98 CURVE SMOOTH",
"461 370 LINE SMOOTH"
);
}
);
width = 612;
}
);
unicode = 006A;
},
{
color = 0;
export = 0;
glyphname = k;
lastChange = "2018-09-16 21:49:09 +0000";
layers = (
{
layerId = "FBAFFF81-1F8B-4B58-9158-C4AF3F48F88C";
paths = (
{
closed = 1;
nodes = (
"137 700 LINE",
"137 0 LINE",
"215 0 LINE",
"215 218 LINE",
"234 218 LINE",
"445 0 LINE",
"541 0 LINE",
"541 6 LINE",
"311 245 LINE",
"311 263 LINE",
"517 490 LINE",
"517 496 LINE",
"421 496 LINE",
"232 290 LINE",
"215 290 LINE",
"215 700 LINE"
);
}
);
width = 612;
},
{
layerId = "50C9B437-FF28-4DF4-B0E6-290519DD406F";
paths = (
{
closed = 1;
nodes = (
"118 700 LINE",
"118 0 LINE",
"244 0 LINE",
"244 194 LINE",
"268 194 LINE",
"410 0 LINE",
"554 0 LINE",
"554 6 LINE",
"378 245 LINE",
"378 263 LINE",
"538 490 LINE",
"538 496 LINE",
"400 496 LINE",
"268 314 LINE",
"244 314 LINE",
"244 700 LINE"
);
}
);
width = 612;
},
{
layerId = "6008D70E-46A9-43E5-86AA-D196D19196A4";
paths = (
{
closed = 1;
nodes = (
"50 0 LINE",
"128 0 LINE",
"174 218 LINE",
"204 218 LINE",
"342 29 LINE SMOOTH",
"364 -1 OFFCURVE",
"390 -14 OFFCURVE",
"416 -14 CURVE SMOOTH",
"438 -14 OFFCURVE",
"459 -5 OFFCURVE",
"477 9 CURVE SMOOTH",
"522 43 LINE",
"480 102 LINE",
"432 67 LINE SMOOTH",
"428 64 OFFCURVE",
"424 62 OFFCURVE",
"419 62 CURVE SMOOTH",
"414 62 OFFCURVE",
"410 64 OFFCURVE",
"406 69 CURVE SMOOTH",
"277 245 LINE",
"277 263 LINE",
"498 457 LINE",
"450 508 LINE",
"202 290 LINE",
"190 290 LINE",
"279 713 LINE",
"201 713 LINE"
);
}
);
width = 612;
},
{
layerId = "612FA678-EA3C-4672-88DD-29ED08259473";
paths = (
{
closed = 1;
nodes = (
"191 194 LINE",
"214 194 LINE",
"304 46 LINE",
"327 7 OFFCURVE",
"363 -14 OFFCURVE",
"405 -14 CURVE SMOOTH",
"434 -14 OFFCURVE",
"466 -5 OFFCURVE",
"499 20 CURVE SMOOTH",
"544 54 LINE",
"483 142 LINE",
"428 104 LINE",
"416 104 LINE",
"336 236 LINE",
"336 254 LINE",
"520 426 LINE",
"442 510 LINE",
"241 314 LINE",
"217 314 LINE",
"302 714 LINE",
"176 714 LINE",
"24 0 LINE",
"150 0 LINE"
);
}
);
width = 612;
}
);
unicode = 006B;
userData = {
com.typemytype.robofont.guides = (
{
angle = 90;
isGlobal = 0;
magnetic = 5;
x = 227;
y = 0;
}
);
};
},
{
color = 0;
export = 0;
glyphname = l;
lastChange = "2018-09-16 22:05:05 +0000";
layers = (
{
layerId = "FBAFFF81-1F8B-4B58-9158-C4AF3F48F88C";
paths = (
{
closed = 1;
nodes = (
"525 72 LINE",
"357 72 LINE SMOOTH",
"345 72 OFFCURVE",
"345 72 OFFCURVE",
"345 72 CURVE",
"345 72 OFFCURVE",
"345 72 OFFCURVE",
"345 87 CURVE SMOOTH",
"345 659 LINE SMOOTH",
"345 689 OFFCURVE",
"345 696 OFFCURVE",
"345 699 CURVE SMOOTH",
"345 700 OFFCURVE",
"345 700 OFFCURVE",
"345 700 CURVE",
"333 700 OFFCURVE",
"329 700 OFFCURVE",
"279 700 CURVE SMOOTH",
"93 700 LINE",
"93 628 LINE",
"260 628 LINE SMOOTH",
"267 628 OFFCURVE",
"267 628 OFFCURVE",
"267 628 CURVE",
"267 628 OFFCURVE",
"267 628 OFFCURVE",
"267 626 CURVE SMOOTH",
"267 52 LINE SMOOTH",
"267 21 OFFCURVE",
"267 11 OFFCURVE",
"267 1 CURVE SMOOTH",
"267 0 OFFCURVE",
"267 0 OFFCURVE",
"267 0 CURVE",
"291 0 OFFCURVE",
"306 0 OFFCURVE",
"340 0 CURVE SMOOTH",
"525 0 LINE"
);
},
{
closed = 1;
nodes = (
"323 72 LINE",
"87 72 LINE",
"87 0 LINE",
"323 0 LINE"
);
}
);
width = 612;
},
{
layerId = "50C9B437-FF28-4DF4-B0E6-290519DD406F";
paths = (
{
closed = 1;
nodes = (
"525 72 LINE",
"357 72 LINE SMOOTH",
"345 72 OFFCURVE",
"345 72 OFFCURVE",
"345 72 CURVE",
"345 72 OFFCURVE",
"345 72 OFFCURVE",
"345 87 CURVE SMOOTH",
"345 659 LINE SMOOTH",
"345 689 OFFCURVE",
"345 696 OFFCURVE",
"345 699 CURVE SMOOTH",
"345 700 OFFCURVE",
"345 700 OFFCURVE",
"345 700 CURVE",
"333 700 OFFCURVE",
"329 700 OFFCURVE",
"279 700 CURVE SMOOTH",
"93 700 LINE",
"93 628 LINE",
"260 628 LINE SMOOTH",
"267 628 OFFCURVE",
"267 628 OFFCURVE",
"267 628 CURVE",
"267 628 OFFCURVE",
"267 628 OFFCURVE",
"267 626 CURVE SMOOTH",
"267 52 LINE SMOOTH",
"267 21 OFFCURVE",
"267 11 OFFCURVE",
"267 1 CURVE SMOOTH",
"267 0 OFFCURVE",
"267 0 OFFCURVE",
"267 0 CURVE",
"291 0 OFFCURVE",
"306 0 OFFCURVE",
"340 0 CURVE SMOOTH",
"525 0 LINE"
);
},
{
closed = 1;
nodes = (
"323 72 LINE",
"87 72 LINE",
"87 0 LINE",
"323 0 LINE"
);
}
);
width = 612;
},
{
layerId = "6008D70E-46A9-43E5-86AA-D196D19196A4";
paths = (
{
closed = 1;
nodes = (
"405 144 LINE",
"290 66 LINE SMOOTH",
"285 63 OFFCURVE",
"281 61 OFFCURVE",
"275 61 CURVE SMOOTH",
"263 61 OFFCURVE",
"254 71 OFFCURVE",
"258 87 CURVE SMOOTH",
"379 600 LINE SMOOTH",
"382 611 OFFCURVE",
"383 622 OFFCURVE",
"383 632 CURVE SMOOTH",
"383 687 OFFCURVE",
"343 714 OFFCURVE",
"299 714 CURVE SMOOTH",
"277 714 OFFCURVE",
"253 707 OFFCURVE",
"232 693 CURVE SMOOTH",
"114 613 LINE",
"154 554 LINE",
"271 634 LINE SMOOTH",
"276 637 OFFCURVE",
"281 639 OFFCURVE",
"286 639 CURVE SMOOTH",
"299 639 OFFCURVE",
"308 630 OFFCURVE",
"304 614 CURVE SMOOTH",
"183 100 LINE SMOOTH",
"180 89 OFFCURVE",
"179 78 OFFCURVE",
"179 68 CURVE SMOOTH",
"179 13 OFFCURVE",
"219 -14 OFFCURVE",
"263 -14 CURVE SMOOTH",
"285 -14 OFFCURVE",
"309 -7 OFFCURVE",
"330 7 CURVE SMOOTH",
"445 85 LINE"
);
},
{
closed = 1;
nodes = (
"244 52 LINE",
"230 52 LINE",
"221 20 LINE",
"234 20 LINE"
);
}
);
width = 612;
},
{
layerId = "612FA678-EA3C-4672-88DD-29ED08259473";
paths = (
{
closed = 1;
nodes = (
"525 72 LINE",
"357 72 LINE SMOOTH",
"345 72 OFFCURVE",
"345 72 OFFCURVE",
"345 72 CURVE",
"345 72 OFFCURVE",
"345 72 OFFCURVE",
"345 87 CURVE SMOOTH",
"345 659 LINE SMOOTH",
"345 689 OFFCURVE",
"345 696 OFFCURVE",
"345 699 CURVE SMOOTH",
"345 700 OFFCURVE",
"345 700 OFFCURVE",
"345 700 CURVE",
"333 700 OFFCURVE",
"329 700 OFFCURVE",
"279 700 CURVE SMOOTH",
"93 700 LINE",
"93 628 LINE",
"260 628 LINE SMOOTH",
"267 628 OFFCURVE",
"267 628 OFFCURVE",
"267 628 CURVE",
"267 628 OFFCURVE",
"267 628 OFFCURVE",
"267 626 CURVE SMOOTH",
"267 52 LINE SMOOTH",
"267 21 OFFCURVE",
"267 11 OFFCURVE",
"267 1 CURVE SMOOTH",
"267 0 OFFCURVE",
"267 0 OFFCURVE",
"267 0 CURVE",
"291 0 OFFCURVE",
"306 0 OFFCURVE",
"340 0 CURVE SMOOTH",
"525 0 LINE"
);
},
{
closed = 1;
nodes = (
"323 72 LINE",
"87 72 LINE",
"87 0 LINE",
"323 0 LINE"
);
}
);
width = 612;
},
{
associatedMasterId = "FBAFFF81-1F8B-4B58-9158-C4AF3F48F88C";
layerId = "CD52D2F2-A687-40D5-88F8-153DC6238D13";
name = "Jul 26 18, 20:42";
paths = (
{
closed = 1;
nodes = (
"525 0 LINE",
"525 72 LINE",
"345 72 LINE",
"345 700 LINE",
"93 700 LINE",
"93 628 LINE",
"267 628 LINE",
"267 72 LINE",
"87 72 LINE",
"87 0 LINE"
);
}
);
width = 612;
},
{
associatedMasterId = "6008D70E-46A9-43E5-86AA-D196D19196A4";
layerId = "D567B63E-02A8-41E3-8505-0B9D0556853C";
name = "{84, 0, 100}";
paths = (
{
closed = 1;
nodes = (
"443 72 LINE",
"268 72 LINE SMOOTH",
"256 72 OFFCURVE",
"256 72 OFFCURVE",
"256 72 CURVE",
"256 72 OFFCURVE",
"256 72 OFFCURVE",
"259 87 CURVE SMOOTH",
"391 659 LINE SMOOTH",
"398 689 OFFCURVE",
"400 697 OFFCURVE",
"400 697 CURVE",
"401 700 OFFCURVE",
"401 700 OFFCURVE",
"401 700 CURVE",
"389 700 OFFCURVE",
"385 700 OFFCURVE",
"335 700 CURVE SMOOTH",
"152 700 LINE",
"135 628 LINE",
"299 628 LINE SMOOTH",
"306 628 OFFCURVE",
"306 628 OFFCURVE",
"306 628 CURVE",
"306 628 OFFCURVE",
"306 628 OFFCURVE",
"306 626 CURVE SMOOTH",
"173 52 LINE SMOOTH",
"166 21 OFFCURVE",
"161 11 OFFCURVE",
"161 1 CURVE SMOOTH",
"161 0 OFFCURVE",
"161 0 OFFCURVE",
"161 0 CURVE",
"185 0 OFFCURVE",
"200 0 OFFCURVE",
"234 0 CURVE SMOOTH",
"426 0 LINE"
);
},
{
closed = 1;
nodes = (
"243 72 LINE",
"19 72 LINE",
"0 0 LINE",
"243 0 LINE"
);
}
);
width = 612;
},
{
associatedMasterId = "6008D70E-46A9-43E5-86AA-D196D19196A4";
layerId = "94E69AA7-9558-4859-88E2-8A6FB93173D1";
name = "{84, 100, 0}";
paths = (
{
closed = 1;
nodes = (
"496 144 LINE",
"381 66 LINE",
"376 63 OFFCURVE",
"372 61 OFFCURVE",
"366 61 CURVE SMOOTH",
"354 61 OFFCURVE",
"345 71 OFFCURVE",
"345 87 CURVE SMOOTH",
"345 600 LINE SMOOTH",
"345 611 OFFCURVE",
"345 621 OFFCURVE",
"345 632 CURVE SMOOTH",
"345 687 OFFCURVE",
"304 714 OFFCURVE",
"258 714 CURVE SMOOTH",
"236 714 OFFCURVE",
"212 707 OFFCURVE",
"191 693 CURVE SMOOTH",
"73 613 LINE",
"113 554 LINE",
"230 634 LINE SMOOTH",
"235 637 OFFCURVE",
"240 639 OFFCURVE",
"245 639 CURVE SMOOTH",
"258 639 OFFCURVE",
"267 630 OFFCURVE",
"267 614 CURVE SMOOTH",
"267 100 LINE SMOOTH",
"267 89 OFFCURVE",
"267 79 OFFCURVE",
"267 68 CURVE SMOOTH",
"267 13 OFFCURVE",
"308 -14 OFFCURVE",
"354 -14 CURVE SMOOTH",
"376 -14 OFFCURVE",
"400 -7 OFFCURVE",
"421 7 CURVE SMOOTH",
"536 85 LINE"
);
},
{
closed = 1;
nodes = (
"335 22 LINE",
"321 22 LINE",
"321 10 LINE",
"335 10 LINE"
);
}
);
width = 612;
},
{
associatedMasterId = "50C9B437-FF28-4DF4-B0E6-290519DD406F";
layerId = "C6AB5446-0488-4FB6-BF78-ADD48174F781";
name = "Jul 26 18, 23:48";
paths = (
{
closed = 1;
nodes = (
"537 0 LINE",
"537 120 LINE",
"375 120 LINE",
"375 700 LINE",
"81 700 LINE",
"81 580 LINE",
"249 580 LINE",
"249 120 LINE",
"75 120 LINE",
"75 0 LINE"
);
}
);
width = 612;
},
{
associatedMasterId = "612FA678-EA3C-4672-88DD-29ED08259473";
layerId = "4EE7120B-76BE-49A6-BAB8-91794016181B";
name = "Jul 26 18, 23:48";
paths = (
{
closed = 1;
nodes = (
"518 110 LINE",
"455 204 LINE",
"321 112 LINE",
"311 119 LINE",
"420 574 LINE SMOOTH",
"423 588 OFFCURVE",
"424 598 OFFCURVE",
"424 609 CURVE SMOOTH",
"424 674 OFFCURVE",
"374 714 OFFCURVE",
"315 714 CURVE SMOOTH",
"288 714 OFFCURVE",
"259 706 OFFCURVE",
"233 688 CURVE SMOOTH",
"88 590 LINE",
"151 496 LINE",
"285 588 LINE",
"295 581 LINE",
"186 126 LINE SMOOTH",
"183 113 OFFCURVE",
"182 102 OFFCURVE",
"182 91 CURVE SMOOTH",
"182 26 OFFCURVE",
"232 -14 OFFCURVE",
"291 -14 CURVE SMOOTH",
"318 -14 OFFCURVE",
"347 -6 OFFCURVE",
"373 12 CURVE"
);
}
);
width = 612;
},
{
associatedMasterId = "6008D70E-46A9-43E5-86AA-D196D19196A4";
layerId = "D8307A7D-5D19-4ED0-AB28-C2AFA616EFB0";
name = "{84, 50, 100}";
paths = (
{
closed = 1;
nodes = (
"444 72 LINE",
"290 72 LINE SMOOTH",
"284 72 OFFCURVE",
"281 72 OFFCURVE",
"275 72 CURVE SMOOTH",
"263 72 OFFCURVE",
"254 71 OFFCURVE",
"258 87 CURVE SMOOTH",
"379 600 LINE SMOOTH",
"382 611 OFFCURVE",
"383 622 OFFCURVE",
"383 632 CURVE SMOOTH",
"383 687 OFFCURVE",
"343 700 OFFCURVE",
"299 700 CURVE SMOOTH",
"277 700 OFFCURVE",
"256 700 OFFCURVE",
"232 700 CURVE SMOOTH",
"153 700 LINE",
"134 628 LINE",
"271 628 LINE SMOOTH",
"276 628 OFFCURVE",
"281 628 OFFCURVE",
"286 628 CURVE SMOOTH",
"299 628 OFFCURVE",
"308 630 OFFCURVE",
"304 614 CURVE SMOOTH",
"183 100 LINE SMOOTH",
"180 89 OFFCURVE",
"179 78 OFFCURVE",
"179 68 CURVE SMOOTH",
"179 13 OFFCURVE",
"218 0 OFFCURVE",
"263 0 CURVE SMOOTH",
"285 0 OFFCURVE",
"306 0 OFFCURVE",
"330 0 CURVE SMOOTH",
"425 0 LINE"
);
},
{
closed = 1;
nodes = (
"319 72 LINE",
"305 72 LINE",
"286 0 LINE",
"299 0 LINE"
);
}
);
width = 612;
},
{
associatedMasterId = "6008D70E-46A9-43E5-86AA-D196D19196A4";
layerId = "BDFB6E13-F000-433A-BA2B-8C148A5BE87B";
name = "{84, 49, 100}";
paths = (
{
closed = 1;
nodes = (
"444 72 LINE",
"290 72 LINE SMOOTH",
"284 72 OFFCURVE",
"281 72 OFFCURVE",
"275 72 CURVE SMOOTH",
"263 72 OFFCURVE",
"254 71 OFFCURVE",
"258 87 CURVE SMOOTH",
"379 600 LINE SMOOTH",
"382 611 OFFCURVE",
"383 622 OFFCURVE",
"383 632 CURVE SMOOTH",
"383 687 OFFCURVE",
"343 700 OFFCURVE",
"299 700 CURVE SMOOTH",
"277 700 OFFCURVE",
"256 700 OFFCURVE",
"232 700 CURVE SMOOTH",
"153 700 LINE",
"134 628 LINE",
"271 628 LINE SMOOTH",
"276 628 OFFCURVE",
"281 628 OFFCURVE",
"286 628 CURVE SMOOTH",
"299 628 OFFCURVE",
"308 630 OFFCURVE",
"304 614 CURVE SMOOTH",
"183 100 LINE SMOOTH",
"180 89 OFFCURVE",
"179 78 OFFCURVE",
"179 68 CURVE SMOOTH",
"179 13 OFFCURVE",
"218 0 OFFCURVE",
"263 0 CURVE SMOOTH",
"285 0 OFFCURVE",
"306 0 OFFCURVE",
"330 0 CURVE SMOOTH",
"425 0 LINE"
);
},
{
closed = 1;
nodes = (
"243 72 LINE",
"19 72 LINE",
"0 0 LINE",
"263 0 LINE"
);
}
);
width = 612;
},
{
associatedMasterId = "6008D70E-46A9-43E5-86AA-D196D19196A4";
layerId = "5518C87B-3891-4678-812B-EFA08E6384BA";
name = "{84, 50, 0}";
paths = (
{
closed = 1;
nodes = (
"516 72 LINE",
"381 72 LINE SMOOTH",
"375 72 OFFCURVE",
"372 72 OFFCURVE",
"366 72 CURVE SMOOTH",
"354 72 OFFCURVE",
"345 82 OFFCURVE",
"345 98 CURVE SMOOTH",
"345 580 LINE SMOOTH",
"345 591 OFFCURVE",
"345 601 OFFCURVE",
"345 612 CURVE SMOOTH",
"345 683 OFFCURVE",
"310 700 OFFCURVE",
"258 700 CURVE SMOOTH",
"243 700 OFFCURVE",
"221 700 OFFCURVE",
"191 700 CURVE SMOOTH",
"93 700 LINE",
"93 628 LINE",
"230 628 LINE SMOOTH",
"235 628 OFFCURVE",
"240 628 OFFCURVE",
"245 628 CURVE SMOOTH",
"258 628 OFFCURVE",
"267 619 OFFCURVE",
"267 603 CURVE SMOOTH",
"267 126 LINE SMOOTH",
"267 115 OFFCURVE",
"267 105 OFFCURVE",
"267 94 CURVE SMOOTH",
"267 18 OFFCURVE",
"302 0 OFFCURVE",
"354 0 CURVE SMOOTH",
"369 0 OFFCURVE",
"391 0 OFFCURVE",
"421 0 CURVE SMOOTH",
"516 0 LINE"
);
},
{
closed = 1;
nodes = (
"403 72 LINE",
"387 72 LINE",
"387 0 LINE",
"403 0 LINE"
);
}
);
width = 612;
},
{
associatedMasterId = "6008D70E-46A9-43E5-86AA-D196D19196A4";
layerId = "737031DA-9C33-4827-ABF7-D52866ED4C5A";
name = "{84, 49, 0}";
paths = (
{
closed = 1;
nodes = (
"516 72 LINE",
"381 72 LINE SMOOTH",
"375 72 OFFCURVE",
"372 72 OFFCURVE",
"366 72 CURVE SMOOTH",
"354 72 OFFCURVE",
"345 82 OFFCURVE",
"345 98 CURVE SMOOTH",
"345 580 LINE SMOOTH",
"345 591 OFFCURVE",
"345 601 OFFCURVE",
"345 612 CURVE SMOOTH",
"345 683 OFFCURVE",
"310 700 OFFCURVE",
"258 700 CURVE SMOOTH",
"243 700 OFFCURVE",
"221 700 OFFCURVE",
"191 700 CURVE SMOOTH",
"93 700 LINE",
"93 628 LINE",
"230 628 LINE SMOOTH",
"235 628 OFFCURVE",
"240 628 OFFCURVE",
"245 628 CURVE SMOOTH",
"258 628 OFFCURVE",
"267 619 OFFCURVE",
"267 603 CURVE SMOOTH",
"267 126 LINE SMOOTH",
"267 115 OFFCURVE",
"267 105 OFFCURVE",
"267 94 CURVE SMOOTH",
"267 18 OFFCURVE",
"302 0 OFFCURVE",
"354 0 CURVE SMOOTH",
"369 0 OFFCURVE",
"391 0 OFFCURVE",
"421 0 CURVE SMOOTH",
"516 0 LINE"
);
},
{
closed = 1;
nodes = (
"354 72 LINE",
"87 72 LINE",
"87 0 LINE",
"354 0 LINE"
);
}
);
width = 612;
}
);
unicode = 006C;
},
{
color = 0;
export = 0;
glyphname = m;
lastChange = "2018-09-17 17:30:00 +0000";
layers = (
{
layerId = "FBAFFF81-1F8B-4B58-9158-C4AF3F48F88C";
paths = (
{
closed = 1;
nodes = (
"564 458 OFFCURVE",
"521 510 OFFCURVE",
"447 510 CURVE SMOOTH",
"397 510 OFFCURVE",
"361 486 OFFCURVE",
"339 442 CURVE",
"327 442 LINE",
"315 482 OFFCURVE",
"283 510 OFFCURVE",
"235 510 CURVE SMOOTH",
"190 510 OFFCURVE",
"155 488 OFFCURVE",
"138 442 CURVE",
"126 442 LINE",
"126 496 LINE",
"48 496 LINE",
"48 0 LINE",
"126 0 LINE",
"126 342 LINE SMOOTH",
"126 398 OFFCURVE",
"153 436 OFFCURVE",
"201 436 CURVE SMOOTH",
"241 436 OFFCURVE",
"267 404 OFFCURVE",
"267 360 CURVE SMOOTH",
"267 0 LINE",
"345 0 LINE",
"345 336 LINE SMOOTH",
"345 403 OFFCURVE",
"375 436 OFFCURVE",
"419 436 CURVE SMOOTH",
"465 436 OFFCURVE",
"486 402 OFFCURVE",
"486 356 CURVE SMOOTH",
"486 0 LINE",
"564 0 LINE",
"564 382 LINE SMOOTH"
);
}
);
width = 612;
},
{
layerId = "50C9B437-FF28-4DF4-B0E6-290519DD406F";
paths = (
{
closed = 1;
nodes = (
"576 462 OFFCURVE",
"532 510 OFFCURVE",
"466 510 CURVE SMOOTH",
"416 510 OFFCURVE",
"380 484 OFFCURVE",
"369 448 CURVE",
"351 448 LINE",
"341 484 OFFCURVE",
"308 510 OFFCURVE",
"264 510 CURVE SMOOTH",
"218 510 OFFCURVE",
"188 484 OFFCURVE",
"180 448 CURVE",
"162 448 LINE",
"162 496 LINE",
"36 496 LINE",
"36 0 LINE",
"162 0 LINE",
"162 342 LINE SMOOTH",
"162 374 OFFCURVE",
"180 390 OFFCURVE",
"204 390 CURVE SMOOTH",
"225 390 OFFCURVE",
"243 376 OFFCURVE",
"243 348 CURVE SMOOTH",
"243 0 LINE",
"369 0 LINE",
"369 342 LINE SMOOTH",
"369 374 OFFCURVE",
"386 390 OFFCURVE",
"412 390 CURVE SMOOTH",
"434 390 OFFCURVE",
"450 376 OFFCURVE",
"450 348 CURVE SMOOTH",
"450 0 LINE",
"576 0 LINE",
"576 384 LINE SMOOTH"
);
}
);
width = 612;
},
{
layerId = "6008D70E-46A9-43E5-86AA-D196D19196A4";
paths = (
{
closed = 1;
nodes = (
"413 72 OFFCURVE",
"412 65 OFFCURVE",
"412 58 CURVE SMOOTH",
"412 6 OFFCURVE",
"453 -14 OFFCURVE",
"492 -14 CURVE SMOOTH",
"515 -14 OFFCURVE",
"538 -7 OFFCURVE",
"553 4 CURVE SMOOTH",
"598 38 LINE",
"556 97 LINE",
"514 66 LINE SMOOTH",
"510 63 OFFCURVE",
"507 62 OFFCURVE",
"503 62 CURVE SMOOTH",
"495 62 OFFCURVE",
"489 68 OFFCURVE",
"491 78 CURVE SMOOTH",
"555 376 LINE SMOOTH",
"557 387 OFFCURVE",
"559 402 OFFCURVE",
"559 414 CURVE SMOOTH",
"559 471 OFFCURVE",
"527 510 OFFCURVE",
"468 510 CURVE SMOOTH",
"426 510 OFFCURVE",
"397 490 OFFCURVE",
"378 454 CURVE",
"366 454 LINE",
"359 488 OFFCURVE",
"332 510 OFFCURVE",
"291 510 CURVE SMOOTH",
"254 510 OFFCURVE",
"220 492 OFFCURVE",
"206 454 CURVE",
"194 454 LINE",
"203 496 LINE",
"125 496 LINE",
"20 0 LINE",
"97 0 LINE",
"174 360 LINE SMOOTH",
"183 400 OFFCURVE",
"203 436 OFFCURVE",
"245 436 CURVE SMOOTH",
"278 436 OFFCURVE",
"289 417 OFFCURVE",
"289 393 CURVE SMOOTH",
"289 384 OFFCURVE",
"288 377 OFFCURVE",
"287 372 CURVE SMOOTH",
"208 0 LINE",
"286 0 LINE",
"363 360 LINE SMOOTH",
"373 408 OFFCURVE",
"395 436 OFFCURVE",
"433 436 CURVE SMOOTH",
"464 436 OFFCURVE",
"478 416 OFFCURVE",
"478 390 CURVE SMOOTH",
"478 384 OFFCURVE",
"477 378 OFFCURVE",
"476 372 CURVE SMOOTH",
"414 78 LINE"
);
}
);
width = 612;
},
{
layerId = "612FA678-EA3C-4672-88DD-29ED08259473";
paths = (
{
closed = 1;
nodes = (
"382 115 OFFCURVE",
"381 107 OFFCURVE",
"381 96 CURVE SMOOTH",
"381 27 OFFCURVE",
"431 -14 OFFCURVE",
"489 -14 CURVE SMOOTH",
"515 -14 OFFCURVE",
"544 -6 OFFCURVE",
"570 12 CURVE SMOOTH",
"615 42 LINE",
"552 136 LINE",
"518 112 LINE",
"508 119 LINE",
"567 392 LINE SMOOTH",
"569 403 OFFCURVE",
"570 409 OFFCURVE",
"570 418 CURVE SMOOTH",
"570 469 OFFCURVE",
"538 510 OFFCURVE",
"483 510 CURVE SMOOTH",
"435 510 OFFCURVE",
"405 484 OFFCURVE",
"391 448 CURVE",
"373 448 LINE",
"366 482 OFFCURVE",
"345 510 OFFCURVE",
"301 510 CURVE SMOOTH",
"264 510 OFFCURVE",
"231 489 OFFCURVE",
"221 448 CURVE",
"203 448 LINE",
"213 496 LINE",
"87 496 LINE",
"-18 0 LINE",
"107 0 LINE",
"183 354 LINE SMOOTH",
"188 378 OFFCURVE",
"201 390 OFFCURVE",
"219 390 CURVE SMOOTH",
"235 390 OFFCURVE",
"245 380 OFFCURVE",
"245 362 CURVE SMOOTH",
"245 358 OFFCURVE",
"244 353 OFFCURVE",
"243 348 CURVE SMOOTH",
"169 0 LINE",
"295 0 LINE",
"371 354 LINE SMOOTH",
"375 374 OFFCURVE",
"385 390 OFFCURVE",
"406 390 CURVE SMOOTH",
"424 390 OFFCURVE",
"433 380 OFFCURVE",
"433 362 CURVE SMOOTH",
"433 358 OFFCURVE",
"432 352 OFFCURVE",
"431 348 CURVE SMOOTH",
"385 130 LINE SMOOTH"
);
}
);
width = 612;
}
);
unicode = 006D;
},
{
color = 0;
glyphname = n;
lastChange = "2018-10-01 19:52:15 +0000";
layers = (
{
layerId = "FBAFFF81-1F8B-4B58-9158-C4AF3F48F88C";
paths = (
{
closed = 1;
nodes = (
"165 0 LINE",
"165 258 LINE SMOOTH",
"165 366 OFFCURVE",
"223 436 OFFCURVE",
"317 436 CURVE SMOOTH",
"397 436 OFFCURVE",
"447 384 OFFCURVE",
"447 280 CURVE SMOOTH",
"447 274 OFFCURVE",
"447 265 OFFCURVE",
"447 253 CURVE SMOOTH",
"447 217 LINE",
"447 217 OFFCURVE",
"447 180 OFFCURVE",
"447 180 CURVE",
"447 180 OFFCURVE",
"447 160 OFFCURVE",
"447 141 CURVE",
"447 75 OFFCURVE",
"447 58 OFFCURVE",
"447 12 CURVE",
"447 0 LINE",
"525 0 LINE",
"525 14 LINE",
"525 54 OFFCURVE",
"525 80 OFFCURVE",
"525 139 CURVE",
"525 162 OFFCURVE",
"525 214 OFFCURVE",
"525 214 CURVE",
"525 262 LINE SMOOTH",
"525 274 OFFCURVE",
"525 280 OFFCURVE",
"525 296 CURVE SMOOTH",
"525 438 OFFCURVE",
"451 510 OFFCURVE",
"337 510 CURVE SMOOTH",
"261 510 OFFCURVE",
"207 476 OFFCURVE",
"177 412 CURVE",
"165 412 LINE",
"165 496 LINE",
"87 496 LINE",
"87 0 LINE"
);
}
);
width = 612;
},
{
associatedMasterId = "FBAFFF81-1F8B-4B58-9158-C4AF3F48F88C";
layerId = "FA1017AE-9F29-4A52-A583-492392DC22BE";
name = "C1 {84, 0, 1000, 0, 0, 1000}";
paths = (
{
closed = 1;
nodes = (
"165 0 LINE",
"165 258 LINE SMOOTH",
"165 366 OFFCURVE",
"223 436 OFFCURVE",
"317 436 CURVE SMOOTH",
"397 436 OFFCURVE",
"447 384 OFFCURVE",
"447 280 CURVE SMOOTH",
"447 271 OFFCURVE",
"447 262 OFFCURVE",
"447 253 CURVE SMOOTH",
"447 194 LINE",
"447 178 OFFCURVE",
"447 169 OFFCURVE",
"447 124 CURVE",
"447 77 OFFCURVE",
"447 63 OFFCURVE",
"452 34 CURVE",
"458 -2 OFFCURVE",
"474 -9 OFFCURVE",
"516 -16 CURVE",
"531 -35 LINE",
"596 59 LINE",
"578 73 LINE",
"537 84 OFFCURVE",
"526 100 OFFCURVE",
"525 146 CURVE",
"525 157 OFFCURVE",
"525 183 OFFCURVE",
"525 195 CURVE",
"525 262 LINE SMOOTH",
"525 273 OFFCURVE",
"525 285 OFFCURVE",
"525 296 CURVE SMOOTH",
"525 438 OFFCURVE",
"451 510 OFFCURVE",
"337 510 CURVE SMOOTH",
"261 510 OFFCURVE",
"207 476 OFFCURVE",
"177 412 CURVE",
"165 412 LINE",
"165 496 LINE",
"87 496 LINE",
"87 0 LINE"
);
}
);
width = 612;
},
{
associatedMasterId = "FBAFFF81-1F8B-4B58-9158-C4AF3F48F88C";
layerId = "B54F2C74-36B9-4092-A7F5-B0204983E738";
name = "C2 {84, 0, 0, 1000, 0, 1000}";
paths = (
{
closed = 1;
nodes = (
"165 0 LINE",
"165 258 LINE SMOOTH",
"165 366 OFFCURVE",
"223 436 OFFCURVE",
"317 436 CURVE SMOOTH",
"397 436 OFFCURVE",
"447 384 OFFCURVE",
"447 280 CURVE SMOOTH",
"447 271 OFFCURVE",
"447 262 OFFCURVE",
"447 253 CURVE SMOOTH",
"447 194 LINE",
"447 178 OFFCURVE",
"447 169 OFFCURVE",
"447 124 CURVE",
"447 77 OFFCURVE",
"447 63 OFFCURVE",
"452 34 CURVE",
"458 -2 OFFCURVE",
"474 -9 OFFCURVE",
"516 -16 CURVE",
"531 -35 LINE",
"596 59 LINE",
"578 73 LINE",
"537 84 OFFCURVE",
"526 100 OFFCURVE",
"525 146 CURVE",
"525 157 OFFCURVE",
"525 183 OFFCURVE",
"525 210 CURVE",
"525 262 LINE SMOOTH",
"525 273 OFFCURVE",
"525 285 OFFCURVE",
"525 296 CURVE SMOOTH",
"525 438 OFFCURVE",
"451 510 OFFCURVE",
"337 510 CURVE SMOOTH",
"261 510 OFFCURVE",
"207 476 OFFCURVE",
"177 412 CURVE",
"165 412 LINE",
"165 496 LINE",
"87 496 LINE",
"87 0 LINE"
);
}
);
width = 612;
},
{
associatedMasterId = "FBAFFF81-1F8B-4B58-9158-C4AF3F48F88C";
layerId = "C8398E2E-E866-49B4-BFFD-AA8D929322F6";
name = "C3 {84, 0, 0, 0, 1000, 1000}";
paths = (
{
closed = 1;
nodes = (
"165 0 LINE",
"165 258 LINE SMOOTH",
"165 366 OFFCURVE",
"223 436 OFFCURVE",
"317 436 CURVE SMOOTH",
"397 436 OFFCURVE",
"447 384 OFFCURVE",
"447 280 CURVE SMOOTH",
"447 271 OFFCURVE",
"447 262 OFFCURVE",
"447 253 CURVE SMOOTH",
"447 194 LINE",
"447 178 OFFCURVE",
"447 169 OFFCURVE",
"447 124 CURVE",
"447 77 OFFCURVE",
"447 63 OFFCURVE",
"452 34 CURVE",
"458 -2 OFFCURVE",
"474 -9 OFFCURVE",
"516 -16 CURVE",
"531 -35 LINE",
"596 59 LINE",
"578 73 LINE",
"537 84 OFFCURVE",
"526 100 OFFCURVE",
"525 146 CURVE",
"525 157 OFFCURVE",
"525 183 OFFCURVE",
"525 210 CURVE",
"525 262 LINE SMOOTH",
"525 273 OFFCURVE",
"525 285 OFFCURVE",
"525 296 CURVE SMOOTH",
"525 438 OFFCURVE",
"451 510 OFFCURVE",
"337 510 CURVE SMOOTH",
"261 510 OFFCURVE",
"207 476 OFFCURVE",
"177 412 CURVE",
"165 412 LINE",
"165 496 LINE",
"87 496 LINE",
"87 0 LINE"
);
}
);
width = 612;
},
{
associatedMasterId = "FBAFFF81-1F8B-4B58-9158-C4AF3F48F88C";
layerId = "5978FFF4-7193-41ED-86D2-F1D732022D47";
name = "D1 {84, 0, 1000, 1000, 0, 1000}";
paths = (
{
closed = 1;
nodes = (
"165 0 LINE",
"165 258 LINE SMOOTH",
"165 366 OFFCURVE",
"223 436 OFFCURVE",
"317 436 CURVE SMOOTH",
"397 436 OFFCURVE",
"447 384 OFFCURVE",
"447 280 CURVE SMOOTH",
"447 271 OFFCURVE",
"447 262 OFFCURVE",
"447 253 CURVE SMOOTH",
"447 171 LINE",
"447 160 OFFCURVE",
"447 155 OFFCURVE",
"447 141 CURVE",
"447 48 OFFCURVE",
"453 33 OFFCURVE",
"468 13 CURVE",
"512 -7 OFFCURVE",
"553 -9 OFFCURVE",
"575 -1 CURVE",
"614 9 LINE",
"563 82 LINE",
"553 83 LINE",
"542 70 OFFCURVE",
"538 67 OFFCURVE",
"526 69 CURVE",
"525 74 OFFCURVE",
"525 80 OFFCURVE",
"525 88 CURVE",
"525 262 LINE SMOOTH",
"525 273 OFFCURVE",
"525 285 OFFCURVE",
"525 296 CURVE SMOOTH",
"525 438 OFFCURVE",
"451 510 OFFCURVE",
"337 510 CURVE SMOOTH",
"261 510 OFFCURVE",
"207 476 OFFCURVE",
"177 412 CURVE",
"165 412 LINE",
"165 496 LINE",
"87 496 LINE",
"87 0 LINE"
);
}
);
width = 612;
},
{
associatedMasterId = "FBAFFF81-1F8B-4B58-9158-C4AF3F48F88C";
layerId = "259690DC-5547-4C4C-891C-421E0BAC00E8";
name = "D2 {84, 0, 1000, 0, 1000, 1000}";
paths = (
{
closed = 1;
nodes = (
"165 0 LINE",
"165 258 LINE SMOOTH",
"165 366 OFFCURVE",
"223 436 OFFCURVE",
"317 436 CURVE SMOOTH",
"397 436 OFFCURVE",
"447 384 OFFCURVE",
"447 280 CURVE SMOOTH",
"447 271 OFFCURVE",
"447 262 OFFCURVE",
"447 253 CURVE SMOOTH",
"447 171 LINE",
"447 160 OFFCURVE",
"447 155 OFFCURVE",
"447 141 CURVE",
"447 48 OFFCURVE",
"453 33 OFFCURVE",
"468 13 CURVE",
"512 -7 OFFCURVE",
"553 -9 OFFCURVE",
"575 -1 CURVE",
"614 9 LINE",
"563 82 LINE",
"553 83 LINE",
"542 70 OFFCURVE",
"538 67 OFFCURVE",
"526 69 CURVE",
"525 74 OFFCURVE",
"525 80 OFFCURVE",
"525 121 CURVE",
"525 262 LINE SMOOTH",
"525 273 OFFCURVE",
"525 285 OFFCURVE",
"525 296 CURVE SMOOTH",
"525 438 OFFCURVE",
"451 510 OFFCURVE",
"337 510 CURVE SMOOTH",
"261 510 OFFCURVE",
"207 476 OFFCURVE",
"177 412 CURVE",
"165 412 LINE",
"165 496 LINE",
"87 496 LINE",
"87 0 LINE"
);
}
);
width = 612;
},
{
associatedMasterId = "FBAFFF81-1F8B-4B58-9158-C4AF3F48F88C";
layerId = "76355F3D-F767-4E1F-B647-2912C18E5CAB";
name = "D3 {84, 0, 0, 1000, 1000, 1000}";
paths = (
{
closed = 1;
nodes = (
"165 0 LINE",
"165 258 LINE SMOOTH",
"165 366 OFFCURVE",
"223 436 OFFCURVE",
"317 436 CURVE SMOOTH",
"397 436 OFFCURVE",
"447 384 OFFCURVE",
"447 280 CURVE SMOOTH",
"447 271 OFFCURVE",
"447 262 OFFCURVE",
"447 253 CURVE SMOOTH",
"447 171 LINE",
"447 160 OFFCURVE",
"447 155 OFFCURVE",
"447 141 CURVE",
"447 48 OFFCURVE",
"453 33 OFFCURVE",
"468 13 CURVE",
"512 -7 OFFCURVE",
"553 -9 OFFCURVE",
"575 -1 CURVE",
"614 9 LINE",
"563 82 LINE",
"553 83 LINE",
"542 70 OFFCURVE",
"538 67 OFFCURVE",
"526 69 CURVE",
"525 74 OFFCURVE",
"525 80 OFFCURVE",
"525 121 CURVE",
"525 262 LINE SMOOTH",
"525 273 OFFCURVE",
"525 285 OFFCURVE",
"525 296 CURVE SMOOTH",
"525 438 OFFCURVE",
"451 510 OFFCURVE",
"337 510 CURVE SMOOTH",
"261 510 OFFCURVE",
"207 476 OFFCURVE",
"177 412 CURVE",
"165 412 LINE",
"165 496 LINE",
"87 496 LINE",
"87 0 LINE"
);
}
);
width = 612;
},
{
associatedMasterId = "FBAFFF81-1F8B-4B58-9158-C4AF3F48F88C";
layerId = "E4865D58-0050-433D-A77F-6E798E0AAD5F";
name = "B {84, 0, 1000, 1000, 1000, 1000}";
paths = (
{
closed = 1;
nodes = (
"165 0 LINE",
"165 258 LINE SMOOTH",
"165 366 OFFCURVE",
"223 436 OFFCURVE",
"317 436 CURVE SMOOTH",
"397 436 OFFCURVE",
"447 384 OFFCURVE",
"447 280 CURVE SMOOTH",
"447 271 OFFCURVE",
"447 262 OFFCURVE",
"447 253 CURVE SMOOTH",
"447 91 LINE SMOOTH",
"447 80 OFFCURVE",
"447 70 OFFCURVE",
"447 59 CURVE SMOOTH",
"447 4 OFFCURVE",
"487 -14 OFFCURVE",
"526 -14 CURVE SMOOTH",
"550 -14 OFFCURVE",
"572 -7 OFFCURVE",
"593 9 CURVE SMOOTH",
"632 38 LINE",
"590 97 LINE",
"548 66 LINE SMOOTH",
"544 63 OFFCURVE",
"541 62 OFFCURVE",
"537 62 CURVE SMOOTH",
"529 62 OFFCURVE",
"525 68 OFFCURVE",
"525 78 CURVE SMOOTH",
"525 262 LINE SMOOTH",
"525 273 OFFCURVE",
"525 285 OFFCURVE",
"525 296 CURVE SMOOTH",
"525 438 OFFCURVE",
"451 510 OFFCURVE",
"337 510 CURVE SMOOTH",
"261 510 OFFCURVE",
"207 476 OFFCURVE",
"177 412 CURVE",
"165 412 LINE",
"165 496 LINE",
"87 496 LINE",
"87 0 LINE"
);
}
);
width = 612;
},
{
layerId = "6008D70E-46A9-43E5-86AA-D196D19196A4";
paths = (
{
closed = 1;
nodes = (
"84 0 LINE",
"140 264 LINE SMOOTH",
"161 364 OFFCURVE",
"220 436 OFFCURVE",
"310 436 CURVE SMOOTH",
"377 436 OFFCURVE",
"418 405 OFFCURVE",
"418 341 CURVE SMOOTH",
"418 328 OFFCURVE",
"417 316 OFFCURVE",
"413 298 CURVE SMOOTH",
"384 161 LINE",
"381 149 OFFCURVE",
"379 136 OFFCURVE",
"376 124 CURVE",
"374 114 OFFCURVE",
"372 105 OFFCURVE",
"370 95 CURVE",
"365 70 OFFCURVE",
"359 46 OFFCURVE",
"354 21 CURVE",
"350 0 LINE",
"426 0 LINE",
"429 14 LINE SMOOTH",
"436 45 OFFCURVE",
"440 65 OFFCURVE",
"443 81 CURVE SMOOTH",
"448 106 OFFCURVE",
"454 131 OFFCURVE",
"459 156 CURVE",
"490 300 LINE",
"494 319 OFFCURVE",
"496 337 OFFCURVE",
"496 353 CURVE SMOOTH",
"496 454 OFFCURVE",
"424 510 OFFCURVE",
"338 510 CURVE SMOOTH",
"278 510 OFFCURVE",
"220 484 OFFCURVE",
"187 424 CURVE",
"175 424 LINE",
"190 496 LINE",
"112 496 LINE",
"6 0 LINE"
);
}
);
width = 612;
},
{
associatedMasterId = "6008D70E-46A9-43E5-86AA-D196D19196A4";
layerId = "D05AD26D-04F3-4999-A73D-7D9C3883F0DF";
name = "E1 {84, 1000, 1000, 0, 0, 1000}";
paths = (
{
closed = 1;
nodes = (
"84 0 LINE",
"140 264 LINE SMOOTH",
"161 364 OFFCURVE",
"220 436 OFFCURVE",
"310 436 CURVE SMOOTH",
"377 436 OFFCURVE",
"418 405 OFFCURVE",
"418 341 CURVE SMOOTH",
"418 328 OFFCURVE",
"417 316 OFFCURVE",
"413 298 CURVE SMOOTH",
"368 91 LINE",
"365 77 OFFCURVE",
"364 69 OFFCURVE",
"364 59 CURVE",
"364 34 OFFCURVE",
"358 26 OFFCURVE",
"369 6 CURVE",
"368 -11 OFFCURVE",
"377 -20 OFFCURVE",
"396 -35 CURVE",
"420 -52 LINE",
"514 41 LINE",
"484 56 LINE",
"461 63 OFFCURVE",
"455 62 OFFCURVE",
"451 64 CURVE",
"443 75 OFFCURVE",
"444 85 OFFCURVE",
"447 102 CURVE",
"490 300 LINE SMOOTH",
"494 319 OFFCURVE",
"496 337 OFFCURVE",
"496 353 CURVE SMOOTH",
"496 454 OFFCURVE",
"424 510 OFFCURVE",
"338 510 CURVE SMOOTH",
"278 510 OFFCURVE",
"220 484 OFFCURVE",
"187 424 CURVE",
"175 424 LINE",
"190 496 LINE",
"112 496 LINE",
"6 0 LINE"
);
}
);
width = 612;
},
{
associatedMasterId = "6008D70E-46A9-43E5-86AA-D196D19196A4";
layerId = "B1DFEEB1-47F3-4CB5-8B71-806BDAD46DC7";
name = "E2 {84, 1000, 0, 1000, 0, 1000}";
paths = (
{
closed = 1;
nodes = (
"84 0 LINE",
"140 264 LINE SMOOTH",
"161 364 OFFCURVE",
"220 436 OFFCURVE",
"310 436 CURVE SMOOTH",
"377 436 OFFCURVE",
"418 405 OFFCURVE",
"418 341 CURVE SMOOTH",
"418 328 OFFCURVE",
"417 316 OFFCURVE",
"413 298 CURVE SMOOTH",
"368 91 LINE",
"365 77 OFFCURVE",
"364 69 OFFCURVE",
"364 59 CURVE",
"364 34 OFFCURVE",
"358 26 OFFCURVE",
"369 6 CURVE",
"368 -11 OFFCURVE",
"377 -20 OFFCURVE",
"396 -35 CURVE",
"420 -52 LINE",
"514 41 LINE",
"484 56 LINE",
"461 63 OFFCURVE",
"455 62 OFFCURVE",
"451 64 CURVE",
"443 75 OFFCURVE",
"444 85 OFFCURVE",
"447 102 CURVE",
"490 300 LINE SMOOTH",
"494 319 OFFCURVE",
"496 337 OFFCURVE",
"496 353 CURVE SMOOTH",
"496 454 OFFCURVE",
"424 510 OFFCURVE",
"338 510 CURVE SMOOTH",
"278 510 OFFCURVE",
"220 484 OFFCURVE",
"187 424 CURVE",
"175 424 LINE",
"190 496 LINE",
"112 496 LINE",
"6 0 LINE"
);
}
);
width = 612;
},
{
associatedMasterId = "6008D70E-46A9-43E5-86AA-D196D19196A4";
layerId = "CA145A2F-B47A-402E-8728-BE088EF44044";
name = "E3 {84, 1000, 0, 0, 1000, 1000}";
paths = (
{
closed = 1;
nodes = (
"84 0 LINE",
"140 264 LINE SMOOTH",
"161 364 OFFCURVE",
"220 436 OFFCURVE",
"310 436 CURVE SMOOTH",
"377 436 OFFCURVE",
"418 405 OFFCURVE",
"418 341 CURVE SMOOTH",
"418 328 OFFCURVE",
"417 316 OFFCURVE",
"413 298 CURVE SMOOTH",
"368 91 LINE",
"365 77 OFFCURVE",
"364 69 OFFCURVE",
"364 59 CURVE",
"364 34 OFFCURVE",
"358 26 OFFCURVE",
"369 6 CURVE",
"368 -11 OFFCURVE",
"377 -20 OFFCURVE",
"396 -35 CURVE",
"420 -52 LINE",
"514 41 LINE",
"484 56 LINE",
"461 63 OFFCURVE",
"455 62 OFFCURVE",
"451 64 CURVE",
"443 75 OFFCURVE",
"444 85 OFFCURVE",
"447 102 CURVE",
"490 300 LINE SMOOTH",
"494 319 OFFCURVE",
"496 337 OFFCURVE",
"496 353 CURVE SMOOTH",
"496 454 OFFCURVE",
"424 510 OFFCURVE",
"338 510 CURVE SMOOTH",
"278 510 OFFCURVE",
"220 484 OFFCURVE",
"187 424 CURVE",
"175 424 LINE",
"190 496 LINE",
"112 496 LINE",
"6 0 LINE"
);
}
);
width = 612;
},
{
associatedMasterId = "6008D70E-46A9-43E5-86AA-D196D19196A4";
layerId = "C10BAF93-47BE-48DD-84FE-1B8099C2E2CE";
name = "F1 {84, 1000, 1000, 1000, 0, 1000}";
paths = (
{
closed = 1;
nodes = (
"84 0 LINE",
"140 264 LINE SMOOTH",
"161 364 OFFCURVE",
"220 436 OFFCURVE",
"310 436 CURVE SMOOTH",
"377 436 OFFCURVE",
"418 405 OFFCURVE",
"418 341 CURVE SMOOTH",
"418 328 OFFCURVE",
"417 316 OFFCURVE",
"413 298 CURVE SMOOTH",
"375 123 LINE",
"365 77 OFFCURVE",
"364 69 OFFCURVE",
"364 59 CURVE",
"364 14 OFFCURVE",
"385 -4 OFFCURVE",
"412 -9 CURVE",
"448 -14 OFFCURVE",
"483 -7 OFFCURVE",
"510 0 CURVE",
"523 9 LINE",
"481 71 LINE",
"469 67 LINE",
"461 65 OFFCURVE",
"458 65 OFFCURVE",
"454 65 CURVE",
"446 65 OFFCURVE",
"443 83 OFFCURVE",
"450 116 CURVE",
"490 300 LINE SMOOTH",
"494 319 OFFCURVE",
"496 337 OFFCURVE",
"496 353 CURVE SMOOTH",
"496 454 OFFCURVE",
"424 510 OFFCURVE",
"338 510 CURVE SMOOTH",
"278 510 OFFCURVE",
"220 484 OFFCURVE",
"187 424 CURVE",
"175 424 LINE",
"190 496 LINE",
"112 496 LINE",
"6 0 LINE"
);
}
);
width = 612;
},
{
associatedMasterId = "6008D70E-46A9-43E5-86AA-D196D19196A4";
layerId = "15A76FA4-EAEC-408A-AE4A-1E17539596B0";
name = "F2 {84, 1000, 1000, 0, 1000, 1000}";
paths = (
{
closed = 1;
nodes = (
"84 0 LINE",
"140 264 LINE SMOOTH",
"161 364 OFFCURVE",
"220 436 OFFCURVE",
"310 436 CURVE SMOOTH",
"377 436 OFFCURVE",
"418 405 OFFCURVE",
"418 341 CURVE SMOOTH",
"418 328 OFFCURVE",
"417 316 OFFCURVE",
"413 298 CURVE SMOOTH",
"375 123 LINE",
"365 77 OFFCURVE",
"364 69 OFFCURVE",
"364 59 CURVE",
"364 14 OFFCURVE",
"385 -4 OFFCURVE",
"412 -9 CURVE",
"448 -14 OFFCURVE",
"483 -7 OFFCURVE",
"510 0 CURVE",
"523 9 LINE",
"481 71 LINE",
"469 67 LINE",
"461 65 OFFCURVE",
"458 65 OFFCURVE",
"454 65 CURVE",
"446 65 OFFCURVE",
"443 83 OFFCURVE",
"450 116 CURVE",
"490 300 LINE SMOOTH",
"494 319 OFFCURVE",
"496 337 OFFCURVE",
"496 353 CURVE SMOOTH",
"496 454 OFFCURVE",
"424 510 OFFCURVE",
"338 510 CURVE SMOOTH",
"278 510 OFFCURVE",
"220 484 OFFCURVE",
"187 424 CURVE",
"175 424 LINE",
"190 496 LINE",
"112 496 LINE",
"6 0 LINE"
);
}
);
width = 612;
},
{
associatedMasterId = "6008D70E-46A9-43E5-86AA-D196D19196A4";
layerId = "0E6018C2-029D-4F7F-AF0C-40C01B67405B";
name = "F3 {84, 1000, 0, 1000, 1000, 1000}";
paths = (
{
closed = 1;
nodes = (
"84 0 LINE",
"140 264 LINE SMOOTH",
"161 364 OFFCURVE",
"220 436 OFFCURVE",
"310 436 CURVE SMOOTH",
"377 436 OFFCURVE",
"418 405 OFFCURVE",
"418 341 CURVE SMOOTH",
"418 328 OFFCURVE",
"417 316 OFFCURVE",
"413 298 CURVE SMOOTH",
"375 123 LINE",
"365 77 OFFCURVE",
"364 69 OFFCURVE",
"364 59 CURVE",
"364 14 OFFCURVE",
"385 -4 OFFCURVE",
"412 -9 CURVE",
"448 -14 OFFCURVE",
"483 -7 OFFCURVE",
"510 0 CURVE",
"523 9 LINE",
"481 71 LINE",
"469 67 LINE",
"461 65 OFFCURVE",
"458 65 OFFCURVE",
"454 65 CURVE",
"446 65 OFFCURVE",
"443 83 OFFCURVE",
"450 116 CURVE",
"490 300 LINE SMOOTH",
"494 319 OFFCURVE",
"496 337 OFFCURVE",
"496 353 CURVE SMOOTH",
"496 454 OFFCURVE",
"424 510 OFFCURVE",
"338 510 CURVE SMOOTH",
"278 510 OFFCURVE",
"220 484 OFFCURVE",
"187 424 CURVE",
"175 424 LINE",
"190 496 LINE",
"112 496 LINE",
"6 0 LINE"
);
}
);
width = 612;
},
{
associatedMasterId = "6008D70E-46A9-43E5-86AA-D196D19196A4";
layerId = "3F16CE20-62EB-42A9-8909-3495EE42D0E8";
name = "G {84, 1000, 1000, 1000, 1000, 1000}";
paths = (
{
closed = 1;
nodes = (
"84 0 LINE",
"140 264 LINE SMOOTH",
"161 364 OFFCURVE",
"220 436 OFFCURVE",
"310 436 CURVE SMOOTH",
"377 436 OFFCURVE",
"418 405 OFFCURVE",
"418 341 CURVE SMOOTH",
"418 328 OFFCURVE",
"417 316 OFFCURVE",
"413 298 CURVE SMOOTH",
"368 91 LINE SMOOTH",
"365 77 OFFCURVE",
"364 69 OFFCURVE",
"364 59 CURVE SMOOTH",
"364 4 OFFCURVE",
"404 -14 OFFCURVE",
"443 -14 CURVE SMOOTH",
"467 -14 OFFCURVE",
"489 -7 OFFCURVE",
"510 9 CURVE SMOOTH",
"549 38 LINE",
"507 97 LINE",
"465 66 LINE SMOOTH",
"461 63 OFFCURVE",
"458 62 OFFCURVE",
"454 62 CURVE SMOOTH",
"446 62 OFFCURVE",
"440 68 OFFCURVE",
"442 78 CURVE SMOOTH",
"490 300 LINE SMOOTH",
"494 319 OFFCURVE",
"496 337 OFFCURVE",
"496 353 CURVE SMOOTH",
"496 454 OFFCURVE",
"424 510 OFFCURVE",
"338 510 CURVE SMOOTH",
"278 510 OFFCURVE",
"220 484 OFFCURVE",
"187 424 CURVE",
"175 424 LINE",
"190 496 LINE",
"112 496 LINE",
"6 0 LINE"
);
}
);
width = 612;
},
{
layerId = "50C9B437-FF28-4DF4-B0E6-290519DD406F";
paths = (
{
closed = 1;
nodes = (
"204 0 LINE",
"204 258 LINE SMOOTH",
"204 342 OFFCURVE",
"241 396 OFFCURVE",
"315 396 CURVE SMOOTH",
"379 396 OFFCURVE",
"414 352 OFFCURVE",
"414 282 CURVE SMOOTH",
"414 263 OFFCURVE",
"414 245 OFFCURVE",
"414 226 CURVE SMOOTH",
"414 139 LINE SMOOTH",
"414 128 OFFCURVE",
"414 118 OFFCURVE",
"414 107 CURVE SMOOTH",
"414 95 OFFCURVE",
"414 83 OFFCURVE",
"414 71 CURVE SMOOTH",
"414 55 OFFCURVE",
"414 39 OFFCURVE",
"414 23 CURVE SMOOTH",
"414 0 LINE",
"540 0 LINE",
"540 18 LINE SMOOTH",
"540 26 OFFCURVE",
"540 35 OFFCURVE",
"540 43 CURVE SMOOTH",
"540 59 OFFCURVE",
"540 75 OFFCURVE",
"540 91 CURVE SMOOTH",
"540 227 LINE SMOOTH",
"540 256 OFFCURVE",
"540 285 OFFCURVE",
"540 314 CURVE SMOOTH",
"540 450 OFFCURVE",
"462 510 OFFCURVE",
"366 510 CURVE SMOOTH",
"298 510 OFFCURVE",
"244 478 OFFCURVE",
"222 422 CURVE",
"204 422 LINE",
"204 496 LINE",
"78 496 LINE",
"78 0 LINE"
);
}
);
width = 612;
},
{
associatedMasterId = "50C9B437-FF28-4DF4-B0E6-290519DD406F";
layerId = "B5AA82BA-A599-4E3C-8F7F-F8BE1EF6D68C";
name = "H1 {132, 0, 1000, 0, 0, 1000}";
paths = (
{
closed = 1;
nodes = (
"204 0 LINE",
"204 258 LINE SMOOTH",
"204 342 OFFCURVE",
"241 396 OFFCURVE",
"315 396 CURVE SMOOTH",
"379 396 OFFCURVE",
"414 352 OFFCURVE",
"414 282 CURVE SMOOTH",
"414 263 OFFCURVE",
"414 245 OFFCURVE",
"414 226 CURVE SMOOTH",
"414 182 LINE",
"414 172 OFFCURVE",
"414 162 OFFCURVE",
"414 152 CURVE",
"414 96 OFFCURVE",
"413 78 OFFCURVE",
"439 12 CURVE",
"447 -8 OFFCURVE",
"460 -22 OFFCURVE",
"481 -37 CURVE",
"514 -47 LINE",
"614 77 LINE",
"567 131 LINE",
"563 133 OFFCURVE",
"558 135 OFFCURVE",
"554 150 CURVE",
"544 161 OFFCURVE",
"540 174 OFFCURVE",
"540 200 CURVE",
"540 227 LINE SMOOTH",
"540 256 OFFCURVE",
"540 285 OFFCURVE",
"540 314 CURVE SMOOTH",
"540 450 OFFCURVE",
"462 510 OFFCURVE",
"366 510 CURVE SMOOTH",
"298 510 OFFCURVE",
"244 478 OFFCURVE",
"222 422 CURVE",
"204 422 LINE",
"204 496 LINE",
"78 496 LINE",
"78 0 LINE"
);
}
);
width = 612;
},
{
associatedMasterId = "50C9B437-FF28-4DF4-B0E6-290519DD406F";
layerId = "C11760BB-C1DB-4D5C-BF16-029DE70FFC3B";
name = "H2 {132, 0, 0, 1000, 0, 1000}";
paths = (
{
closed = 1;
nodes = (
"204 0 LINE",
"204 258 LINE SMOOTH",
"204 342 OFFCURVE",
"241 396 OFFCURVE",
"315 396 CURVE SMOOTH",
"379 396 OFFCURVE",
"414 352 OFFCURVE",
"414 282 CURVE SMOOTH",
"414 263 OFFCURVE",
"414 245 OFFCURVE",
"414 226 CURVE SMOOTH",
"414 182 LINE",
"414 172 OFFCURVE",
"414 162 OFFCURVE",
"414 152 CURVE",
"414 96 OFFCURVE",
"413 78 OFFCURVE",
"439 12 CURVE",
"447 -8 OFFCURVE",
"460 -22 OFFCURVE",
"481 -37 CURVE",
"514 -47 LINE",
"614 77 LINE",
"567 131 LINE",
"563 133 OFFCURVE",
"558 135 OFFCURVE",
"554 150 CURVE",
"544 161 OFFCURVE",
"540 174 OFFCURVE",
"540 200 CURVE",
"540 227 LINE SMOOTH",
"540 256 OFFCURVE",
"540 285 OFFCURVE",
"540 314 CURVE SMOOTH",
"540 450 OFFCURVE",
"462 510 OFFCURVE",
"366 510 CURVE SMOOTH",
"298 510 OFFCURVE",
"244 478 OFFCURVE",
"222 422 CURVE",
"204 422 LINE",
"204 496 LINE",
"78 496 LINE",
"78 0 LINE"
);
}
);
width = 612;
},
{
associatedMasterId = "50C9B437-FF28-4DF4-B0E6-290519DD406F";
layerId = "75424DEF-0AA1-4211-9C97-A8790B1FB482";
name = "H3 {132, 0, 0, 0, 1000, 1000}";
paths = (
{
closed = 1;
nodes = (
"204 0 LINE",
"204 258 LINE SMOOTH",
"204 342 OFFCURVE",
"241 396 OFFCURVE",
"315 396 CURVE SMOOTH",
"379 396 OFFCURVE",
"414 352 OFFCURVE",
"414 282 CURVE SMOOTH",
"414 263 OFFCURVE",
"414 245 OFFCURVE",
"414 226 CURVE SMOOTH",
"414 182 LINE",
"414 172 OFFCURVE",
"414 162 OFFCURVE",
"414 152 CURVE",
"414 96 OFFCURVE",
"413 78 OFFCURVE",
"439 12 CURVE",
"447 -8 OFFCURVE",
"460 -22 OFFCURVE",
"481 -37 CURVE",
"514 -47 LINE",
"614 77 LINE",
"567 131 LINE",
"563 133 OFFCURVE",
"558 135 OFFCURVE",
"554 150 CURVE",
"544 161 OFFCURVE",
"540 174 OFFCURVE",
"540 200 CURVE",
"540 227 LINE SMOOTH",
"540 256 OFFCURVE",
"540 285 OFFCURVE",
"540 314 CURVE SMOOTH",
"540 450 OFFCURVE",
"462 510 OFFCURVE",
"366 510 CURVE SMOOTH",
"298 510 OFFCURVE",
"244 478 OFFCURVE",
"222 422 CURVE",
"204 422 LINE",
"204 496 LINE",
"78 496 LINE",
"78 0 LINE"
);
}
);
width = 612;
},
{
associatedMasterId = "50C9B437-FF28-4DF4-B0E6-290519DD406F";
layerId = "E18DB53E-01D4-4AC4-8A49-CEE4D450F8AD";
name = "I1 {132, 0, 1000, 1000, 0, 1000}";
paths = (
{
closed = 1;
nodes = (
"204 0 LINE",
"204 258 LINE SMOOTH",
"204 342 OFFCURVE",
"241 396 OFFCURVE",
"315 396 CURVE SMOOTH",
"379 396 OFFCURVE",
"414 352 OFFCURVE",
"414 282 CURVE SMOOTH",
"414 263 OFFCURVE",
"414 245 OFFCURVE",
"414 226 CURVE SMOOTH",
"414 132 LINE",
"414 122 OFFCURVE",
"414 112 OFFCURVE",
"414 102 CURVE",
"414 56 OFFCURVE",
"433 24 OFFCURVE",
"456 -4 CURVE",
"502 -27 OFFCURVE",
"564 -34 OFFCURVE",
"605 -30 CURVE",
"639 -21 LINE",
"603 104 LINE",
"579 103 LINE",
"559 98 OFFCURVE",
"552 105 OFFCURVE",
"548 109 CURVE",
"545 110 OFFCURVE",
"540 118 OFFCURVE",
"540 126 CURVE",
"540 227 LINE SMOOTH",
"540 256 OFFCURVE",
"540 285 OFFCURVE",
"540 314 CURVE SMOOTH",
"540 450 OFFCURVE",
"462 510 OFFCURVE",
"366 510 CURVE SMOOTH",
"298 510 OFFCURVE",
"244 478 OFFCURVE",
"222 422 CURVE",
"204 422 LINE",
"204 496 LINE",
"78 496 LINE",
"78 0 LINE"
);
}
);
width = 612;
},
{
associatedMasterId = "50C9B437-FF28-4DF4-B0E6-290519DD406F";
layerId = "6F79BC29-57C6-4550-A88F-E40C99786BD8";
name = "I2 {132, 0, 1000, 0, 1000, 1000}";
paths = (
{
closed = 1;
nodes = (
"204 0 LINE",
"204 258 LINE SMOOTH",
"204 342 OFFCURVE",
"241 396 OFFCURVE",
"315 396 CURVE SMOOTH",
"379 396 OFFCURVE",
"414 352 OFFCURVE",
"414 282 CURVE SMOOTH",
"414 263 OFFCURVE",
"414 245 OFFCURVE",
"414 226 CURVE SMOOTH",
"414 132 LINE",
"414 122 OFFCURVE",
"414 112 OFFCURVE",
"414 102 CURVE",
"414 56 OFFCURVE",
"433 24 OFFCURVE",
"456 -4 CURVE",
"502 -27 OFFCURVE",
"564 -34 OFFCURVE",
"605 -30 CURVE",
"639 -21 LINE",
"603 104 LINE",
"579 103 LINE",
"559 98 OFFCURVE",
"552 105 OFFCURVE",
"548 109 CURVE",
"545 110 OFFCURVE",
"540 118 OFFCURVE",
"540 126 CURVE",
"540 227 LINE SMOOTH",
"540 256 OFFCURVE",
"540 285 OFFCURVE",
"540 314 CURVE SMOOTH",
"540 450 OFFCURVE",
"462 510 OFFCURVE",
"366 510 CURVE SMOOTH",
"298 510 OFFCURVE",
"244 478 OFFCURVE",
"222 422 CURVE",
"204 422 LINE",
"204 496 LINE",
"78 496 LINE",
"78 0 LINE"
);
}
);
width = 612;
},
{
associatedMasterId = "50C9B437-FF28-4DF4-B0E6-290519DD406F";
layerId = "03478B00-9905-4FDF-B254-5F2192F35326";
name = "I3 {132, 0, 0, 1000, 1000, 1000}";
paths = (
{
closed = 1;
nodes = (
"204 0 LINE",
"204 258 LINE SMOOTH",
"204 342 OFFCURVE",
"241 396 OFFCURVE",
"315 396 CURVE SMOOTH",
"379 396 OFFCURVE",
"414 352 OFFCURVE",
"414 282 CURVE SMOOTH",
"414 263 OFFCURVE",
"414 245 OFFCURVE",
"414 226 CURVE SMOOTH",
"414 132 LINE",
"414 122 OFFCURVE",
"414 112 OFFCURVE",
"414 102 CURVE",
"414 56 OFFCURVE",
"433 24 OFFCURVE",
"456 -4 CURVE",
"502 -27 OFFCURVE",
"564 -34 OFFCURVE",
"605 -30 CURVE",
"639 -21 LINE",
"603 104 LINE",
"579 103 LINE",
"559 98 OFFCURVE",
"552 105 OFFCURVE",
"548 109 CURVE",
"545 110 OFFCURVE",
"540 118 OFFCURVE",
"540 126 CURVE",
"540 227 LINE SMOOTH",
"540 256 OFFCURVE",
"540 285 OFFCURVE",
"540 314 CURVE SMOOTH",
"540 450 OFFCURVE",
"462 510 OFFCURVE",
"366 510 CURVE SMOOTH",
"298 510 OFFCURVE",
"244 478 OFFCURVE",
"222 422 CURVE",
"204 422 LINE",
"204 496 LINE",
"78 496 LINE",
"78 0 LINE"
);
}
);
width = 612;
},
{
associatedMasterId = "50C9B437-FF28-4DF4-B0E6-290519DD406F";
layerId = "6E9AB549-68DE-47B5-9133-2BF1D9C9790A";
name = "J {132, 0, 1000, 1000, 1000, 1000}";
paths = (
{
closed = 1;
nodes = (
"204 0 LINE",
"204 258 LINE SMOOTH",
"204 342 OFFCURVE",
"241 396 OFFCURVE",
"315 396 CURVE SMOOTH",
"379 396 OFFCURVE",
"414 352 OFFCURVE",
"414 282 CURVE SMOOTH",
"414 263 OFFCURVE",
"414 245 OFFCURVE",
"414 226 CURVE SMOOTH",
"414 122 LINE SMOOTH",
"414 112 OFFCURVE",
"414 102 OFFCURVE",
"414 92 CURVE SMOOTH",
"414 26 OFFCURVE",
"464 -14 OFFCURVE",
"521 -14 CURVE SMOOTH",
"548 -14 OFFCURVE",
"576 -6 OFFCURVE",
"602 12 CURVE SMOOTH",
"656 48 LINE",
"593 142 LINE",
"550 112 LINE",
"546 115 OFFCURVE",
"546 115 OFFCURVE",
"546 115 CURVE",
"546 115 OFFCURVE",
"546 115 OFFCURVE",
"540 119 CURVE",
"540 227 LINE SMOOTH",
"540 256 OFFCURVE",
"540 285 OFFCURVE",
"540 314 CURVE SMOOTH",
"540 450 OFFCURVE",
"462 510 OFFCURVE",
"366 510 CURVE SMOOTH",
"298 510 OFFCURVE",
"244 478 OFFCURVE",
"222 422 CURVE",
"204 422 LINE",
"204 496 LINE",
"78 496 LINE",
"78 0 LINE"
);
}
);
width = 612;
},
{
layerId = "612FA678-EA3C-4672-88DD-29ED08259473";
paths = (
{
closed = 1;
nodes = (
"126 0 LINE",
"185 278 LINE SMOOTH",
"200 350 OFFCURVE",
"245 396 OFFCURVE",
"305 396 CURVE SMOOTH",
"353 396 OFFCURVE",
"383 368 OFFCURVE",
"383 320 CURVE SMOOTH",
"383 310 OFFCURVE",
"382 302 OFFCURVE",
"379 288 CURVE",
"347 139 LINE SMOOTH",
"345 128 OFFCURVE",
"343 118 OFFCURVE",
"340 106 CURVE SMOOTH",
"337 92 OFFCURVE",
"335 83 OFFCURVE",
"333 71 CURVE SMOOTH",
"330 55 OFFCURVE",
"326 39 OFFCURVE",
"323 23 CURVE SMOOTH",
"318 0 LINE",
"444 0 LINE",
"448 18 LINE SMOOTH",
"450 26 OFFCURVE",
"451 35 OFFCURVE",
"453 43 CURVE SMOOTH",
"457 59 OFFCURVE",
"460 75 OFFCURVE",
"463 91 CURVE SMOOTH",
"509 306 LINE",
"514 327 OFFCURVE",
"516 344 OFFCURVE",
"516 365 CURVE SMOOTH",
"516 457 OFFCURVE",
"461 510 OFFCURVE",
"378 510 CURVE SMOOTH",
"314 510 OFFCURVE",
"259 482 OFFCURVE",
"227 416 CURVE",
"209 416 LINE",
"226 496 LINE",
"105 496 LINE",
"0 0 LINE"
);
}
);
width = 612;
},
{
associatedMasterId = "612FA678-EA3C-4672-88DD-29ED08259473";
layerId = "6E711217-8203-4201-BED8-AEAA6786293B";
name = "K1 {132, 1000, 1000, 0, 0, 1000}";
paths = (
{
closed = 1;
nodes = (
"126 0 LINE",
"185 278 LINE SMOOTH",
"200 350 OFFCURVE",
"245 396 OFFCURVE",
"305 396 CURVE SMOOTH",
"353 396 OFFCURVE",
"383 368 OFFCURVE",
"383 320 CURVE SMOOTH",
"383 310 OFFCURVE",
"382 302 OFFCURVE",
"379 288 CURVE SMOOTH",
"343 122 LINE",
"341 111 OFFCURVE",
"340 102 OFFCURVE",
"340 92 CURVE",
"332 63 OFFCURVE",
"331 40 OFFCURVE",
"348 4 CURVE",
"384 -24 OFFCURVE",
"405 -13 OFFCURVE",
"421 -21 CURVE",
"474 -34 LINE",
"545 104 LINE",
"502 105 LINE",
"498 108 OFFCURVE",
"475 115 OFFCURVE",
"475 115 CURVE",
"475 115 OFFCURVE",
"475 115 OFFCURVE",
"481 149 CURVE",
"509 306 LINE SMOOTH",
"513 327 OFFCURVE",
"516 344 OFFCURVE",
"516 365 CURVE SMOOTH",
"516 457 OFFCURVE",
"461 510 OFFCURVE",
"378 510 CURVE SMOOTH",
"314 510 OFFCURVE",
"259 482 OFFCURVE",
"227 416 CURVE",
"209 416 LINE",
"226 496 LINE",
"105 496 LINE",
"0 0 LINE"
);
}
);
width = 612;
},
{
associatedMasterId = "612FA678-EA3C-4672-88DD-29ED08259473";
layerId = "4E4F6FF4-C2E9-4D78-B569-B7F7F2C02A02";
name = "K2 {132, 1000, 0, 1000, 0, 1000}";
paths = (
{
closed = 1;
nodes = (
"126 0 LINE",
"185 278 LINE SMOOTH",
"200 350 OFFCURVE",
"245 396 OFFCURVE",
"305 396 CURVE SMOOTH",
"353 396 OFFCURVE",
"383 368 OFFCURVE",
"383 320 CURVE SMOOTH",
"383 310 OFFCURVE",
"382 302 OFFCURVE",
"379 288 CURVE SMOOTH",
"343 122 LINE",
"341 111 OFFCURVE",
"340 102 OFFCURVE",
"340 92 CURVE",
"332 63 OFFCURVE",
"331 40 OFFCURVE",
"348 4 CURVE",
"384 -24 OFFCURVE",
"405 -13 OFFCURVE",
"421 -21 CURVE",
"474 -34 LINE",
"545 104 LINE",
"502 105 LINE",
"498 108 OFFCURVE",
"475 115 OFFCURVE",
"475 115 CURVE",
"475 115 OFFCURVE",
"475 115 OFFCURVE",
"481 149 CURVE",
"509 306 LINE SMOOTH",
"513 327 OFFCURVE",
"516 344 OFFCURVE",
"516 365 CURVE SMOOTH",
"516 457 OFFCURVE",
"461 510 OFFCURVE",
"378 510 CURVE SMOOTH",
"314 510 OFFCURVE",
"259 482 OFFCURVE",
"227 416 CURVE",
"209 416 LINE",
"226 496 LINE",
"105 496 LINE",
"0 0 LINE"
);
}
);
width = 612;
},
{
associatedMasterId = "612FA678-EA3C-4672-88DD-29ED08259473";
layerId = "66F4132B-C269-407F-AE14-9977DDEA8D16";
name = "K3 {132, 1000, 0, 0, 1000, 1000}";
paths = (
{
closed = 1;
nodes = (
"126 0 LINE",
"185 278 LINE SMOOTH",
"200 350 OFFCURVE",
"245 396 OFFCURVE",
"305 396 CURVE SMOOTH",
"353 396 OFFCURVE",
"383 368 OFFCURVE",
"383 320 CURVE SMOOTH",
"383 310 OFFCURVE",
"382 302 OFFCURVE",
"379 288 CURVE SMOOTH",
"343 122 LINE",
"341 111 OFFCURVE",
"340 102 OFFCURVE",
"340 92 CURVE",
"332 63 OFFCURVE",
"331 40 OFFCURVE",
"348 4 CURVE",
"384 -24 OFFCURVE",
"405 -13 OFFCURVE",
"421 -21 CURVE",
"474 -34 LINE",
"545 104 LINE",
"502 105 LINE",
"498 108 OFFCURVE",
"475 115 OFFCURVE",
"475 115 CURVE",
"475 115 OFFCURVE",
"475 115 OFFCURVE",
"481 149 CURVE",
"509 306 LINE SMOOTH",
"513 327 OFFCURVE",
"516 344 OFFCURVE",
"516 365 CURVE SMOOTH",
"516 457 OFFCURVE",
"461 510 OFFCURVE",
"378 510 CURVE SMOOTH",
"314 510 OFFCURVE",
"259 482 OFFCURVE",
"227 416 CURVE",
"209 416 LINE",
"226 496 LINE",
"105 496 LINE",
"0 0 LINE"
);
}
);
width = 612;
},
{
associatedMasterId = "612FA678-EA3C-4672-88DD-29ED08259473";
layerId = "BB36A72B-0D94-43D9-A88A-1E329AF757FA";
name = "L1 {132, 1000, 1000, 1000, 0, 1000}";
paths = (
{
closed = 1;
nodes = (
"126 0 LINE",
"185 278 LINE SMOOTH",
"200 350 OFFCURVE",
"245 396 OFFCURVE",
"305 396 CURVE SMOOTH",
"353 396 OFFCURVE",
"383 368 OFFCURVE",
"383 320 CURVE SMOOTH",
"383 310 OFFCURVE",
"382 302 OFFCURVE",
"379 288 CURVE SMOOTH",
"343 122 LINE SMOOTH",
"341 111 OFFCURVE",
"340 102 OFFCURVE",
"340 92 CURVE SMOOTH",
"340 26 OFFCURVE",
"359 9 OFFCURVE",
"417 -6 CURVE SMOOTH",
"444 -13 OFFCURVE",
"481 -6 OFFCURVE",
"530 -2 CURVE",
"575 1 LINE",
"555 112 LINE",
"479 112 LINE",
"475 115 OFFCURVE",
"475 115 OFFCURVE",
"475 115 CURVE",
"475 115 OFFCURVE",
"475 115 OFFCURVE",
"469 119 CURVE",
"509 306 LINE SMOOTH",
"513 327 OFFCURVE",
"516 344 OFFCURVE",
"516 365 CURVE SMOOTH",
"516 457 OFFCURVE",
"461 510 OFFCURVE",
"378 510 CURVE SMOOTH",
"314 510 OFFCURVE",
"259 482 OFFCURVE",
"227 416 CURVE",
"209 416 LINE",
"226 496 LINE",
"105 496 LINE",
"0 0 LINE"
);
}
);
width = 612;
},
{
associatedMasterId = "612FA678-EA3C-4672-88DD-29ED08259473";
layerId = "6E438612-8334-4CAC-874A-9CDADBADAD8C";
name = "L2 {132, 1000, 1000, 0, 1000, 1000}";
paths = (
{
closed = 1;
nodes = (
"126 0 LINE",
"185 278 LINE SMOOTH",
"200 350 OFFCURVE",
"245 396 OFFCURVE",
"305 396 CURVE SMOOTH",
"353 396 OFFCURVE",
"383 368 OFFCURVE",
"383 320 CURVE SMOOTH",
"383 310 OFFCURVE",
"382 302 OFFCURVE",
"379 288 CURVE SMOOTH",
"343 122 LINE SMOOTH",
"341 111 OFFCURVE",
"340 102 OFFCURVE",
"340 92 CURVE SMOOTH",
"340 26 OFFCURVE",
"359 9 OFFCURVE",
"417 -6 CURVE SMOOTH",
"444 -13 OFFCURVE",
"481 -6 OFFCURVE",
"530 -2 CURVE",
"575 1 LINE",
"555 112 LINE",
"479 112 LINE",
"475 115 OFFCURVE",
"475 115 OFFCURVE",
"475 115 CURVE",
"475 115 OFFCURVE",
"475 115 OFFCURVE",
"469 119 CURVE",
"509 306 LINE SMOOTH",
"513 327 OFFCURVE",
"516 344 OFFCURVE",
"516 365 CURVE SMOOTH",
"516 457 OFFCURVE",
"461 510 OFFCURVE",
"378 510 CURVE SMOOTH",
"314 510 OFFCURVE",
"259 482 OFFCURVE",
"227 416 CURVE",
"209 416 LINE",
"226 496 LINE",
"105 496 LINE",
"0 0 LINE"
);
}
);
width = 612;
},
{
associatedMasterId = "612FA678-EA3C-4672-88DD-29ED08259473";
layerId = "D83AEB4E-4083-4018-9810-22A620C6355B";
name = "L3 {132, 1000, 0, 1000, 1000, 1000}";
paths = (
{
closed = 1;
nodes = (
"126 0 LINE",
"185 278 LINE SMOOTH",
"200 350 OFFCURVE",
"245 396 OFFCURVE",
"305 396 CURVE SMOOTH",
"353 396 OFFCURVE",
"383 368 OFFCURVE",
"383 320 CURVE SMOOTH",
"383 310 OFFCURVE",
"382 302 OFFCURVE",
"379 288 CURVE SMOOTH",
"343 122 LINE SMOOTH",
"341 111 OFFCURVE",
"340 102 OFFCURVE",
"340 92 CURVE SMOOTH",
"340 26 OFFCURVE",
"359 9 OFFCURVE",
"417 -6 CURVE SMOOTH",
"444 -13 OFFCURVE",
"481 -6 OFFCURVE",
"530 -2 CURVE",
"575 1 LINE",
"555 112 LINE",
"479 112 LINE",
"475 115 OFFCURVE",
"475 115 OFFCURVE",
"475 115 CURVE",
"475 115 OFFCURVE",
"475 115 OFFCURVE",
"469 119 CURVE",
"509 306 LINE SMOOTH",
"513 327 OFFCURVE",
"516 344 OFFCURVE",
"516 365 CURVE SMOOTH",
"516 457 OFFCURVE",
"461 510 OFFCURVE",
"378 510 CURVE SMOOTH",
"314 510 OFFCURVE",
"259 482 OFFCURVE",
"227 416 CURVE",
"209 416 LINE",
"226 496 LINE",
"105 496 LINE",
"0 0 LINE"
);
}
);
width = 612;
},
{
associatedMasterId = "612FA678-EA3C-4672-88DD-29ED08259473";
layerId = "B448FE47-45BB-4AB1-9312-9ABF3FE09ADB";
name = "M {132, 1000, 1000, 1000, 1000, 1000}";
paths = (
{
closed = 1;
nodes = (
"126 0 LINE",
"185 278 LINE SMOOTH",
"200 350 OFFCURVE",
"245 396 OFFCURVE",
"305 396 CURVE SMOOTH",
"353 396 OFFCURVE",
"383 368 OFFCURVE",
"383 320 CURVE SMOOTH",
"383 310 OFFCURVE",
"382 302 OFFCURVE",
"379 288 CURVE SMOOTH",
"343 122 LINE SMOOTH",
"341 111 OFFCURVE",
"340 102 OFFCURVE",
"340 92 CURVE SMOOTH",
"340 26 OFFCURVE",
"391 -14 OFFCURVE",
"450 -14 CURVE SMOOTH",
"477 -14 OFFCURVE",
"505 -6 OFFCURVE",
"531 12 CURVE SMOOTH",
"585 48 LINE",
"522 142 LINE",
"479 112 LINE",
"475 115 OFFCURVE",
"475 115 OFFCURVE",
"475 115 CURVE",
"475 115 OFFCURVE",
"475 115 OFFCURVE",
"469 119 CURVE",
"509 306 LINE SMOOTH",
"513 327 OFFCURVE",
"516 344 OFFCURVE",
"516 365 CURVE SMOOTH",
"516 457 OFFCURVE",
"461 510 OFFCURVE",
"378 510 CURVE SMOOTH",
"314 510 OFFCURVE",
"259 482 OFFCURVE",
"227 416 CURVE",
"209 416 LINE",
"226 496 LINE",
"105 496 LINE",
"0 0 LINE"
);
}
);
width = 612;
},
{
associatedMasterId = "FBAFFF81-1F8B-4B58-9158-C4AF3F48F88C";
layerId = "397720FD-03E1-4682-966F-1C22C15780F9";
name = HOI;
paths = (
{
closed = 0;
nodes = (
"447 217 LINE",
"447 194 OFFCURVE",
"447 171 OFFCURVE",
"447 91 CURVE SMOOTH"
);
},
{
closed = 0;
nodes = (
"447 217 LINE",
"447 178 OFFCURVE",
"447 160 OFFCURVE",
"447 80 CURVE SMOOTH"
);
},
{
closed = 0;
nodes = (
"447 180 LINE",
"447 169 OFFCURVE",
"447 155 OFFCURVE",
"447 70 CURVE SMOOTH"
);
},
{
closed = 0;
nodes = (
"447 180 LINE",
"447 124 OFFCURVE",
"447 141 OFFCURVE",
"447 59 CURVE SMOOTH"
);
},
{
closed = 0;
nodes = (
"447 180 LINE",
"447 77 OFFCURVE",
"447 48 OFFCURVE",
"447 4 CURVE SMOOTH"
);
},
{
closed = 0;
nodes = (
"447 160 LINE",
"447 63 OFFCURVE",
"453 33 OFFCURVE",
"487 -14 CURVE SMOOTH"
);
},
{
closed = 0;
nodes = (
"447 141 LINE",
"452 34 OFFCURVE",
"468 13 OFFCURVE",
"526 -14 CURVE SMOOTH"
);
},
{
closed = 0;
nodes = (
"447 75 LINE",
"458 -2 OFFCURVE",
"512 -7 OFFCURVE",
"550 -14 CURVE SMOOTH"
);
},
{
closed = 0;
nodes = (
"447 58 LINE",
"474 -9 OFFCURVE",
"553 -9 OFFCURVE",
"572 -7 CURVE SMOOTH"
);
},
{
closed = 0;
nodes = (
"447 12 LINE",
"516 -16 OFFCURVE",
"575 -1 OFFCURVE",
"593 9 CURVE SMOOTH"
);
},
{
closed = 0;
nodes = (
"447 0 LINE",
"531 -35 OFFCURVE",
"614 9 OFFCURVE",
"632 38 CURVE SMOOTH"
);
},
{
closed = 0;
nodes = (
"525 0 LINE",
"596 59 OFFCURVE",
"563 82 OFFCURVE",
"590 97 CURVE SMOOTH"
);
},
{
closed = 0;
nodes = (
"525 14 LINE",
"578 73 OFFCURVE",
"553 83 OFFCURVE",
"548 66 CURVE SMOOTH"
);
},
{
closed = 0;
nodes = (
"525 54 LINE",
"537 84 OFFCURVE",
"542 70 OFFCURVE",
"544 63 CURVE SMOOTH"
);
},
{
closed = 0;
nodes = (
"525 80 LINE",
"526 100 OFFCURVE",
"538 67 OFFCURVE",
"541 62 CURVE SMOOTH"
);
},
{
closed = 0;
nodes = (
"525 139 LINE",
"525 146 OFFCURVE",
"526 69 OFFCURVE",
"537 62 CURVE SMOOTH"
);
},
{
closed = 0;
nodes = (
"525 162 LINE",
"525 157 OFFCURVE",
"525 74 OFFCURVE",
"529 62 CURVE SMOOTH"
);
},
{
closed = 0;
nodes = (
"525 214 LINE",
"525 183 OFFCURVE",
"525 80 OFFCURVE",
"525 68 CURVE SMOOTH"
);
}
);
width = 612;
},
{
associatedMasterId = "FBAFFF81-1F8B-4B58-9158-C4AF3F48F88C";
layerId = "6972C4C9-2B5B-4C09-84AF-23C149EE0781";
name = "Oct 1 18, 15:49";
paths = (
{
closed = 1;
nodes = (
"153 137 LINE",
"271 84 LINE",
"0 0 LINE"
);
}
);
width = 612;
}
);
unicode = 006E;
},
{
glyphname = o;
lastChange = "2018-09-21 14:01:48 +0000";
layers = (
{
layerId = "FBAFFF81-1F8B-4B58-9158-C4AF3F48F88C";
paths = (
{
closed = 1;
nodes = (
"438 -14 OFFCURVE",
"555 78 OFFCURVE",
"555 242 CURVE SMOOTH",
"555 254 LINE SMOOTH",
"555 416 OFFCURVE",
"437 510 OFFCURVE",
"306 510 CURVE SMOOTH",
"175 510 OFFCURVE",
"57 416 OFFCURVE",
"57 254 CURVE SMOOTH",
"57 242 LINE SMOOTH",
"57 78 OFFCURVE",
"174 -14 OFFCURVE",
"306 -14 CURVE SMOOTH"
);
},
{
closed = 1;
nodes = (
"211 60 OFFCURVE",
"137 130 OFFCURVE",
"137 242 CURVE SMOOTH",
"137 254 LINE SMOOTH",
"137 362 OFFCURVE",
"212 436 OFFCURVE",
"306 436 CURVE SMOOTH",
"400 436 OFFCURVE",
"475 362 OFFCURVE",
"475 254 CURVE SMOOTH",
"475 242 LINE SMOOTH",
"475 130 OFFCURVE",
"401 60 OFFCURVE",
"306 60 CURVE SMOOTH"
);
}
);
width = 612;
},
{
layerId = "50C9B437-FF28-4DF4-B0E6-290519DD406F";
paths = (
{
closed = 1;
nodes = (
"442 -14 OFFCURVE",
"564 78 OFFCURVE",
"564 242 CURVE SMOOTH",
"564 254 LINE SMOOTH",
"564 416 OFFCURVE",
"442 510 OFFCURVE",
"306 510 CURVE SMOOTH",
"170 510 OFFCURVE",
"48 416 OFFCURVE",
"48 254 CURVE SMOOTH",
"48 242 LINE SMOOTH",
"48 78 OFFCURVE",
"170 -14 OFFCURVE",
"306 -14 CURVE SMOOTH"
);
},
{
closed = 1;
nodes = (
"233 106 OFFCURVE",
"174 156 OFFCURVE",
"174 238 CURVE SMOOTH",
"174 258 LINE SMOOTH",
"174 340 OFFCURVE",
"233 390 OFFCURVE",
"306 390 CURVE SMOOTH",
"379 390 OFFCURVE",
"438 340 OFFCURVE",
"438 258 CURVE SMOOTH",
"438 238 LINE SMOOTH",
"438 156 OFFCURVE",
"379 106 OFFCURVE",
"306 106 CURVE SMOOTH"
);
}
);
width = 612;
},
{
layerId = "6008D70E-46A9-43E5-86AA-D196D19196A4";
paths = (
{
closed = 1;
nodes = (
"418 -14 OFFCURVE",
"530 141 OFFCURVE",
"531 304 CURVE SMOOTH",
"531 306 LINE SMOOTH",
"531 426 OFFCURVE",
"445 510 OFFCURVE",
"329 510 CURVE SMOOTH",
"162 510 OFFCURVE",
"21 381 OFFCURVE",
"20 190 CURVE SMOOTH",
"20 188 LINE SMOOTH",
"20 65 OFFCURVE",
"111 -14 OFFCURVE",
"223 -14 CURVE SMOOTH"
);
},
{
closed = 1;
nodes = (
"152 60 OFFCURVE",
"102 116 OFFCURVE",
"102 196 CURVE SMOOTH",
"102.008 197.995 LINE SMOOTH",
"103 327 OFFCURVE",
"199 436 OFFCURVE",
"312 436 CURVE SMOOTH",
"399 436 OFFCURVE",
"451 378 OFFCURVE",
"451 300 CURVE SMOOTH",
"451 298 LINE SMOOTH",
"450 177 OFFCURVE",
"363 60 OFFCURVE",
"240 60 CURVE SMOOTH"
);
}
);
width = 612;
},
{
layerId = "612FA678-EA3C-4672-88DD-29ED08259473";
paths = (
{
closed = 1;
nodes = (
"451 -14 OFFCURVE",
"557 122 OFFCURVE",
"558 308 CURVE SMOOTH",
"558 310 LINE SMOOTH",
"558 430 OFFCURVE",
"468 510 OFFCURVE",
"342 510 CURVE SMOOTH",
"169 510 OFFCURVE",
"34 391 OFFCURVE",
"33 186 CURVE SMOOTH",
"33 184 LINE SMOOTH",
"33 58 OFFCURVE",
"130 -14 OFFCURVE",
"246 -14 CURVE SMOOTH"
);
},
{
closed = 1;
nodes = (
"203 104 OFFCURVE",
"162 140 OFFCURVE",
"162 208 CURVE SMOOTH",
"162 210 LINE SMOOTH",
"163 304 OFFCURVE",
"231 392 OFFCURVE",
"326 392 CURVE SMOOTH",
"388 392 OFFCURVE",
"429 356 OFFCURVE",
"429 287 CURVE SMOOTH",
"429 285 LINE SMOOTH",
"428 188 OFFCURVE",
"361 106 OFFCURVE",
"265 104 CURVE"
);
}
);
width = 612;
}
);
unicode = 006F;
},
{
color = 0;
glyphname = p;
lastChange = "2018-09-21 14:23:49 +0000";
layers = (
{
layerId = "FBAFFF81-1F8B-4B58-9158-C4AF3F48F88C";
paths = (
{
closed = 1;
nodes = (
"147 -200 LINE",
"147 76 LINE",
"159 76 LINE",
"193 16 OFFCURVE",
"265 -14 OFFCURVE",
"329 -14 CURVE SMOOTH",
"455 -14 OFFCURVE",
"559 76 OFFCURVE",
"559 238 CURVE SMOOTH",
"559 258 LINE SMOOTH",
"559 418 OFFCURVE",
"453 510 OFFCURVE",
"331 510 CURVE SMOOTH",
"259 510 OFFCURVE",
"193 478 OFFCURVE",
"159 418 CURVE",
"147 418 LINE",
"147 496 LINE",
"69 496 LINE",
"69 -200 LINE"
);
},
{
closed = 1;
nodes = (
"220 60 OFFCURVE",
"147 132 OFFCURVE",
"147 242 CURVE SMOOTH",
"147 254 LINE SMOOTH",
"147 360 OFFCURVE",
"221 436 OFFCURVE",
"313 436 CURVE SMOOTH",
"407 436 OFFCURVE",
"479 364 OFFCURVE",
"479 258 CURVE SMOOTH",
"479 238 LINE SMOOTH",
"479 128 OFFCURVE",
"408 60 OFFCURVE",
"313 60 CURVE SMOOTH"
);
}
);
width = 612;
},
{
layerId = "50C9B437-FF28-4DF4-B0E6-290519DD406F";
paths = (
{
closed = 1;
nodes = (
"178 -200 LINE",
"178 72 LINE",
"196 72 LINE",
"219 28 OFFCURVE",
"261 -14 OFFCURVE",
"351 -14 CURVE SMOOTH",
"473 -14 OFFCURVE",
"568 76 OFFCURVE",
"568 239 CURVE SMOOTH",
"568 257 LINE SMOOTH",
"568 416 OFFCURVE",
"468 510 OFFCURVE",
"351 510 CURVE SMOOTH",
"273 510 OFFCURVE",
"223 478 OFFCURVE",
"196 424 CURVE",
"178 424 LINE",
"178 496 LINE",
"52 496 LINE",
"52 -200 LINE"
);
},
{
closed = 1;
nodes = (
"232 106 OFFCURVE",
"178 161 OFFCURVE",
"178 242 CURVE SMOOTH",
"178 254 LINE SMOOTH",
"178 335 OFFCURVE",
"232 390 OFFCURVE",
"310 390 CURVE SMOOTH",
"388 390 OFFCURVE",
"442 337 OFFCURVE",
"442 254 CURVE SMOOTH",
"442 242 LINE SMOOTH",
"442 159 OFFCURVE",
"388 106 OFFCURVE",
"310 106 CURVE SMOOTH"
);
}
);
width = 612;
},
{
layerId = "6008D70E-46A9-43E5-86AA-D196D19196A4";
paths = (
{
closed = 1;
nodes = (
"77 -200 LINE",
"136 76 LINE",
"148 76 LINE",
"170 24 OFFCURVE",
"228 -14 OFFCURVE",
"302 -14 CURVE SMOOTH",
"487 -14 OFFCURVE",
"580 141 OFFCURVE",
"581 316 CURVE SMOOTH",
"581 318 LINE SMOOTH",
"581 428 OFFCURVE",
"504 510 OFFCURVE",
"394 510 CURVE SMOOTH",
"316 510 OFFCURVE",
"260 478 OFFCURVE",
"220 418 CURVE",
"208 418 LINE",
"225 496 LINE",
"147 496 LINE",
"0 -200 LINE"
);
},
{
closed = 1;
nodes = (
"214 60 OFFCURVE",
"167 110 OFFCURVE",
"167 195 CURVE SMOOTH",
"167 197 LINE SMOOTH",
"168 315 OFFCURVE",
"251 436 OFFCURVE",
"372 436 CURVE SMOOTH",
"448 436 OFFCURVE",
"498 390 OFFCURVE",
"498 302 CURVE SMOOTH",
"498 300 LINE SMOOTH",
"497 175 OFFCURVE",
"423 60 OFFCURVE",
"292 60 CURVE SMOOTH"
);
}
);
width = 612;
},
{
layerId = "612FA678-EA3C-4672-88DD-29ED08259473";
paths = (
{
closed = 1;
nodes = (
"121 -200 LINE",
"179 72 LINE",
"197 72 LINE",
"209 30 OFFCURVE",
"253 -14 OFFCURVE",
"337 -14 CURVE SMOOTH",
"518 -14 OFFCURVE",
"592 154 OFFCURVE",
"593 312 CURVE SMOOTH",
"593 314 LINE SMOOTH",
"593 440 OFFCURVE",
"515 510 OFFCURVE",
"423 510 CURVE SMOOTH",
"349 510 OFFCURVE",
"295 480 OFFCURVE",
"263 424 CURVE",
"245 424 LINE",
"264 496 LINE",
"143 496 LINE",
"-5 -200 LINE"
);
},
{
closed = 1;
nodes = (
"251 106 OFFCURVE",
"212 148 OFFCURVE",
"212 210 CURVE SMOOTH",
"212 212 LINE SMOOTH",
"213 315 OFFCURVE",
"270 390 OFFCURVE",
"359 390 CURVE SMOOTH",
"423 390 OFFCURVE",
"461 342 OFFCURVE",
"461 286 CURVE SMOOTH",
"461 284 LINE SMOOTH",
"460 181 OFFCURVE",
"412 106 OFFCURVE",
"313 106 CURVE SMOOTH"
);
}
);
width = 612;
},
{
associatedMasterId = "6008D70E-46A9-43E5-86AA-D196D19196A4";
layerId = "F282A2BC-B419-4BA7-9026-CE7626EE851E";
name = "Sep 21 18, 10:11";
paths = (
{
closed = 1;
nodes = (
"148 76 LINE",
"170 24 OFFCURVE",
"228 -14 OFFCURVE",
"302 -14 CURVE SMOOTH",
"488 -14 OFFCURVE",
"581 142 OFFCURVE",
"581 318 CURVE SMOOTH",
"581 428 OFFCURVE",
"504 510 OFFCURVE",
"394 510 CURVE SMOOTH",
"316 510 OFFCURVE",
"260 478 OFFCURVE",
"220 418 CURVE",
"208 418 LINE",
"208 424 LINE SMOOTH",
"208 480 OFFCURVE",
"174 510 OFFCURVE",
"121 510 CURVE SMOOTH",
"100 510 OFFCURVE",
"79 504 OFFCURVE",
"60 491 CURVE SMOOTH",
"13 459 LINE",
"53 400 LINE",
"108 438 LINE SMOOTH",
"111 440 OFFCURVE",
"115 441 OFFCURVE",
"117 441 CURVE SMOOTH",
"127 441 OFFCURVE",
"134 435 OFFCURVE",
"131 421 CURVE SMOOTH",
"0 -200 LINE",
"77 -200 LINE",
"136 76 LINE"
);
},
{
closed = 1;
nodes = (
"214 60 OFFCURVE",
"167 110 OFFCURVE",
"167 195 CURVE SMOOTH",
"167 314 OFFCURVE",
"250 436 OFFCURVE",
"372 436 CURVE SMOOTH",
"448 436 OFFCURVE",
"498 390 OFFCURVE",
"498 302 CURVE SMOOTH",
"498 176 OFFCURVE",
"424 60 OFFCURVE",
"292 60 CURVE SMOOTH"
);
}
);
width = 612;
},
{
associatedMasterId = "612FA678-EA3C-4672-88DD-29ED08259473";
layerId = "DE27294E-9491-4D62-B234-972E606642B2";
name = "Sep 21 18, 10:11";
paths = (
{
closed = 1;
nodes = (
"197 72 LINE",
"209 30 OFFCURVE",
"253 -14 OFFCURVE",
"337 -14 CURVE SMOOTH",
"519 -14 OFFCURVE",
"593 156 OFFCURVE",
"593 314 CURVE SMOOTH",
"593 440 OFFCURVE",
"515 510 OFFCURVE",
"423 510 CURVE SMOOTH",
"349 510 OFFCURVE",
"295 480 OFFCURVE",
"263 424 CURVE",
"245 424 LINE",
"236 477 OFFCURVE",
"191 510 OFFCURVE",
"138 510 CURVE SMOOTH",
"110 510 OFFCURVE",
"79 500 OFFCURVE",
"51 480 CURVE SMOOTH",
"-3 440 LINE",
"62 350 LINE",
"108 384 LINE",
"118 377 LINE",
"-5 -200 LINE",
"121 -200 LINE",
"179 72 LINE"
);
},
{
closed = 1;
nodes = (
"251 106 OFFCURVE",
"212 148 OFFCURVE",
"212 210 CURVE SMOOTH",
"212 314 OFFCURVE",
"269 390 OFFCURVE",
"359 390 CURVE SMOOTH",
"423 390 OFFCURVE",
"461 342 OFFCURVE",
"461 286 CURVE SMOOTH",
"461 182 OFFCURVE",
"413 106 OFFCURVE",
"313 106 CURVE SMOOTH"
);
}
);
width = 612;
}
);
unicode = 0070;
},
{
color = 0;
export = 0;
glyphname = q;
lastChange = "2018-09-17 17:30:28 +0000";
layers = (
{
layerId = "FBAFFF81-1F8B-4B58-9158-C4AF3F48F88C";
paths = (
{
closed = 1;
nodes = (
"545 -200 LINE",
"545 496 LINE",
"467 496 LINE",
"467 418 LINE",
"455 418 LINE",
"421 478 OFFCURVE",
"359 510 OFFCURVE",
"291 510 CURVE SMOOTH",
"163 510 OFFCURVE",
"55 417 OFFCURVE",
"55 256 CURVE SMOOTH",
"55 240 LINE SMOOTH",
"55 77 OFFCURVE",
"161 -14 OFFCURVE",
"293 -14 CURVE SMOOTH",
"353 -14 OFFCURVE",
"421 16 OFFCURVE",
"455 76 CURVE",
"467 76 LINE",
"467 -200 LINE"
);
},
{
closed = 1;
nodes = (
"206 60 OFFCURVE",
"135 129 OFFCURVE",
"135 240 CURVE SMOOTH",
"135 256 LINE SMOOTH",
"135 363 OFFCURVE",
"207 436 OFFCURVE",
"301 436 CURVE SMOOTH",
"393 436 OFFCURVE",
"467 360 OFFCURVE",
"467 254 CURVE SMOOTH",
"467 242 LINE SMOOTH",
"467 132 OFFCURVE",
"394 60 OFFCURVE",
"301 60 CURVE SMOOTH"
);
}
);
width = 612;
},
{
layerId = "50C9B437-FF28-4DF4-B0E6-290519DD406F";
paths = (
{
closed = 1;
nodes = (
"560 -200 LINE",
"560 496 LINE",
"434 496 LINE",
"434 424 LINE",
"416 424 LINE",
"390 478 OFFCURVE",
"346 510 OFFCURVE",
"266 510 CURVE SMOOTH",
"145 510 OFFCURVE",
"44 416 OFFCURVE",
"44 257 CURVE SMOOTH",
"44 239 LINE SMOOTH",
"44 76 OFFCURVE",
"139 -14 OFFCURVE",
"261 -14 CURVE SMOOTH",
"356 -14 OFFCURVE",
"396 28 OFFCURVE",
"416 72 CURVE",
"434 72 LINE",
"434 -200 LINE"
);
},
{
closed = 1;
nodes = (
"224 106 OFFCURVE",
"170 159 OFFCURVE",
"170 242 CURVE SMOOTH",
"170 254 LINE SMOOTH",
"170 337 OFFCURVE",
"224 390 OFFCURVE",
"302 390 CURVE SMOOTH",
"380 390 OFFCURVE",
"434 335 OFFCURVE",
"434 254 CURVE SMOOTH",
"434 242 LINE SMOOTH",
"434 161 OFFCURVE",
"380 106 OFFCURVE",
"302 106 CURVE SMOOTH"
);
}
);
width = 612;
},
{
layerId = "6008D70E-46A9-43E5-86AA-D196D19196A4";
paths = (
{
closed = 1;
nodes = (
"353 -109 OFFCURVE",
"352 -119 OFFCURVE",
"352 -128 CURVE SMOOTH",
"352 -184 OFFCURVE",
"391 -212 OFFCURVE",
"436 -212 CURVE SMOOTH",
"458 -212 OFFCURVE",
"481 -205 OFFCURVE",
"502 -191 CURVE SMOOTH",
"554 -156 LINE",
"514 -97 LINE",
"462 -132 LINE SMOOTH",
"457 -135 OFFCURVE",
"452 -137 OFFCURVE",
"447 -137 CURVE SMOOTH",
"435 -137 OFFCURVE",
"426 -127 OFFCURVE",
"430 -111 CURVE SMOOTH",
"559 496 LINE",
"481 496 LINE",
"464 418 LINE",
"452 418 LINE",
"436 472 OFFCURVE",
"382 510 OFFCURVE",
"304 510 CURVE SMOOTH",
"136 510 OFFCURVE",
"20 370 OFFCURVE",
"20 186 CURVE SMOOTH",
"20 66 OFFCURVE",
"96 -14 OFFCURVE",
"211 -14 CURVE SMOOTH",
"280 -14 OFFCURVE",
"340 14 OFFCURVE",
"379 70 CURVE",
"391 70 LINE",
"355 -98 LINE"
);
},
{
closed = 1;
nodes = (
"146 60 OFFCURVE",
"101 112 OFFCURVE",
"101 194 CURVE SMOOTH",
"101 320 OFFCURVE",
"180 436 OFFCURVE",
"306 436 CURVE SMOOTH",
"384 436 OFFCURVE",
"435 380 OFFCURVE",
"435 298 CURVE SMOOTH",
"435 180 OFFCURVE",
"350 60 OFFCURVE",
"228 60 CURVE SMOOTH"
);
}
);
width = 612;
},
{
layerId = "612FA678-EA3C-4672-88DD-29ED08259473";
paths = (
{
closed = 1;
nodes = (
"191 106 OFFCURVE",
"152 141 OFFCURVE",
"152 206 CURVE SMOOTH",
"152 302 OFFCURVE",
"219 390 OFFCURVE",
"316 390 CURVE SMOOTH",
"381 390 OFFCURVE",
"420 353 OFFCURVE",
"420 289 CURVE SMOOTH",
"420 194 OFFCURVE",
"352 106 OFFCURVE",
"256 106 CURVE SMOOTH"
);
},
{
closed = 1;
nodes = (
"343 -86 OFFCURVE",
"342 -95 OFFCURVE",
"342 -105 CURVE SMOOTH",
"342 -171 OFFCURVE",
"391 -212 OFFCURVE",
"450 -212 CURVE SMOOTH",
"477 -212 OFFCURVE",
"506 -204 OFFCURVE",
"533 -186 CURVE SMOOTH",
"600 -142 LINE",
"537 -48 LINE",
"481 -86 LINE",
"471 -79 LINE",
"594 496 LINE",
"468 496 LINE",
"453 424 LINE",
"435 424 LINE",
"420 472 OFFCURVE",
"384 510 OFFCURVE",
"302 510 CURVE SMOOTH",
"124 510 OFFCURVE",
"22 348 OFFCURVE",
"22 170 CURVE SMOOTH",
"22 58 OFFCURVE",
"100 -14 OFFCURVE",
"192 -14 CURVE SMOOTH",
"288 -14 OFFCURVE",
"332 28 OFFCURVE",
"360 72 CURVE",
"378 72 LINE",
"346 -72 LINE SMOOTH"
);
}
);
width = 612;
}
);
unicode = 0071;
},
{
color = 0;
export = 0;
glyphname = r;
lastChange = "2018-09-16 21:49:09 +0000";
layers = (
{
layerId = "FBAFFF81-1F8B-4B58-9158-C4AF3F48F88C";
paths = (
{
closed = 1;
nodes = (
"161 424 LINE",
"161 72 LINE",
"47 72 LINE",
"47 0 LINE",
"365 0 LINE",
"365 72 LINE",
"239 72 LINE",
"239 282 LINE SMOOTH",
"239 368 OFFCURVE",
"277 436 OFFCURVE",
"359 436 CURVE SMOOTH",
"423 436 OFFCURVE",
"473 398 OFFCURVE",
"473 306 CURVE",
"555 318 LINE",
"551 443 OFFCURVE",
"484 510 OFFCURVE",
"385 510 CURVE SMOOTH",
"326 510 OFFCURVE",
"276 484 OFFCURVE",
"251 430 CURVE",
"239 430 LINE",
"239 496 LINE",
"59 496 LINE",
"59 424 LINE"
);
}
);
width = 612;
},
{
layerId = "50C9B437-FF28-4DF4-B0E6-290519DD406F";
paths = (
{
closed = 1;
nodes = (
"144 376 LINE",
"144 120 LINE",
"42 120 LINE",
"42 0 LINE",
"384 0 LINE",
"384 120 LINE",
"270 120 LINE",
"270 280 LINE SMOOTH",
"270 352 OFFCURVE",
"304 392 OFFCURVE",
"360 392 CURVE SMOOTH",
"416 392 OFFCURVE",
"444 356 OFFCURVE",
"444 302 CURVE SMOOTH",
"444 288 LINE",
"574 300 LINE",
"574 322 LINE SMOOTH",
"574 448 OFFCURVE",
"508 510 OFFCURVE",
"410 510 CURVE SMOOTH",
"348 510 OFFCURVE",
"300 478 OFFCURVE",
"282 424 CURVE",
"264 424 LINE",
"264 496 LINE",
"54 496 LINE",
"54 376 LINE"
);
}
);
width = 612;
},
{
layerId = "6008D70E-46A9-43E5-86AA-D196D19196A4";
paths = (
{
closed = 1;
nodes = (
"0 72 LINE",
"0 0 LINE",
"318 0 LINE",
"318 72 LINE",
"200 72 LINE",
"247 294 LINE SMOOTH",
"263 370 OFFCURVE",
"313 436 OFFCURVE",
"393 436 CURVE SMOOTH",
"448 436 OFFCURVE",
"488 406 OFFCURVE",
"488 342 CURVE SMOOTH",
"488 329 OFFCURVE",
"486 315 OFFCURVE",
"483 300 CURVE",
"568 306 LINE",
"572 324 OFFCURVE",
"574 342 OFFCURVE",
"574 359 CURVE SMOOTH",
"574 449 OFFCURVE",
"515 510 OFFCURVE",
"420 510 CURVE SMOOTH",
"368 510 OFFCURVE",
"318 490 OFFCURVE",
"280 436 CURVE",
"268 436 LINE",
"264 488 OFFCURVE",
"229 510 OFFCURVE",
"188 510 CURVE SMOOTH",
"166 510 OFFCURVE",
"141 502 OFFCURVE",
"119 487 CURVE SMOOTH",
"30 427 LINE",
"70 368 LINE",
"161 430 LINE SMOOTH",
"167 434 OFFCURVE",
"172 435 OFFCURVE",
"176 435 CURVE SMOOTH",
"188 435 OFFCURVE",
"198 426 OFFCURVE",
"194 410 CURVE SMOOTH",
"122 72 LINE"
);
}
);
width = 612;
},
{
layerId = "612FA678-EA3C-4672-88DD-29ED08259473";
paths = (
{
closed = 1;
nodes = (
"28 120 LINE",
"28 0 LINE",
"370 0 LINE",
"370 120 LINE",
"250 120 LINE",
"286 288 LINE SMOOTH",
"300 354 OFFCURVE",
"331 392 OFFCURVE",
"384 392 CURVE SMOOTH",
"426 392 OFFCURVE",
"448 368 OFFCURVE",
"448 329 CURVE SMOOTH",
"448 321 OFFCURVE",
"447 312 OFFCURVE",
"445 302 CURVE SMOOTH",
"442 288 LINE",
"576 298 LINE",
"581 320 LINE SMOOTH",
"586 344 OFFCURVE",
"588 359 OFFCURVE",
"588 376 CURVE SMOOTH",
"588 460 OFFCURVE",
"536 510 OFFCURVE",
"460 510 CURVE SMOOTH",
"401 510 OFFCURVE",
"350 482 OFFCURVE",
"323 426 CURVE",
"305 426 LINE",
"297 479 OFFCURVE",
"252 510 OFFCURVE",
"199 510 CURVE SMOOTH",
"168 510 OFFCURVE",
"133 499 OFFCURVE",
"102 476 CURVE SMOOTH",
"22 416 LINE",
"89 326 LINE",
"168 384 LINE",
"178 378 LINE",
"124 120 LINE"
);
}
);
width = 612;
}
);
unicode = 0072;
},
{
export = 0;
glyphname = s;
lastChange = "2018-09-16 21:49:09 +0000";
layers = (
{
layerId = "FBAFFF81-1F8B-4B58-9158-C4AF3F48F88C";
paths = (
{
closed = 1;
nodes = (
"190 416 OFFCURVE",
"242 440 OFFCURVE",
"298 440 CURVE SMOOTH",
"370 440 OFFCURVE",
"418 402 OFFCURVE",
"424 338 CURVE",
"498 356 LINE",
"488 432 OFFCURVE",
"426 510 OFFCURVE",
"294 510 CURVE SMOOTH",
"202 510 OFFCURVE",
"114 462 OFFCURVE",
"114 368 CURVE SMOOTH",
"114 362 LINE SMOOTH",
"114 276 OFFCURVE",
"178 231 OFFCURVE",
"292 223 CURVE SMOOTH",
"390 216 OFFCURVE",
"432 196 OFFCURVE",
"432 140 CURVE SMOOTH",
"432 88 OFFCURVE",
"383 58 OFFCURVE",
"310 58 CURVE SMOOTH",
"224 58 OFFCURVE",
"168 108 OFFCURVE",
"162 184 CURVE",
"88 166 LINE",
"94 78 OFFCURVE",
"160 -14 OFFCURVE",
"314 -14 CURVE SMOOTH",
"430 -14 OFFCURVE",
"510 44 OFFCURVE",
"510 140 CURVE SMOOTH",
"510 146 LINE SMOOTH",
"510 234 OFFCURVE",
"447 279 OFFCURVE",
"332 288 CURVE SMOOTH",
"224 296 OFFCURVE",
"190 320 OFFCURVE",
"190 368 CURVE SMOOTH"
);
}
);
width = 612;
},
{
layerId = "50C9B437-FF28-4DF4-B0E6-290519DD406F";
paths = (
{
closed = 1;
nodes = (
"236 378 OFFCURVE",
"258 396 OFFCURVE",
"300 396 CURVE SMOOTH",
"346 396 OFFCURVE",
"376 374 OFFCURVE",
"388 338 CURVE",
"502 384 LINE",
"481 441 OFFCURVE",
"426 510 OFFCURVE",
"300 510 CURVE SMOOTH",
"204 510 OFFCURVE",
"112 456 OFFCURVE",
"112 358 CURVE SMOOTH",
"112 352 LINE SMOOTH",
"112 258 OFFCURVE",
"184 210 OFFCURVE",
"295 201 CURVE SMOOTH",
"379 194 OFFCURVE",
"400 172 OFFCURVE",
"400 146 CURVE SMOOTH",
"400 123 OFFCURVE",
"380 100 OFFCURVE",
"318 100 CURVE SMOOTH",
"248 100 OFFCURVE",
"216 138 OFFCURVE",
"206 180 CURVE",
"90 142 LINE",
"104 74 OFFCURVE",
"164 -14 OFFCURVE",
"318 -14 CURVE SMOOTH",
"448 -14 OFFCURVE",
"524 50 OFFCURVE",
"524 148 CURVE SMOOTH",
"524 154 LINE SMOOTH",
"524 243 OFFCURVE",
"453 293 OFFCURVE",
"352 304 CURVE SMOOTH",
"264 314 OFFCURVE",
"236 324 OFFCURVE",
"236 356 CURVE SMOOTH"
);
}
);
width = 612;
},
{
layerId = "6008D70E-46A9-43E5-86AA-D196D19196A4";
paths = (
{
closed = 1;
nodes = (
"408 440 OFFCURVE",
"447 407 OFFCURVE",
"447 356 CURVE",
"447 352 OFFCURVE",
"446 345 OFFCURVE",
"446 345 CURVE",
"523 356 LINE",
"523 367 LINE",
"523 438 OFFCURVE",
"469 510 OFFCURVE",
"346 510 CURVE SMOOTH",
"220 510 OFFCURVE",
"137 442 OFFCURVE",
"137 348 CURVE SMOOTH",
"137 266 OFFCURVE",
"195 230 OFFCURVE",
"289 223 CURVE SMOOTH",
"372 217 OFFCURVE",
"414 204 OFFCURVE",
"414 152 CURVE SMOOTH",
"414 86 OFFCURVE",
"338 58 OFFCURVE",
"276 58 CURVE SMOOTH",
"182 58 OFFCURVE",
"150 102 OFFCURVE",
"150 160 CURVE SMOOTH",
"150 165 OFFCURVE",
"150 166 OFFCURVE",
"151 176 CURVE",
"73 166 LINE",
"72 159 OFFCURVE",
"72 152 OFFCURVE",
"72 145 CURVE SMOOTH",
"72 65 OFFCURVE",
"126 -14 OFFCURVE",
"261 -14 CURVE SMOOTH",
"396 -14 OFFCURVE",
"494 50 OFFCURVE",
"494 162 CURVE SMOOTH",
"494 242 OFFCURVE",
"438 282 OFFCURVE",
"343 289 CURVE SMOOTH",
"250 296 OFFCURVE",
"216 315 OFFCURVE",
"216 358 CURVE SMOOTH",
"216 414 OFFCURVE",
"282 440 OFFCURVE",
"336 440 CURVE SMOOTH"
);
}
);
width = 612;
},
{
layerId = "612FA678-EA3C-4672-88DD-29ED08259473";
paths = (
{
closed = 1;
nodes = (
"373 396 OFFCURVE",
"401 374 OFFCURVE",
"406 338 CURVE",
"528 370 LINE",
"520 427 OFFCURVE",
"476 510 OFFCURVE",
"338 510 CURVE SMOOTH",
"226 510 OFFCURVE",
"126 448 OFFCURVE",
"126 335 CURVE SMOOTH",
"126 258 OFFCURVE",
"187 209 OFFCURVE",
"283 201 CURVE SMOOTH",
"354 195 OFFCURVE",
"377 178 OFFCURVE",
"377 150 CURVE SMOOTH",
"377 113 OFFCURVE",
"336 100 OFFCURVE",
"290 100 CURVE SMOOTH",
"222 100 OFFCURVE",
"190 136 OFFCURVE",
"186 180 CURVE",
"62 150 LINE",
"66 80 OFFCURVE",
"128 -14 OFFCURVE",
"274 -14 CURVE SMOOTH",
"418 -14 OFFCURVE",
"506 58 OFFCURVE",
"506 174 CURVE SMOOTH",
"506 252 OFFCURVE",
"447 294 OFFCURVE",
"361 304 CURVE SMOOTH",
"284 313 OFFCURVE",
"255 324 OFFCURVE",
"255 352 CURVE SMOOTH",
"255 384 OFFCURVE",
"294 396 OFFCURVE",
"322 396 CURVE SMOOTH"
);
}
);
width = 612;
}
);
unicode = 0073;
},
{
color = 1;
export = 0;
glyphname = t;
lastChange = "2018-09-16 21:49:09 +0000";
layers = (
{
layerId = "FBAFFF81-1F8B-4B58-9158-C4AF3F48F88C";
paths = (
{
closed = 1;
nodes = (
"226 424 LINE",
"226 78 LINE SMOOTH",
"226 33 OFFCURVE",
"258 0 OFFCURVE",
"303 0 CURVE SMOOTH",
"472 0 LINE",
"472 72 LINE",
"331 72 LINE SMOOTH",
"312 72 OFFCURVE",
"304 83 OFFCURVE",
"304 102 CURVE SMOOTH",
"304 424 LINE",
"496 424 LINE",
"496 496 LINE",
"304 496 LINE",
"304 700 LINE",
"226 700 LINE",
"226 496 LINE",
"70 496 LINE",
"70 424 LINE"
);
}
);
width = 612;
},
{
layerId = "50C9B437-FF28-4DF4-B0E6-290519DD406F";
paths = (
{
closed = 1;
nodes = (
"211 376 LINE",
"211 78 LINE SMOOTH",
"211 33 OFFCURVE",
"243 0 OFFCURVE",
"288 0 CURVE SMOOTH",
"498 0 LINE",
"498 120 LINE",
"364 120 LINE SMOOTH",
"345 120 OFFCURVE",
"337 131 OFFCURVE",
"337 150 CURVE SMOOTH",
"337 376 LINE",
"516 376 LINE",
"516 496 LINE",
"337 496 LINE",
"337 700 LINE",
"211 700 LINE",
"211 496 LINE",
"64 496 LINE",
"64 376 LINE"
);
}
);
width = 612;
},
{
layerId = "6008D70E-46A9-43E5-86AA-D196D19196A4";
paths = (
{
closed = 1;
nodes = (
"241 424 LINE",
"173 100 LINE SMOOTH",
"171 90 OFFCURVE",
"169 79 OFFCURVE",
"169 70 CURVE SMOOTH",
"169 14 OFFCURVE",
"208 -14 OFFCURVE",
"254 -14 CURVE SMOOTH",
"276 -14 OFFCURVE",
"299 -7 OFFCURVE",
"320 7 CURVE SMOOTH",
"453 97 LINE",
"413 156 LINE",
"280 66 LINE SMOOTH",
"275 63 OFFCURVE",
"270 61 OFFCURVE",
"265 61 CURVE SMOOTH",
"253 61 OFFCURVE",
"244 71 OFFCURVE",
"248 87 CURVE SMOOTH",
"319 424 LINE",
"511 424 LINE",
"511 496 LINE",
"335 496 LINE",
"381 714 LINE",
"303 714 LINE",
"257 496 LINE",
"85 496 LINE",
"85 424 LINE"
);
}
);
width = 612;
},
{
layerId = "612FA678-EA3C-4672-88DD-29ED08259473";
paths = (
{
closed = 1;
nodes = (
"160 111 OFFCURVE",
"159 104 OFFCURVE",
"159 94 CURVE SMOOTH",
"159 27 OFFCURVE",
"210 -14 OFFCURVE",
"269 -14 CURVE SMOOTH",
"296 -14 OFFCURVE",
"324 -6 OFFCURVE",
"350 12 CURVE SMOOTH",
"495 110 LINE",
"432 204 LINE",
"298 112 LINE",
"288 119 LINE",
"344 376 LINE",
"542 376 LINE",
"542 496 LINE",
"370 496 LINE",
"416 714 LINE",
"290 714 LINE",
"244 496 LINE",
"78 496 LINE",
"78 376 LINE",
"218 376 LINE",
"163 126 LINE SMOOTH"
);
}
);
width = 612;
}
);
unicode = 0074;
},
{
color = 0;
export = 0;
glyphname = u;
lastChange = "2018-09-16 21:49:09 +0000";
layers = (
{
layerId = "FBAFFF81-1F8B-4B58-9158-C4AF3F48F88C";
paths = (
{
closed = 1;
nodes = (
"441 130 OFFCURVE",
"383 60 OFFCURVE",
"289 60 CURVE SMOOTH",
"201 60 OFFCURVE",
"159 106 OFFCURVE",
"159 210 CURVE SMOOTH",
"159 496 LINE",
"81 496 LINE",
"81 200 LINE SMOOTH",
"81 58 OFFCURVE",
"157 -14 OFFCURVE",
"267 -14 CURVE SMOOTH",
"347 -14 OFFCURVE",
"397 26 OFFCURVE",
"429 90 CURVE",
"441 90 LINE",
"441 0 LINE",
"519 0 LINE",
"519 496 LINE",
"441 496 LINE",
"441 238 LINE"
);
}
);
width = 612;
},
{
layerId = "50C9B437-FF28-4DF4-B0E6-290519DD406F";
paths = (
{
closed = 1;
nodes = (
"414 152 OFFCURVE",
"380 100 OFFCURVE",
"304 100 CURVE SMOOTH",
"238 100 OFFCURVE",
"204 142 OFFCURVE",
"204 212 CURVE SMOOTH",
"204 496 LINE",
"78 496 LINE",
"78 186 LINE SMOOTH",
"78 50 OFFCURVE",
"156 -14 OFFCURVE",
"254 -14 CURVE SMOOTH",
"328 -14 OFFCURVE",
"374 14 OFFCURVE",
"396 72 CURVE",
"414 72 LINE",
"414 0 LINE",
"540 0 LINE",
"540 496 LINE",
"414 496 LINE",
"414 236 LINE"
);
}
);
width = 612;
},
{
layerId = "6008D70E-46A9-43E5-86AA-D196D19196A4";
paths = (
{
closed = 1;
nodes = (
"363 71 OFFCURVE",
"362 64 OFFCURVE",
"362 58 CURVE SMOOTH",
"362 7 OFFCURVE",
"401 -14 OFFCURVE",
"440 -14 CURVE SMOOTH",
"464 -14 OFFCURVE",
"489 -7 OFFCURVE",
"505 6 CURVE SMOOTH",
"555 44 LINE",
"513 102 LINE",
"470 71 LINE SMOOTH",
"466 68 OFFCURVE",
"460 66 OFFCURVE",
"456 66 CURVE SMOOTH",
"447 66 OFFCURVE",
"440 73 OFFCURVE",
"443 84 CURVE SMOOTH",
"534 496 LINE",
"456 496 LINE",
"398 238 LINE SMOOTH",
"374 130 OFFCURVE",
"306 60 OFFCURVE",
"214 60 CURVE SMOOTH",
"148 60 OFFCURVE",
"115 89 OFFCURVE",
"115 152 CURVE SMOOTH",
"115 169 OFFCURVE",
"117 188 OFFCURVE",
"122 210 CURVE SMOOTH",
"186 496 LINE",
"108 496 LINE",
"42 200 LINE SMOOTH",
"36 175 OFFCURVE",
"34 155 OFFCURVE",
"34 135 CURVE SMOOTH",
"34 37 OFFCURVE",
"95 -14 OFFCURVE",
"182 -14 CURVE SMOOTH",
"262 -14 OFFCURVE",
"317 20 OFFCURVE",
"353 84 CURVE",
"365 84 LINE",
"364 78 LINE SMOOTH"
);
}
);
width = 612;
},
{
layerId = "612FA678-EA3C-4672-88DD-29ED08259473";
paths = (
{
closed = 1;
nodes = (
"31 190 LINE SMOOTH",
"27 171 OFFCURVE",
"25 153 OFFCURVE",
"25 136 CURVE SMOOTH",
"25 42 OFFCURVE",
"86 -14 OFFCURVE",
"172 -14 CURVE SMOOTH",
"234 -14 OFFCURVE",
"287 10 OFFCURVE",
"316 78 CURVE",
"334 78 LINE",
"339 19 OFFCURVE",
"387 -14 OFFCURVE",
"441 -14 CURVE SMOOTH",
"468 -14 OFFCURVE",
"496 -6 OFFCURVE",
"521 12 CURVE SMOOTH",
"568 46 LINE",
"505 138 LINE",
"469 112 LINE",
"458 118 LINE",
"540 496 LINE",
"414 496 LINE",
"358 232 LINE SMOOTH",
"340 148 OFFCURVE",
"304 100 OFFCURVE",
"234 100 CURVE SMOOTH",
"187 100 OFFCURVE",
"157 125 OFFCURVE",
"157 175 CURVE SMOOTH",
"157 185 OFFCURVE",
"158 195 OFFCURVE",
"161 208 CURVE SMOOTH",
"223 496 LINE",
"97 496 LINE"
);
}
);
width = 612;
}
);
unicode = 0075;
},
{
color = 0;
export = 0;
glyphname = v;
lastChange = "2018-09-16 21:49:09 +0000";
layers = (
{
layerId = "FBAFFF81-1F8B-4B58-9158-C4AF3F48F88C";
paths = (
{
closed = 1;
nodes = (
"463 496 LINE",
"311 36 LINE",
"299 36 LINE",
"147 496 LINE",
"55 496 LINE",
"228 0 LINE",
"382 0 LINE",
"555 496 LINE"
);
}
);
width = 612;
},
{
layerId = "50C9B437-FF28-4DF4-B0E6-290519DD406F";
paths = (
{
closed = 1;
nodes = (
"425 0 LINE",
"567 496 LINE",
"431 496 LINE",
"314 60 LINE",
"296 60 LINE",
"179 496 LINE",
"43 496 LINE",
"185 0 LINE"
);
}
);
width = 612;
},
{
layerId = "6008D70E-46A9-43E5-86AA-D196D19196A4";
paths = (
{
closed = 1;
nodes = (
"213 481 OFFCURVE",
"172 510 OFFCURVE",
"128 510 CURVE SMOOTH",
"99 510 OFFCURVE",
"69 497 OFFCURVE",
"48 470 CURVE SMOOTH",
"0 408 LINE",
"56 363 LINE",
"105 425 LINE SMOOTH",
"110 431 OFFCURVE",
"116 434 OFFCURVE",
"123 434 CURVE SMOOTH",
"133 434 OFFCURVE",
"139 428 OFFCURVE",
"140 418 CURVE SMOOTH",
"178 0 LINE",
"330 0 LINE",
"570 459 LINE",
"497 496 LINE",
"265 36 LINE",
"253 36 LINE",
"218 426 LINE SMOOTH"
);
}
);
width = 612;
},
{
layerId = "612FA678-EA3C-4672-88DD-29ED08259473";
paths = (
{
closed = 1;
nodes = (
"404 0 LINE",
"614 449 LINE",
"501 504 LINE",
"299 60 LINE",
"281 60 LINE",
"260 400 LINE SMOOTH",
"256 473 OFFCURVE",
"202 510 OFFCURVE",
"146 510 CURVE SMOOTH",
"108 510 OFFCURVE",
"70 493 OFFCURVE",
"44 460 CURVE SMOOTH",
"-3 400 LINE",
"84 329 LINE",
"123 378 LINE",
"135 374 LINE",
"161 0 LINE"
);
}
);
width = 612;
}
);
unicode = 0076;
},
{
export = 0;
glyphname = w;
lastChange = "2018-09-16 21:49:09 +0000";
layers = (
{
layerId = "FBAFFF81-1F8B-4B58-9158-C4AF3F48F88C";
paths = (
{
closed = 1;
nodes = (
"514 496 LINE",
"448 36 LINE",
"436 36 LINE",
"378 496 LINE",
"234 496 LINE",
"176 36 LINE",
"164 36 LINE",
"98 496 LINE",
"18 496 LINE",
"96 0 LINE",
"240 0 LINE",
"300 460 LINE",
"312 460 LINE",
"372 0 LINE",
"516 0 LINE",
"594 496 LINE"
);
}
);
width = 612;
},
{
layerId = "50C9B437-FF28-4DF4-B0E6-290519DD406F";
paths = (
{
closed = 1;
nodes = (
"481 496 LINE",
"459 120 LINE",
"459 60 LINE",
"435 60 LINE",
"435 120 LINE",
"410 496 LINE",
"202 496 LINE",
"177 120 LINE",
"177 60 LINE",
"153 60 LINE",
"153 120 LINE",
"131 496 LINE",
"15 496 LINE",
"48 0 LINE",
"266 0 LINE",
"294 376 LINE",
"294 436 LINE",
"318 436 LINE",
"318 376 LINE",
"346 0 LINE",
"564 0 LINE",
"597 496 LINE"
);
}
);
width = 612;
},
{
layerId = "6008D70E-46A9-43E5-86AA-D196D19196A4";
paths = (
{
closed = 1;
nodes = (
"63 496 LINE",
"18 0 LINE",
"158 0 LINE",
"314 460 LINE",
"326 460 LINE",
"289 0 LINE",
"429 0 LINE",
"588 485 LINE",
"520 506 LINE",
"371 36 LINE",
"359 36 LINE",
"398 496 LINE",
"253 496 LINE",
"99 36 LINE",
"87 36 LINE",
"134 496 LINE"
);
}
);
width = 612;
},
{
layerId = "612FA678-EA3C-4672-88DD-29ED08259473";
paths = (
{
closed = 1;
nodes = (
"89 496 LINE",
"32 0 LINE",
"228 0 LINE",
"343 436 LINE",
"361 436 LINE",
"302 0 LINE",
"503 0 LINE",
"636 483 LINE",
"533 508 LINE",
"432 126 LINE",
"420 72 LINE",
"402 72 LINE",
"412 120 LINE",
"464 496 LINE",
"264 496 LINE",
"163 120 LINE",
"152 72 LINE",
"134 72 LINE",
"145 126 LINE",
"194 496 LINE"
);
}
);
width = 612;
}
);
unicode = 0077;
},
{
color = 0;
export = 0;
glyphname = x;
lastChange = "2018-09-16 21:49:09 +0000";
layers = (
{
layerId = "FBAFFF81-1F8B-4B58-9158-C4AF3F48F88C";
paths = (
{
closed = 1;
nodes = (
"297 290 LINE",
"172 496 LINE",
"83 496 LINE",
"229 260 LINE",
"229 248 LINE",
"71 0 LINE",
"162 0 LINE",
"297 218 LINE",
"315 218 LINE",
"450 0 LINE",
"541 0 LINE",
"383 248 LINE",
"383 260 LINE",
"529 496 LINE",
"440 496 LINE",
"315 290 LINE"
);
}
);
width = 612;
},
{
layerId = "50C9B437-FF28-4DF4-B0E6-290519DD406F";
paths = (
{
closed = 1;
nodes = (
"297 314 LINE",
"205 496 LINE",
"65 496 LINE",
"186 263 LINE",
"186 245 LINE",
"59 0 LINE",
"204 0 LINE",
"297 194 LINE",
"315 194 LINE",
"408 0 LINE",
"553 0 LINE",
"426 245 LINE",
"426 263 LINE",
"546 496 LINE",
"407 496 LINE",
"315 314 LINE"
);
}
);
width = 612;
},
{
layerId = "6008D70E-46A9-43E5-86AA-D196D19196A4";
paths = (
{
closed = 1;
nodes = (
"76 -12 LINE",
"269 177 LINE",
"325 43 LINE SMOOTH",
"342 3 OFFCURVE",
"373 -14 OFFCURVE",
"405 -14 CURVE SMOOTH",
"441 -14 OFFCURVE",
"469 3 OFFCURVE",
"490 42 CURVE SMOOTH",
"533 121 LINE",
"470 155 LINE",
"427 78 LINE SMOOTH",
"423 71 OFFCURVE",
"417 67 OFFCURVE",
"410 67 CURVE SMOOTH",
"401 67 OFFCURVE",
"396 71 OFFCURVE",
"392 80 CURVE SMOOTH",
"327 234 LINE",
"551 453 LINE",
"498 506 LINE",
"296 308 LINE",
"237 451 LINE SMOOTH",
"220 491 OFFCURVE",
"194 510 OFFCURVE",
"158 510 CURVE SMOOTH",
"119 510 OFFCURVE",
"95 490 OFFCURVE",
"74 454 CURVE SMOOTH",
"29 376 LINE",
"91 340 LINE",
"135 415 LINE SMOOTH",
"139 423 OFFCURVE",
"145 427 OFFCURVE",
"153 427 CURVE SMOOTH",
"161 427 OFFCURVE",
"167 423 OFFCURVE",
"171 414 CURVE SMOOTH",
"238 252 LINE",
"23 41 LINE"
);
}
);
width = 612;
},
{
layerId = "612FA678-EA3C-4672-88DD-29ED08259473";
paths = (
{
closed = 1;
nodes = (
"472 504 LINE",
"314 356 LINE",
"282 432 LINE SMOOTH",
"259 485 OFFCURVE",
"224 510 OFFCURVE",
"174 510 CURVE SMOOTH",
"125 510 OFFCURVE",
"86 486 OFFCURVE",
"58 442 CURVE SMOOTH",
"10 368 LINE",
"106 306 LINE",
"154 383 LINE",
"166 383 LINE",
"216 264 LINE",
"16 77 LINE",
"101 -12 LINE",
"266 143 LINE",
"299 66 LINE SMOOTH",
"322 11 OFFCURVE",
"356 -14 OFFCURVE",
"411 -14 CURVE SMOOTH",
"468 -14 OFFCURVE",
"510 15 OFFCURVE",
"536 68 CURVE SMOOTH",
"568 132 LINE",
"468 184 LINE",
"429 112 LINE",
"417 112 LINE",
"365 235 LINE",
"557 415 LINE"
);
}
);
width = 612;
}
);
unicode = 0078;
userData = {
com.typemytype.robofont.guides = (
{
angle = 0;
isGlobal = 0;
magnetic = 5;
x = 0;
y = 254;
}
);
};
},
{
color = 0;
export = 0;
glyphname = y;
lastChange = "2018-09-17 17:30:42 +0000";
layers = (
{
layerId = "FBAFFF81-1F8B-4B58-9158-C4AF3F48F88C";
paths = (
{
closed = 1;
nodes = (
"447 -117 OFFCURVE",
"439 -128 OFFCURVE",
"420 -128 CURVE SMOOTH",
"165 -128 LINE",
"165 -200 LINE",
"448 -200 LINE SMOOTH",
"493 -200 OFFCURVE",
"525 -167 OFFCURVE",
"525 -122 CURVE SMOOTH",
"525 496 LINE",
"447 496 LINE",
"447 238 LINE SMOOTH",
"447 130 OFFCURVE",
"389 60 OFFCURVE",
"295 60 CURVE SMOOTH",
"207 60 OFFCURVE",
"165 106 OFFCURVE",
"165 210 CURVE SMOOTH",
"165 496 LINE",
"87 496 LINE",
"87 200 LINE SMOOTH",
"87 58 OFFCURVE",
"163 -14 OFFCURVE",
"273 -14 CURVE SMOOTH",
"353 -14 OFFCURVE",
"403 26 OFFCURVE",
"435 90 CURVE",
"447 90 LINE",
"447 -98 LINE SMOOTH"
);
}
);
width = 612;
},
{
layerId = "50C9B437-FF28-4DF4-B0E6-290519DD406F";
paths = (
{
closed = 1;
nodes = (
"414 152 OFFCURVE",
"380 100 OFFCURVE",
"304 100 CURVE SMOOTH",
"238 100 OFFCURVE",
"204 142 OFFCURVE",
"204 212 CURVE SMOOTH",
"204 496 LINE",
"78 496 LINE",
"78 186 LINE SMOOTH",
"78 50 OFFCURVE",
"156 -14 OFFCURVE",
"254 -14 CURVE SMOOTH",
"328 -14 OFFCURVE",
"374 14 OFFCURVE",
"396 72 CURVE",
"414 72 LINE",
"414 -50 LINE SMOOTH",
"414 -69 OFFCURVE",
"406 -80 OFFCURVE",
"387 -80 CURVE SMOOTH",
"168 -80 LINE",
"168 -200 LINE",
"463 -200 LINE SMOOTH",
"508 -200 OFFCURVE",
"540 -167 OFFCURVE",
"540 -122 CURVE SMOOTH",
"540 496 LINE",
"414 496 LINE",
"414 236 LINE SMOOTH"
);
}
);
width = 612;
},
{
layerId = "6008D70E-46A9-43E5-86AA-D196D19196A4";
paths = (
{
closed = 1;
nodes = (
"232 413 OFFCURVE",
"233 419 OFFCURVE",
"233 427 CURVE SMOOTH",
"233 479 OFFCURVE",
"196 510 OFFCURVE",
"152 510 CURVE SMOOTH",
"132 510 OFFCURVE",
"110 503 OFFCURVE",
"89 489 CURVE SMOOTH",
"37 454 LINE",
"77 395 LINE",
"128 430 LINE SMOOTH",
"132 433 OFFCURVE",
"137 435 OFFCURVE",
"141 435 CURVE SMOOTH",
"150 435 OFFCURVE",
"158 427 OFFCURVE",
"155 414 CURVE SMOOTH",
"110 200 LINE SMOOTH",
"105 178 OFFCURVE",
"103 158 OFFCURVE",
"103 139 CURVE SMOOTH",
"103 42 OFFCURVE",
"161 -14 OFFCURVE",
"250 -14 CURVE SMOOTH",
"326 -14 OFFCURVE",
"380 18 OFFCURVE",
"420 78 CURVE",
"432 78 LINE",
"394 -98 LINE SMOOTH",
"390 -117 OFFCURVE",
"380 -128 OFFCURVE",
"361 -128 CURVE SMOOTH",
"103 -128 LINE",
"103 -200 LINE",
"374 -200 LINE SMOOTH",
"419 -200 OFFCURVE",
"458 -167 OFFCURVE",
"467 -122 CURVE SMOOTH",
"598 496 LINE",
"520 496 LINE",
"466 238 LINE SMOOTH",
"443 130 OFFCURVE",
"374 60 OFFCURVE",
"282 60 CURVE SMOOTH",
"216 60 OFFCURVE",
"183 89 OFFCURVE",
"183 152 CURVE SMOOTH",
"183 169 OFFCURVE",
"185 188 OFFCURVE",
"190 210 CURVE SMOOTH",
"230 401 LINE SMOOTH"
);
}
);
width = 612;
},
{
layerId = "612FA678-EA3C-4672-88DD-29ED08259473";
paths = (
{
closed = 1;
nodes = (
"266 385 OFFCURVE",
"267 395 OFFCURVE",
"267 404 CURVE SMOOTH",
"267 470 OFFCURVE",
"216 510 OFFCURVE",
"157 510 CURVE SMOOTH",
"131 510 OFFCURVE",
"103 502 OFFCURVE",
"78 485 CURVE SMOOTH",
"5 436 LINE",
"68 342 LINE",
"128 384 LINE",
"138 377 LINE",
"99 192 LINE SMOOTH",
"95 174 OFFCURVE",
"93 156 OFFCURVE",
"93 140 CURVE SMOOTH",
"93 42 OFFCURVE",
"159 -14 OFFCURVE",
"238 -14 CURVE SMOOTH",
"306 -14 OFFCURVE",
"350 12 OFFCURVE",
"379 72 CURVE",
"397 72 LINE",
"371 -50 LINE SMOOTH",
"367 -69 OFFCURVE",
"357 -80 OFFCURVE",
"338 -80 CURVE SMOOTH",
"99 -80 LINE",
"99 -200 LINE",
"389 -200 LINE SMOOTH",
"434 -200 OFFCURVE",
"473 -167 OFFCURVE",
"482 -122 CURVE SMOOTH",
"613 496 LINE",
"487 496 LINE",
"432 236 LINE SMOOTH",
"413 148 OFFCURVE",
"378 100 OFFCURVE",
"306 100 CURVE SMOOTH",
"256 100 OFFCURVE",
"224 127 OFFCURVE",
"224 177 CURVE SMOOTH",
"224 187 OFFCURVE",
"226 199 OFFCURVE",
"228 208 CURVE SMOOTH",
"264 374 LINE SMOOTH"
);
}
);
width = 612;
}
);
unicode = 0079;
},
{
export = 0;
glyphname = z;
lastChange = "2018-09-16 21:49:09 +0000";
layers = (
{
layerId = "FBAFFF81-1F8B-4B58-9158-C4AF3F48F88C";
paths = (
{
closed = 1;
nodes = (
"155 84 LINE",
"511 376 LINE",
"511 496 LINE",
"97 496 LINE",
"97 424 LINE",
"445 424 LINE",
"445 412 LINE",
"91 124 LINE",
"91 0 LINE",
"523 0 LINE",
"523 72 LINE",
"155 72 LINE"
);
}
);
width = 612;
},
{
layerId = "50C9B437-FF28-4DF4-B0E6-290519DD406F";
paths = (
{
closed = 1;
nodes = (
"199 138 LINE",
"511 292 LINE",
"511 496 LINE",
"97 496 LINE",
"97 380 LINE",
"403 380 LINE",
"403 362 LINE",
"91 210 LINE",
"91 0 LINE",
"523 0 LINE",
"523 120 LINE",
"199 120 LINE"
);
}
);
width = 612;
},
{
layerId = "6008D70E-46A9-43E5-86AA-D196D19196A4";
paths = (
{
closed = 1;
nodes = (
"130 84 LINE",
"538 370 LINE",
"538 496 LINE",
"134 496 LINE",
"134 424 LINE",
"472 424 LINE",
"472 412 LINE",
"64 130 LINE",
"64 0 LINE",
"485 0 LINE",
"485 72 LINE",
"130 72 LINE"
);
}
);
width = 612;
},
{
layerId = "612FA678-EA3C-4672-88DD-29ED08259473";
paths = (
{
closed = 1;
nodes = (
"162 138 LINE",
"534 302 LINE",
"534 496 LINE",
"123 496 LINE",
"123 380 LINE",
"414 380 LINE",
"414 362 LINE",
"40 197 LINE",
"40 0 LINE",
"469 0 LINE",
"469 120 LINE",
"162 120 LINE"
);
}
);
width = 612;
}
);
unicode = 007A;
},
